<svg xmlns="http://www.w3.org/2000/svg">
<defs>
<font horiz-adv-x="2048">
<!-- Digitized data copyright The Monotype Corporation 1991-1995. All rights reserved. -->
<!-- Copyright: Copyright 2022 Adobe System Incorporated. All rights reserved. -->
<font-face font-family="OCRAExtended" units-per-em="2048" underline-position="-86" underline-thickness="170"/>
<missing-glyph horiz-adv-x="2048" d="M256,0l0,1536l1536,0l0,-1536M384,128l1280,0l0,1280l-1280,0z"/>
<glyph unicode=" " horiz-adv-x="1237"/>
<glyph unicode="!" horiz-adv-x="1237" d="M754,1243l-41,-651C711,568 702,548 686,532C670,516 651,508 629,508C604,508 584,516 569,533C553,550 544,569 543,592l-41,653C501,1268 509,1287 526,1304C543,1321 563,1329 586,1329l84,0C693,1329 714,1320 731,1303C748,1285 755,1265 754,1243M586,244l80,0C689,244 710,236 727,219C744,202 752,183 752,160l0,-74C752,63 744,43 728,27C711,10 691,2 668,2l-84,0C561,2 541,10 525,27C508,43 500,63 500,86l0,72C501,181 509,202 526,219C543,236 563,244 586,244z"/>
<glyph unicode="&quot;" horiz-adv-x="1237" d="M203,1331l848,0l0,-78l-84,-452C957,753 928,729 881,729C834,729 806,753 797,801l-72,360l-195,0l-73,-362C446,751 418,727 373,727C324,727 296,751 287,799l-84,454z"/>
<glyph unicode="#" horiz-adv-x="1237" d="M545,510l0,-207C545,280 537,260 521,243C504,226 484,217 461,217C438,217 418,226 402,243C385,260 377,280 377,303l0,207l-86,0C268,510 248,518 232,535C215,551 207,571 207,594C207,617 215,636 232,653C248,670 268,678 291,678l84,0l0,192l-84,0C268,870 248,878 232,895C215,911 207,931 207,954C207,978 215,998 232,1014C248,1030 268,1038 291,1038l86,0l0,207C377,1268 385,1288 402,1305C418,1321 438,1329 461,1329C484,1329 503,1321 520,1304C537,1287 545,1268 545,1245l0,-207l168,0l0,207C713,1268 721,1288 738,1305C755,1321 774,1329 797,1329C820,1329 841,1321 858,1304C875,1287 883,1268 883,1245l0,-207l86,0C992,1038 1011,1030 1028,1014C1045,997 1053,977 1053,954C1053,930 1044,910 1026,893C1008,876 989,868 969,868l-84,0l0,-190l84,0C991,678 1011,670 1028,653C1045,636 1053,617 1053,594C1053,572 1045,553 1030,536C1014,519 994,510 969,510l-86,0l0,-207C883,280 875,260 858,243C841,226 820,217 797,217C774,217 755,226 738,243C721,260 713,280 713,303l0,207M545,868l0,-190l168,0l0,190z"/>
<glyph unicode="$" horiz-adv-x="1237" d="M1055,666l0,-291C1055,352 1047,333 1030,316C1013,299 992,291 969,291l-256,0l0,-205C713,63 705,43 688,27C671,10 652,2 629,2C605,2 585,10 568,27C551,43 543,63 543,86l0,207l-254,0C266,293 247,301 230,318C213,334 205,354 205,377C205,400 213,420 230,437C246,453 266,461 289,461l594,0l0,121l-592,0C268,582 248,590 232,606C215,622 207,642 207,666l0,290C207,979 215,999 232,1016C248,1032 268,1040 291,1040l252,0l0,205C543,1268 551,1287 567,1304C582,1321 603,1329 630,1329C653,1329 672,1321 689,1305C705,1288 713,1268 713,1245l0,-205l258,0C994,1040 1015,1032 1032,1015C1049,998 1057,979 1057,956C1057,933 1049,913 1032,896C1015,879 994,870 971,870l-594,0l0,-120l592,0C992,750 1013,742 1030,725C1047,708 1055,689 1055,666z"/>
<glyph unicode="%" horiz-adv-x="1237" d="M287,1329l170,0C480,1329 501,1321 518,1304C535,1287 543,1266 543,1243l0,-145C543,1075 535,1055 518,1038C501,1021 482,1012 459,1012l-174,0C262,1012 243,1020 227,1037C211,1054 203,1073 203,1096l0,147C203,1266 211,1287 228,1304C245,1321 264,1329 287,1329M1028,1036l-680,-866C334,153 316,145 293,145C271,145 251,153 233,170C214,186 205,205 205,228C205,249 212,270 227,289l680,868C921,1174 940,1182 965,1182C988,1182 1009,1174 1026,1159C1043,1144 1051,1124 1051,1100C1051,1077 1043,1056 1028,1036M795,315l170,0C988,315 1008,307 1025,291C1041,275 1049,255 1049,231l0,-147C1049,61 1041,41 1025,25C1008,8 988,0 965,0l-172,0C770,0 750,8 735,24C719,40 711,60 711,84l0,147C711,255 719,275 735,291C751,307 771,315 795,315z"/>
<glyph unicode="&amp;" horiz-adv-x="1237" d="M913,25l-100,104l-129,-111C676,7 660,2 637,2l-174,0C393,2 333,27 284,77C234,127 209,187 209,258l0,117C209,402 220,425 242,444l153,131l-155,170C219,768 209,794 209,823l0,105C209,997 234,1057 284,1107C334,1157 394,1182 463,1182l170,0C702,1182 762,1157 812,1107C862,1057 887,997 887,928l0,-113C887,784 873,756 844,731l-201,-172l184,-194l86,71C932,453 954,461 977,461C1000,461 1019,453 1035,436C1050,419 1058,400 1058,377C1058,354 1049,334 1032,319l-88,-77l88,-99C1048,125 1056,105 1056,82C1056,59 1048,40 1032,24C1015,8 995,0 972,0C949,0 929,8 913,25M719,848l0,82C719,953 711,974 695,991C678,1008 658,1016 635,1016l-172,0C440,1016 420,1008 404,991C387,974 379,953 379,930l0,-84l149,-160M379,336l0,-82C379,231 387,211 404,195C421,178 440,170 463,170l137,0l96,84l-182,197z"/>
<glyph unicode="'" horiz-adv-x="1237" d="M551,1329l166,0C740,1329 760,1321 777,1304C794,1287 802,1267 802,1244C802,1237 801,1230 799,1223l-168,-578C618,603 590,582 549,582C524,582 504,591 488,608C471,625 463,647 463,672l0,563C463,1262 471,1284 487,1302C502,1320 524,1329 551,1329z"/>
<glyph unicode="(" horiz-adv-x="1237" d="M629,825l0,-323C629,459 642,420 668,387l200,-256C878,120 883,104 883,83C883,56 874,35 857,20C840,5 819,-3 796,-3C771,-3 752,6 739,23l-202,258C486,344 461,412 461,485l0,359C461,915 486,982 537,1047l202,258C753,1322 772,1331 795,1331C818,1331 839,1323 857,1308C874,1293 883,1271 883,1244C883,1224 878,1208 868,1196l-200,-254C642,908 629,869 629,825z"/>
<glyph unicode=")" horiz-adv-x="1237" d="M643,502l0,325C643,869 629,907 602,942l-201,254C392,1209 387,1224 387,1243C387,1269 396,1290 414,1307C431,1323 451,1331 474,1331C497,1331 516,1322 530,1305l205,-258C784,985 809,917 809,844l0,-359C809,410 784,342 735,281l-205,-258C516,6 497,-3 473,-3C450,-3 430,5 413,21C396,37 387,58 387,85C387,105 392,121 401,133l201,254C629,420 643,459 643,502z"/>
<glyph unicode="*" horiz-adv-x="1237" d="M568,850l0,248C568,1121 577,1140 594,1157C611,1174 631,1182 654,1182C677,1182 696,1174 713,1157C730,1140 738,1121 738,1098l0,-252l196,168C953,1029 974,1037 998,1037C1022,1037 1042,1029 1057,1012C1072,995 1080,975 1080,953C1080,929 1072,910 1055,895l-270,-231l268,-230C1070,419 1078,400 1078,377C1078,354 1070,334 1054,317C1038,300 1018,292 995,292C973,292 953,300 934,315l-196,168l0,-252C738,208 730,189 713,172C696,155 677,147 654,147C630,147 610,155 593,172C576,189 568,208 568,231l0,248l-193,-166C357,298 337,291 315,291C292,291 272,300 256,317C239,334 231,354 231,377C231,401 239,420 256,434l271,230l-269,231C241,910 232,930 232,955C232,978 240,998 257,1015C274,1032 293,1040 316,1040C339,1040 359,1032 377,1016z"/>
<glyph unicode="+" horiz-adv-x="1237" d="M545,752l0,258C545,1033 553,1052 570,1068C587,1084 607,1092 631,1092C654,1092 673,1084 689,1068C705,1052 713,1033 713,1010l0,-258l258,0C994,752 1015,744 1032,728C1049,711 1057,691 1057,668C1057,645 1049,625 1032,609C1015,592 994,584 971,584l-256,0l0,-258C715,302 707,282 690,265C673,248 652,240 629,240C606,240 586,248 570,265C553,282 545,302 545,326l0,258l-258,0C264,584 245,592 228,609C211,625 203,645 203,668C203,691 211,710 228,727C245,744 264,752 287,752z"/>
<glyph unicode="," horiz-adv-x="1237" d="M883,522l0,-436C883,63 875,43 859,27C842,10 822,2 799,2C776,2 756,10 740,27C723,43 715,63 715,86l0,352l-256,0C436,438 416,447 400,464C383,481 375,501 375,524C375,547 383,566 400,583C417,600 436,608 459,608l340,0C822,608 842,600 859,583C875,566 883,546 883,522z"/>
<glyph unicode="-" horiz-adv-x="1237" d="M1053,670l0,-74C1053,573 1045,553 1029,536C1012,519 992,510 969,510l-678,0C268,510 248,519 232,536C215,553 207,573 207,596l0,74C207,693 215,713 232,730C248,746 268,754 291,754l678,0C990,754 1010,746 1027,731C1044,715 1053,695 1053,670z"/>
<glyph unicode="." horiz-adv-x="1237" d="M543,530l170,0C736,530 755,522 772,506C789,489 797,469 797,446l0,-143C797,280 789,260 773,243C756,226 736,217 713,217l-172,0C518,217 498,225 482,242C465,259 457,278 457,301l0,145C457,469 465,489 482,506C499,522 519,530 543,530z"/>
<glyph unicode="/" horiz-adv-x="1237" d="M1050,1184l-682,-1159C357,8 340,-1 317,-1C295,-1 275,7 256,22C237,37 227,56 227,79C227,100 234,122 247,145l682,1158C940,1321 958,1330 982,1330C1003,1330 1024,1323 1043,1309C1062,1294 1071,1275 1071,1252C1071,1230 1064,1207 1050,1184z"/>
<glyph unicode="0" horiz-adv-x="1237" d="M203,164l0,1005C203,1213 219,1251 251,1283C283,1315 321,1331 365,1331l524,0C932,1331 970,1315 1002,1283C1033,1251 1049,1213 1049,1169l0,-1005C1049,119 1033,81 1002,50C970,18 932,2 887,2l-522,0C320,2 281,18 250,50C219,81 203,119 203,164M883,170l0,991l-512,0l0,-991z"/>
<glyph unicode="1" horiz-adv-x="1237" d="M285,170l258,0l0,991l-254,0C266,1161 246,1169 230,1186C213,1202 205,1222 205,1245C205,1268 213,1288 230,1305C246,1321 266,1329 289,1329l422,0l0,-1159l168,0l0,350C879,543 887,562 904,579C920,596 940,604 963,604C986,604 1006,596 1023,580C1039,563 1047,543 1047,520l0,-434C1047,63 1039,43 1023,27C1006,10 986,2 963,2l-678,0C262,2 242,11 226,28C209,45 201,65 201,88C201,111 209,130 226,146C242,162 262,170 285,170z"/>
<glyph unicode="2" horiz-adv-x="1237" d="M969,2l-764,0l0,580C205,629 222,669 255,702C288,735 327,752 373,752l510,0l0,409l-600,0C259,1161 239,1169 223,1186C207,1202 199,1222 199,1245C199,1268 207,1288 223,1305C239,1321 259,1329 283,1329l600,0C930,1329 970,1313 1003,1280C1036,1247 1053,1207 1053,1161l0,-409C1053,705 1036,665 1003,632C970,599 930,582 883,582l-510,0l0,-412l596,0C992,170 1011,162 1028,146C1045,129 1053,109 1053,86C1053,63 1045,43 1028,27C1011,10 992,2 969,2z"/>
<glyph unicode="3" horiz-adv-x="1237" d="M1053,1161l0,-315C1053,773 1030,713 985,668C1032,616 1055,559 1055,498l0,-328C1055,124 1038,85 1005,52C972,19 932,2 885,2l-594,0C268,2 248,10 232,27C215,43 207,63 207,86C207,109 215,129 232,146C248,162 268,170 291,170l592,0l0,328C883,521 875,542 859,559C842,576 822,584 799,584l-338,0C438,584 418,592 402,608C385,624 377,644 377,668C377,691 385,711 402,728C418,744 438,752 461,752l340,0C824,752 843,760 860,777C877,793 885,813 885,836l0,325l-600,0C262,1161 242,1169 226,1186C209,1202 201,1222 201,1245C201,1268 209,1288 226,1305C242,1321 262,1329 285,1329l600,0C932,1329 971,1313 1004,1280C1037,1247 1053,1207 1053,1161z"/>
<glyph unicode="4" horiz-adv-x="1237" d="M756,86l0,350l-506,0l0,809C250,1268 259,1289 276,1306C293,1323 313,1331 336,1331C359,1331 378,1323 395,1306C412,1289 420,1268 420,1245l0,-639l336,0l0,492C756,1121 764,1142 781,1159C797,1176 817,1184 840,1184C863,1184 883,1176 900,1159C916,1142 924,1121 924,1098l0,-492C947,606 967,598 984,582C1000,565 1008,545 1008,522C1008,499 1000,479 984,463C967,446 947,438 924,438l0,-352C924,63 916,43 899,27C882,10 863,2 840,2C817,2 797,10 781,27C764,43 756,63 756,86z"/>
<glyph unicode="5" horiz-adv-x="1237" d="M514,170l389,0l0,412l-508,0l0,747l592,0C1010,1329 1029,1321 1046,1304C1063,1287 1071,1268 1071,1245C1071,1222 1063,1202 1047,1186C1030,1169 1010,1161 987,1161l-422,0l0,-411l338,0C948,750 988,733 1021,700C1054,667 1071,627 1071,582l0,-412C1071,124 1055,85 1022,52C989,19 949,2 903,2l-389,0C479,2 442,10 403,27l-127,53C242,94 225,121 225,160C225,183 233,203 248,220C263,236 282,244 304,244C321,244 340,239 362,229l111,-47C486,174 500,170 514,170z"/>
<glyph unicode="6" horiz-adv-x="1237" d="M293,1329l84,0C400,1329 420,1321 437,1304C453,1287 461,1268 461,1245C461,1222 453,1202 437,1186C420,1169 400,1161 377,1161l0,-555l592,0C992,606 1011,598 1028,581C1045,564 1053,543 1053,520l0,-434C1053,63 1045,43 1028,27C1011,10 990,2 967,2l-674,0C270,2 250,10 233,27C216,44 207,63 207,86l0,1159C207,1268 215,1288 232,1305C249,1321 269,1329 293,1329M375,436l0,-266l508,0l0,266z"/>
<glyph unicode="7" horiz-adv-x="1237" d="M203,1171l0,72C203,1266 211,1286 228,1303C244,1319 264,1327 287,1327l762,0l0,-516C1049,784 1039,761 1018,743l-309,-264l0,-391C709,65 701,45 685,28C668,11 648,2 625,2C602,2 582,10 565,27C548,44 539,63 539,86l0,424C539,542 549,567 569,584l310,262l0,313l-508,0C359,1111 331,1087 287,1087C264,1087 244,1095 228,1112C211,1128 203,1148 203,1171z"/>
<glyph unicode="8" horiz-adv-x="1237" d="M201,172l0,410C201,628 218,668 251,701C284,734 324,750 371,750l0,495C371,1268 379,1288 395,1305C411,1321 431,1329 455,1329l342,0C820,1329 840,1321 857,1305C873,1288 881,1268 881,1245l0,-495C926,750 966,734 999,702C1032,669 1049,629 1049,582l0,-412C1049,124 1032,85 999,52C966,19 926,2 881,2l-510,0C324,2 284,19 251,54C218,89 201,128 201,172M539,1161l0,-411l174,0l0,411M371,582l0,-412l510,0l0,412z"/>
<glyph unicode="9" horiz-adv-x="1237" d="M969,4l-84,0C862,4 843,12 826,29C809,45 801,65 801,88C801,111 809,131 826,148C842,164 862,172 885,172l0,555l-592,0C270,727 251,735 234,752C217,769 209,788 209,811l0,436C209,1270 217,1289 234,1306C251,1323 270,1331 293,1331l676,0C992,1331 1011,1323 1028,1306C1045,1289 1053,1270 1053,1247l0,-1159C1053,65 1045,45 1029,29C1012,12 992,4 969,4M887,897l0,264l-510,0l0,-264z"/>
<glyph unicode=":" horiz-adv-x="1237" d="M545,1110l168,0C737,1110 757,1101 774,1083C791,1065 799,1046 799,1026l0,-145C799,858 791,839 774,822C757,805 737,797 715,797l-172,0C520,797 500,805 485,821C469,837 461,857 461,881l0,145C461,1049 469,1068 486,1085C502,1102 522,1110 545,1110M545,530l168,0C736,530 757,522 774,506C791,489 799,469 799,446l0,-143C799,280 791,260 774,243C757,226 738,217 715,217l-172,0C520,217 500,225 485,242C469,259 461,278 461,301l0,145C461,470 469,490 486,506C502,522 522,530 545,530z"/>
<glyph unicode=";" horiz-adv-x="1237" d="M457,1186l170,0C650,1186 670,1178 687,1162C703,1145 711,1125 711,1102l0,-144C711,935 703,915 687,899C670,882 650,874 627,874l-170,0C434,874 414,882 398,899C381,915 373,935 373,958l0,144C373,1125 381,1144 398,1161C415,1178 434,1186 457,1186M877,522l0,-436C877,63 869,43 852,27C835,10 816,2 793,2C769,2 749,10 732,27C715,43 707,63 707,86l0,352l-256,0C428,438 409,447 393,464C377,481 369,501 369,524C369,547 377,566 394,583C410,600 430,608 453,608l340,0C815,608 835,600 852,583C869,566 877,545 877,522z"/>
<glyph unicode="&lt;" horiz-adv-x="1237" d="M207,633l0,65C207,731 224,758 258,778l662,391C938,1181 956,1187 974,1187C995,1187 1015,1179 1032,1162C1049,1145 1057,1125 1057,1101C1057,1070 1045,1047 1020,1032l-619,-366l619,-365C1045,285 1057,261 1057,230C1057,206 1049,186 1032,169C1015,152 995,144 974,144C957,144 939,150 920,162l-662,391C224,572 207,598 207,633z"/>
<glyph unicode="=" horiz-adv-x="1237" d="M967,799l-680,0C264,799 245,807 228,824C211,841 203,860 203,883C203,906 211,925 228,942C245,959 264,967 287,967l680,0C990,967 1010,959 1027,943C1043,926 1051,906 1051,883C1051,860 1043,840 1027,824C1010,807 990,799 967,799M967,436l-680,0C264,436 245,445 228,462C211,479 203,499 203,522C203,545 211,565 228,582C245,598 264,606 287,606l680,0C990,606 1009,598 1026,581C1043,564 1051,545 1051,522C1051,499 1043,479 1027,462C1010,445 990,436 967,436z"/>
<glyph unicode="&gt;" horiz-adv-x="1237" d="M1078,698l0,-65C1078,599 1062,572 1029,553l-662,-391C348,150 329,144 312,144C291,144 272,152 255,168C238,184 229,204 229,229C229,261 242,284 267,299l618,367l-618,364C242,1046 229,1070 229,1102C229,1127 238,1147 255,1163C272,1179 291,1187 312,1187C329,1187 347,1181 367,1169l662,-391C1062,759 1078,732 1078,698z"/>
<glyph unicode="?" horiz-adv-x="1237" d="M1052,897l-485,-418l0,-104C567,352 559,333 542,316C525,299 506,291 483,291C460,291 440,299 424,316C407,333 399,352 399,375l0,139C399,544 408,567 425,582l480,413l0,62l-84,76l-447,-383C354,733 333,724 312,724C291,724 272,732 255,748C238,764 229,785 229,810C229,837 236,857 251,870l516,439C782,1322 801,1328 823,1328C844,1328 861,1322 874,1311l172,-150C1065,1146 1075,1125 1075,1098l0,-144C1075,929 1067,910 1052,897M481,172C504,172 524,164 541,147C557,130 565,109 565,86C565,63 557,43 541,27C524,10 504,2 481,2C458,2 438,10 422,27C405,43 397,63 397,86C397,109 405,130 422,147C438,164 458,172 481,172z"/>
<glyph unicode="@" horiz-adv-x="1237" d="M885,254l0,786C885,1071 873,1099 848,1124C823,1149 795,1161 764,1161l-258,0C468,1161 440,1154 423,1140C406,1126 388,1102 370,1068C351,1033 326,1016 293,1016C267,1016 246,1024 231,1040C215,1056 207,1075 207,1096C207,1139 234,1188 289,1245C343,1301 407,1329 481,1329l287,0C842,1329 908,1300 966,1242C1024,1183 1053,1114 1053,1034l0,-790C1053,181 1028,125 979,76C930,27 872,2 805,2C735,2 678,24 633,68C589,24 532,2 463,2C392,2 332,27 283,77C234,127 209,183 209,244l0,323C209,636 234,696 284,746C333,796 393,821 463,821l164,0C687,821 717,791 717,731l0,-477C717,231 725,211 742,195C758,178 778,170 801,170C824,170 843,178 860,195C877,211 885,231 885,254M549,254l0,399l-76,0C410,653 379,622 379,559l0,-305C379,231 387,211 404,195C421,178 440,170 463,170C486,170 507,178 524,195C541,211 549,231 549,254z"/>
<glyph unicode="A" horiz-adv-x="1237" d="M212,117l340,1149C565,1308 593,1329 636,1329C677,1329 703,1311 714,1276l335,-1167C1052,100 1053,92 1053,84C1053,61 1045,41 1029,25C1013,8 995,0 974,0C930,0 902,20 890,61l-68,228l-383,0l-74,-244C363,34 355,24 340,15C325,5 309,0 292,0C267,0 247,8 231,25C215,42 207,62 207,86C207,96 209,106 212,117M634,940l-144,-481l283,0z"/>
<glyph unicode="B" horiz-adv-x="1237" d="M1053,412l0,-74C1053,245 1020,166 955,100C889,33 810,0 717,0l-514,0l0,1329l514,0C810,1329 889,1296 955,1230C1020,1164 1053,1084 1053,991l0,-71C1053,821 1015,736 938,666C1015,595 1053,510 1053,412M881,922l0,69C881,1038 865,1078 832,1111C799,1144 759,1161 713,1161l-342,0l0,-407l342,0C758,754 798,771 831,804C864,837 881,876 881,922M881,338l0,70C881,455 865,495 832,528C799,561 759,578 713,578l-340,0l0,-408l340,0C758,170 798,187 831,220C864,253 881,292 881,338z"/>
<glyph unicode="C" horiz-adv-x="1237" d="M668,168l303,0C994,168 1015,160 1032,144C1049,127 1057,107 1057,84C1057,61 1049,41 1032,25C1015,8 994,0 971,0l-314,0C617,0 576,13 533,38C490,63 461,92 444,123l-194,375C224,552 211,607 211,664C211,727 223,781 248,827l196,371C463,1233 492,1263 531,1290C570,1316 608,1329 645,1329l332,0C1000,1329 1020,1321 1037,1304C1053,1287 1061,1268 1061,1245C1061,1222 1053,1202 1037,1185C1020,1168 1000,1159 977,1159l-320,0C630,1159 609,1143 592,1112l-186,-348C391,737 384,704 384,667C384,628 392,593 408,563l178,-342C603,186 630,168 668,168z"/>
<glyph unicode="D" horiz-adv-x="1237" d="M289,1329l332,0C664,1328 707,1314 748,1287C789,1260 819,1227 838,1188l166,-336C1035,791 1051,728 1051,662C1051,601 1034,538 1001,473l-167,-332C813,98 782,64 742,39C702,13 657,0 608,0l-321,0C264,0 244,8 228,25C211,42 203,61 203,84C203,107 211,128 228,145C244,162 264,170 287,170l88,0l0,989l-86,0C266,1159 246,1168 230,1185C213,1202 205,1222 205,1245C205,1268 213,1287 230,1304C246,1321 266,1329 289,1329M543,1159l0,-991l59,0C639,168 667,186 686,223l166,330C873,596 883,633 883,662C883,699 875,733 858,766l-172,342C668,1142 639,1159 598,1159z"/>
<glyph unicode="E" horiz-adv-x="1237" d="M969,1159l-594,0l0,-409l256,0C654,750 673,742 690,725C707,708 715,689 715,666C715,642 707,622 691,605C674,588 654,580 631,580l-256,0l0,-412l596,0C994,168 1013,160 1030,144C1047,127 1055,107 1055,84C1055,61 1047,41 1030,25C1013,8 992,0 969,0l-762,0l0,1329l762,0C992,1329 1013,1321 1030,1304C1047,1287 1055,1266 1055,1243C1055,1220 1047,1201 1030,1184C1013,1167 992,1159 969,1159z"/>
<glyph unicode="F" horiz-adv-x="1237" d="M207,84l0,1245l762,0C991,1329 1011,1321 1028,1304C1045,1287 1053,1268 1053,1245C1053,1222 1045,1202 1028,1185C1011,1168 992,1159 969,1159l-594,0l0,-264l426,0C824,895 844,887 861,871C877,854 885,834 885,811C885,788 877,768 861,752C844,735 824,727 801,727l-426,0l0,-643C375,61 367,41 351,25C334,8 314,0 291,0C268,0 248,8 232,25C215,41 207,61 207,84z"/>
<glyph unicode="G" horiz-adv-x="1237" d="M694,1329l279,0C996,1329 1016,1321 1033,1305C1049,1288 1057,1268 1057,1245C1057,1220 1048,1200 1031,1184C1013,1167 994,1159 973,1159l-266,0C681,1159 658,1147 639,1122l-236,-303C383,795 373,762 373,719l0,-465C373,230 381,210 398,193C414,176 434,168 457,168l342,0C822,168 841,176 858,193C875,210 883,229 883,252l0,182l-174,0C685,434 665,442 649,459C633,475 625,495 625,518C625,541 633,561 649,578C665,594 685,602 709,602l342,0l0,-350C1051,183 1026,123 977,74C928,25 868,0 799,0l-342,0C387,0 327,25 278,74C228,123 203,183 203,252l0,465C203,800 225,871 270,928l248,315C536,1267 561,1287 594,1304C626,1321 659,1329 694,1329z"/>
<glyph unicode="H" horiz-adv-x="1237" d="M203,84l0,1161C203,1268 211,1287 228,1304C244,1321 264,1329 287,1329C310,1329 329,1321 346,1304C363,1287 371,1268 371,1245l0,-495l512,0l0,495C883,1268 891,1287 908,1304C924,1321 944,1329 967,1329C990,1329 1010,1321 1027,1304C1043,1287 1051,1267 1051,1243l0,-1159C1051,61 1043,42 1026,25C1009,8 989,0 967,0C943,0 923,8 907,25C891,41 883,61 883,84l0,498l-510,0l0,-498C373,61 365,42 348,25C331,8 310,0 287,0C264,0 245,8 228,25C211,41 203,61 203,84z"/>
<glyph unicode="I" horiz-adv-x="1237" d="M289,1329l680,0C991,1329 1011,1321 1028,1304C1045,1287 1053,1268 1053,1245C1053,1222 1045,1202 1028,1185C1011,1168 992,1159 969,1159l-254,0l0,-991l254,0C992,168 1012,160 1029,144C1045,127 1053,107 1053,84C1053,61 1045,41 1028,25C1011,8 992,0 969,0l-680,0C266,0 246,8 230,25C213,41 205,61 205,84C205,107 213,127 230,144C246,160 266,168 289,168l258,0l0,991l-258,0C266,1159 246,1167 230,1184C213,1201 205,1220 205,1243C205,1267 213,1287 230,1304C246,1321 266,1329 289,1329z"/>
<glyph unicode="J" horiz-adv-x="1237" d="M289,254l0,266C289,543 297,563 314,580C330,596 350,604 373,604C396,604 416,596 433,580C449,563 457,543 457,520l0,-268C457,229 465,210 482,194C499,178 519,170 543,170l170,0C736,170 757,178 774,195C791,211 799,231 799,254l0,991C799,1268 807,1288 823,1305C839,1321 858,1329 881,1329C904,1329 924,1320 941,1302C958,1284 967,1264 967,1241l0,-987C967,183 941,123 890,74C839,25 780,0 713,0l-170,0C473,0 413,25 364,75C314,125 289,185 289,254z"/>
<glyph unicode="K" horiz-adv-x="1237" d="M205,84l0,1159C205,1267 213,1287 230,1304C246,1321 266,1329 289,1329C312,1329 332,1321 349,1305C365,1288 373,1268 373,1245l0,-397l538,459C930,1322 951,1330 974,1330C997,1330 1017,1321 1033,1304C1049,1287 1057,1267 1057,1244C1057,1221 1048,1201 1030,1186l-610,-518l610,-527C1047,127 1055,109 1055,87C1055,65 1047,45 1031,27C1014,9 994,0 970,0C947,0 927,8 909,23l-536,462l0,-401C373,61 365,41 349,25C332,8 312,0 289,0C266,0 247,8 230,25C213,41 205,61 205,84z"/>
<glyph unicode="L" horiz-adv-x="1237" d="M207,0l0,1245C207,1268 215,1287 232,1304C249,1321 268,1329 291,1329C314,1329 333,1321 350,1304C367,1287 375,1268 375,1245l0,-1077l594,0C992,168 1013,160 1030,144C1047,127 1055,107 1055,84C1055,61 1047,41 1030,25C1013,8 992,0 969,0z"/>
<glyph unicode="M" horiz-adv-x="1237" d="M545,807l0,43l-174,248l0,-1014C371,61 363,41 347,25C330,8 310,0 287,0C264,0 244,8 228,25C211,42 203,61 203,84l0,1245l217,0l207,-301l213,301l213,0l0,-1245C1053,61 1045,41 1028,25C1011,8 990,0 967,0C944,0 925,8 908,25C891,42 883,61 883,84l0,1010l-170,-240l0,-47C713,784 705,765 688,748C671,731 652,723 629,723C606,723 586,731 570,748C553,765 545,784 545,807z"/>
<glyph unicode="N" horiz-adv-x="1237" d="M1053,1243l0,-1243l-226,0l-452,1032l0,-948C375,61 367,41 351,25C334,8 314,0 291,0C268,0 248,8 232,25C215,41 207,61 207,84l0,1245l223,0l453,-1030l0,944C883,1266 892,1287 909,1304C926,1321 946,1329 969,1329C992,1329 1012,1321 1029,1304C1045,1287 1053,1267 1053,1243z"/>
<glyph unicode="O" horiz-adv-x="1237" d="M829,1206l185,-377C1040,778 1053,722 1053,662C1053,603 1040,548 1014,496l-185,-373C790,41 723,0 629,0C584,0 544,12 509,35C473,58 446,88 428,123l-186,373C217,545 205,600 205,662C205,724 217,780 242,829l186,377C470,1288 537,1329 629,1329C722,1329 789,1288 829,1206M573,1122l-174,-354C383,733 375,698 375,664C375,627 383,592 399,559l179,-358C587,179 604,168 629,168C650,168 667,179 678,201l180,358C875,594 883,629 883,664C883,701 875,735 858,768l-176,354C671,1148 653,1161 629,1161C605,1161 586,1148 573,1122z"/>
<glyph unicode="P" horiz-adv-x="1237" d="M207,84l0,1245l596,0C872,1329 931,1304 981,1254C1030,1204 1055,1144 1055,1075l0,-315C1055,691 1030,631 981,582C932,533 872,508 803,508l-426,0l0,-424C377,61 369,41 353,25C336,8 316,0 293,0C269,0 249,8 232,25C215,41 207,61 207,84M377,676l426,0C826,676 845,684 862,701C879,717 887,737 887,760l0,315C887,1098 879,1118 862,1135C845,1151 826,1159 803,1159l-426,0z"/>
<glyph unicode="Q" horiz-adv-x="1237" d="M340,961l358,309C746,1309 795,1329 846,1329C902,1329 951,1309 992,1268C1033,1227 1053,1184 1053,1137l0,-514C1053,526 1011,442 928,371l-113,-97l43,-106l113,0C994,168 1014,160 1031,144C1047,127 1055,107 1055,84C1055,61 1047,41 1031,25C1014,8 994,0 971,0l-230,0l-61,158l-115,-95C514,21 463,0 412,0C353,0 304,20 265,61C225,101 205,150 205,207l0,469C205,735 214,785 232,828C250,870 286,914 340,961M809,1147l-358,-309C420,811 399,785 389,760C378,735 373,700 373,655l0,-438C373,182 386,165 413,165C424,165 434,169 444,178l170,146l-55,147C551,490 547,507 547,521C547,542 555,560 572,577C589,593 608,601 631,601C670,601 696,585 709,553l43,-113C801,478 835,510 854,535C873,560 883,589 883,623l0,495C883,1146 870,1160 845,1160C831,1160 819,1156 809,1147z"/>
<glyph unicode="R" horiz-adv-x="1237" d="M209,84l0,1245l594,0C872,1329 931,1304 981,1254C1030,1204 1055,1144 1055,1075l0,-96C1055,909 1030,849 981,800C932,750 872,725 803,725l-107,0l344,-590C1051,118 1056,100 1056,83C1056,60 1047,41 1030,25C1013,8 993,0 971,0C938,0 912,15 895,45l-395,680l-121,0l0,-641C379,61 371,41 354,25C337,8 316,0 293,0C270,0 250,8 234,25C217,41 209,61 209,84M377,893l426,0C826,893 846,901 863,918C879,934 887,954 887,977l0,98C887,1098 879,1118 863,1135C846,1151 826,1159 803,1159l-426,0z"/>
<glyph unicode="S" horiz-adv-x="1237" d="M397,1329l437,0C887,1329 938,1307 986,1262C1033,1217 1057,1162 1057,1098C1057,1074 1049,1054 1032,1037C1015,1020 996,1012 975,1012C946,1012 927,1019 916,1032C905,1045 895,1069 886,1104C876,1139 854,1157 821,1157l-415,0C386,1157 376,1151 376,1138C376,1130 380,1121 389,1110l623,-797C1042,274 1057,233 1057,189C1057,139 1039,95 1003,57C966,19 926,0 881,0l-453,0C368,0 316,23 272,69C227,114 205,164 205,219C205,282 234,313 293,313C316,313 335,305 351,289C367,272 375,253 375,231C375,213 381,198 394,186C406,174 421,168 440,168l418,0C876,168 885,175 885,189C885,196 881,204 872,215l-622,797C221,1050 206,1091 206,1136C206,1188 225,1233 262,1272C299,1310 344,1329 397,1329z"/>
<glyph unicode="T" horiz-adv-x="1237" d="M205,1100l0,227l848,0l0,-229C1053,1075 1045,1055 1028,1039C1011,1022 992,1014 969,1014C946,1014 926,1022 909,1039C892,1056 883,1075 883,1098l0,61l-170,0l0,-1075C713,61 705,41 688,25C671,8 652,0 629,0C605,0 585,8 568,25C551,41 543,61 543,84l0,1075l-170,0l0,-59C373,1077 365,1057 349,1041C332,1024 312,1016 289,1016C266,1016 246,1024 230,1041C213,1057 205,1077 205,1100z"/>
<glyph unicode="U" horiz-adv-x="1237" d="M205,252l0,991C205,1266 213,1287 230,1304C247,1321 266,1329 289,1329C312,1329 331,1321 348,1304C365,1287 373,1268 373,1245l0,-993C373,230 381,211 398,195C415,178 434,170 457,170l344,0C824,170 844,178 861,194C877,210 885,229 885,252l0,991C885,1267 893,1287 910,1304C926,1321 946,1329 969,1329C992,1329 1012,1321 1029,1304C1045,1287 1053,1267 1053,1243l0,-989C1053,185 1028,125 979,75C929,25 870,0 801,0l-344,0C388,0 328,25 279,74C230,123 205,183 205,252z"/>
<glyph unicode="V" horiz-adv-x="1237" d="M1057,1243l0,-309l-342,-871C698,21 670,0 633,0C594,0 566,21 549,63l-340,871l0,309C209,1267 217,1287 234,1304C250,1321 270,1329 293,1329C316,1329 336,1321 353,1304C369,1287 377,1267 377,1243l0,-274l256,-652l256,650l0,276C889,1267 897,1287 914,1304C930,1321 950,1329 973,1329C996,1329 1016,1321 1033,1304C1049,1287 1057,1267 1057,1243z"/>
<glyph unicode="W" horiz-adv-x="1237" d="M715,809l0,-559l49,-82l70,0l51,84l0,991C885,1266 894,1287 911,1304C928,1321 948,1329 971,1329C994,1329 1013,1321 1030,1304C1047,1287 1055,1268 1055,1245l0,-1020C1055,212 1048,195 1034,172l-78,-129C940,14 916,0 883,0l-158,0C675,0 643,23 629,68C614,23 583,0 537,0l-148,0C346,0 316,16 297,47l-72,121C212,190 205,209 205,225l0,1018C205,1266 214,1287 231,1304C248,1321 268,1329 291,1329C313,1329 332,1321 349,1304C365,1287 373,1266 373,1243l0,-995l49,-80l72,0l53,84l0,557C547,832 555,852 572,869C588,885 608,893 631,893C654,893 674,885 691,869C707,852 715,832 715,809z"/>
<glyph unicode="X" horiz-adv-x="1237" d="M644,498l-267,-457C362,14 338,1 306,1C282,1 262,10 245,27C228,44 219,63 219,84C219,100 224,116 234,133l313,531l-307,528C228,1213 222,1232 222,1249C222,1270 230,1289 247,1306C264,1322 283,1330 305,1330C338,1330 362,1317 377,1290l271,-456l266,454C931,1315 954,1329 985,1329C1008,1329 1029,1321 1046,1305C1063,1289 1072,1270 1072,1247C1072,1232 1068,1217 1059,1202l-315,-536l313,-539C1065,114 1069,99 1069,84C1069,60 1061,40 1045,24C1028,8 1008,0 985,0C952,0 928,14 912,41z"/>
<glyph unicode="Y" horiz-adv-x="1237" d="M717,637l0,-553C717,61 709,41 692,25C675,8 656,0 633,0C609,0 589,8 572,25C555,41 547,61 547,84l0,553l-338,428l0,178C209,1267 217,1287 234,1304C250,1321 270,1329 293,1329C316,1329 337,1321 354,1304C371,1287 379,1266 379,1243l0,-115l252,-325l256,323l0,117C887,1266 895,1287 912,1304C929,1321 948,1329 971,1329C993,1329 1013,1321 1030,1306C1047,1290 1055,1269 1055,1243l0,-176z"/>
<glyph unicode="Z" horiz-adv-x="1237" d="M287,1329l766,0l0,-108l-617,-1053l533,0C992,168 1012,160 1029,144C1045,127 1053,107 1053,84C1053,61 1045,42 1028,25C1011,8 992,0 969,0l-764,0l0,111l616,1048l-534,0C264,1159 245,1168 229,1185C213,1202 205,1222 205,1245C205,1268 213,1287 229,1304C245,1321 264,1329 287,1329z"/>
<glyph unicode="[" horiz-adv-x="1237" d="M631,170l338,0C992,170 1012,162 1029,146C1045,129 1053,109 1053,86C1053,63 1045,43 1029,27C1012,10 992,2 969,2l-678,0C268,2 249,10 232,27C215,44 207,63 207,86l0,1159C207,1269 215,1289 232,1306C248,1323 268,1331 291,1331l678,0C992,1331 1011,1323 1028,1306C1045,1289 1053,1270 1053,1247C1053,1224 1045,1204 1029,1187C1012,1170 992,1161 969,1161l-338,0M463,170l0,991l-88,0l0,-991z"/>
<glyph unicode="\" horiz-adv-x="1237" d="M932,25l-682,1159C236,1209 229,1232 229,1252C229,1275 238,1294 257,1309C276,1323 296,1330 318,1330C343,1330 360,1321 371,1303l680,-1158C1066,121 1073,99 1073,79C1073,56 1064,37 1045,22C1026,7 1006,-1 984,-1C960,-1 943,8 932,25z"/>
<glyph unicode="]" horiz-adv-x="1237" d="M627,1161l-336,0C267,1161 247,1169 230,1186C213,1202 205,1222 205,1245C205,1268 214,1287 231,1304C248,1321 268,1329 291,1329l676,0C990,1329 1011,1321 1028,1305C1045,1288 1053,1268 1053,1245l0,-1159C1053,63 1045,43 1028,27C1011,10 992,2 969,2l-678,0C268,2 248,11 232,28C215,45 207,65 207,88C207,111 215,130 232,146C248,162 268,170 291,170l336,0M797,1161l0,-991l88,0l0,991z"/>
<glyph unicode="^" horiz-adv-x="1237" d="M239,356l332,635C588,1024 614,1040 647,1040C680,1040 706,1024 723,991l331,-635C1065,336 1071,317 1071,300C1071,279 1063,261 1047,245C1030,228 1011,220 988,220C957,220 934,232 917,256l-270,403l-269,-403C361,232 337,220 306,220C283,220 264,228 248,244C231,260 223,278 223,299C223,317 228,336 239,356z"/>
<glyph unicode="_" horiz-adv-x="1237" d="M1247,-256l-1257,0l0,170l1257,0z"/>
<glyph unicode="`" horiz-adv-x="1237" d="M815,1180C846,1164 862,1139 862,1104C862,1082 854,1062 839,1045C824,1027 804,1018 780,1018C767,1018 755,1021 743,1026l-305,141C407,1183 391,1208 391,1243C391,1265 399,1285 414,1303C429,1320 449,1329 473,1329C486,1329 498,1326 510,1321z"/>
<glyph unicode="a" horiz-adv-x="1237" d="M457,606l329,0C804,606 830,602 864,594l-2,119C862,736 854,756 838,773C821,789 801,797 778,797l-319,0C436,797 417,805 400,822C383,839 375,858 375,881C375,904 383,924 400,941C416,957 436,965 459,965l319,0C847,965 907,941 956,892C1005,843 1030,784 1032,713l21,-629C1053,61 1045,41 1028,25C1011,8 992,0 969,0C945,0 925,8 908,25C891,41 883,61 883,84l-142,-84l-284,0C386,0 326,25 277,74C228,123 203,183 203,254l0,98C203,422 228,482 278,532C327,581 387,606 457,606M877,279l-5,71C871,374 863,394 847,410C831,426 811,434 788,434l-331,0C434,434 414,426 398,410C381,393 373,373 373,350l0,-94C373,233 381,214 398,197C415,180 434,172 457,172l237,0z"/>
<glyph unicode="b" horiz-adv-x="1237" d="M379,1245l0,-395l74,59C500,948 548,967 598,967l154,0C809,967 859,948 903,909l80,-69C1005,821 1023,793 1038,757C1052,721 1059,686 1059,651l0,-340C1059,280 1052,248 1039,214C1026,180 1010,155 993,139l-73,-69C901,52 875,36 840,22C805,7 776,0 752,0l-144,0C538,0 462,39 379,117l0,-33C379,61 371,41 355,25C338,8 318,0 295,0C272,0 252,8 236,25C219,41 211,61 211,84l0,1161C211,1268 219,1288 236,1305C253,1321 272,1329 295,1329C318,1329 338,1321 355,1305C371,1288 379,1268 379,1245M739,797l-116,0C595,797 574,791 559,778l-151,-129C389,632 379,606 379,571l0,-190C379,353 390,330 412,311l135,-114C566,179 587,170 608,170l137,0C764,170 781,176 795,188l67,60C880,261 889,280 889,305l0,354C889,687 880,708 862,723l-61,51C782,789 762,797 739,797z"/>
<glyph unicode="c" horiz-adv-x="1237" d="M971,0l-359,0C549,0 495,19 450,57l-163,142C235,242 209,301 209,375l0,219C206,665 236,727 297,780l147,127C491,946 542,965 596,965l377,0C996,965 1016,957 1033,941C1049,924 1057,904 1057,881C1057,857 1049,837 1033,821C1016,805 996,797 973,797l-361,0C589,797 568,788 547,770l-135,-115C390,636 379,611 379,580l0,-205C379,353 388,334 405,319l148,-126C572,176 596,168 627,168l344,0C994,168 1013,160 1030,144C1047,127 1055,107 1055,84C1055,61 1047,41 1031,25C1014,8 994,0 971,0z"/>
<glyph unicode="d" horiz-adv-x="1237" d="M883,848l0,397C883,1268 891,1288 907,1305C923,1321 942,1329 965,1329C988,1329 1009,1321 1026,1305C1043,1288 1051,1268 1051,1245l0,-1161C1051,61 1043,41 1026,25C1009,8 990,0 967,0C943,0 923,8 907,25C891,41 883,61 883,84l0,37C801,40 724,0 653,0l-143,0C453,0 395,25 338,74l-70,59C252,148 237,174 223,210C208,246 201,280 201,311l0,342C201,691 209,728 225,764C241,799 260,826 281,844l69,59C399,946 457,967 524,967l121,0C711,967 771,944 825,897M639,797l-117,0C497,797 475,788 455,770l-54,-47C382,706 373,685 373,659l0,-356C373,280 384,259 406,240l55,-47C478,178 497,170 516,170l137,0C671,170 692,180 717,201l133,110C872,330 883,354 883,383l0,182C883,606 871,636 848,655l-137,117C693,789 669,797 639,797z"/>
<glyph unicode="e" horiz-adv-x="1237" d="M1053,649l0,-203C1053,423 1045,404 1028,387C1011,370 992,362 969,362l-594,0l0,-49C375,284 387,260 412,240l49,-41C488,178 513,168 537,168l432,0C992,168 1011,160 1028,144C1045,127 1053,107 1053,84C1053,61 1045,42 1028,25C1011,8 991,0 969,0l-443,0C497,0 466,6 434,19C401,31 377,44 362,57l-75,66C264,142 244,168 229,201C213,234 205,265 205,293l0,385C205,700 214,730 231,767C248,804 269,833 295,854l70,55C411,946 462,965 518,965l236,0C813,965 869,940 922,891l63,-60C1030,790 1053,730 1053,649M377,662l0,-130l510,0l0,117C887,680 877,704 858,721l-49,43C784,785 761,795 741,795l-211,0C504,795 480,786 459,768l-49,-41C388,710 377,689 377,662z"/>
<glyph unicode="f" horiz-adv-x="1237" d="M590,797l0,-713C590,61 582,41 565,25C548,8 529,0 506,0C482,0 462,8 445,25C428,41 420,61 420,84l0,713l-86,0C311,797 291,805 275,822C258,839 250,858 250,881C250,903 258,923 273,940C288,957 308,965 334,965l88,0l0,65C422,1116 452,1187 511,1244C570,1301 643,1329 731,1329l197,0C951,1329 971,1321 988,1304C1004,1287 1012,1267 1012,1243C1012,1220 1004,1201 987,1184C970,1167 951,1159 928,1159l-197,0C691,1159 658,1147 632,1123C605,1099 592,1068 592,1030l0,-65l168,0C783,966 802,958 819,941C836,924 844,904 844,881C844,858 836,839 819,822C802,805 783,797 760,797z"/>
<glyph unicode="g" horiz-adv-x="1237" d="M735,-360l-364,0C348,-360 328,-352 312,-336C295,-320 287,-300 287,-276C287,-253 295,-233 312,-217C328,-201 348,-193 371,-193l364,0C757,-193 778,-185 797,-168l57,49C873,-104 883,-85 883,-61l0,256C804,116 728,76 653,76l-129,0C457,76 397,99 344,145l-63,56C260,218 243,244 228,277C213,310 205,343 205,375l0,278C205,692 213,730 228,765C243,800 260,827 281,844l69,59C399,946 457,967 524,967l121,0C711,967 771,944 825,897l58,-49l-2,33C881,904 889,923 906,940C923,957 942,965 965,965C988,965 1009,957 1026,941C1043,924 1051,904 1051,881l0,-942C1051,-132 1022,-193 965,-244l-68,-59C880,-318 855,-332 824,-343C792,-354 762,-360 735,-360M639,799l-113,0C501,799 478,789 455,770l-52,-43C383,710 373,688 373,659l0,-280C373,356 384,335 406,315l55,-49C478,251 497,244 516,244l137,0C673,244 695,254 719,274l133,113C873,405 883,427 883,453l0,127C883,611 871,636 848,655l-137,117C692,790 668,799 639,799z"/>
<glyph unicode="h" horiz-adv-x="1237" d="M205,84l0,1161C205,1268 213,1287 230,1303C246,1319 266,1327 289,1327C312,1327 332,1319 349,1303C365,1286 373,1266 373,1243l0,-424l135,88C569,946 624,965 672,965l104,0C845,965 904,941 953,892C1002,843 1028,783 1030,713l21,-629C1052,61 1044,41 1027,25C1010,8 990,0 967,0C944,0 924,9 908,26C892,43 884,62 883,84l-21,631C861,738 853,757 836,774C819,791 799,799 776,799l-94,0C661,799 637,791 612,774l-239,-156l0,-534C373,61 365,41 349,25C332,8 312,0 289,0C266,0 246,8 230,25C213,41 205,61 205,84z"/>
<glyph unicode="i" horiz-adv-x="1237" d="M543,1403l88,0C654,1403 674,1395 691,1379C707,1362 715,1342 715,1319l0,-72C715,1224 707,1204 691,1187C674,1170 654,1161 631,1161l-90,0C517,1161 497,1170 481,1187C464,1204 456,1224 457,1245l2,74C459,1342 467,1362 484,1379C500,1395 520,1403 543,1403M885,2l-512,0C350,2 330,10 314,27C297,43 289,63 289,86C289,109 297,128 314,145C330,162 350,170 373,170l172,0l0,627l-170,0C352,797 332,805 316,822C299,839 291,858 291,881C291,904 299,925 316,942C332,959 352,967 375,967l256,0C654,967 674,959 691,942C707,925 715,904 715,881l0,-711l168,0C906,170 927,162 944,146C961,129 969,109 969,86C969,63 961,43 944,27C927,10 908,2 885,2z"/>
<glyph unicode="j" horiz-adv-x="1237" d="M799,1399l90,0C911,1399 931,1391 948,1374C965,1357 973,1337 973,1315l0,-74C973,1218 965,1199 949,1182C932,1165 912,1157 889,1157l-90,0C776,1157 756,1165 740,1182C723,1198 715,1218 715,1241l0,74C716,1338 724,1357 741,1374C758,1391 777,1399 799,1399M719,-360l-178,0C473,-360 414,-335 363,-286C312,-237 287,-185 287,-129C287,-109 295,-91 312,-74C329,-57 349,-49 373,-49C398,-49 416,-55 427,-66C437,-77 447,-95 456,-119C465,-143 475,-161 487,-174C499,-187 520,-193 549,-193l168,0C740,-193 760,-185 777,-168C793,-152 801,-132 801,-109l0,906l-256,0C522,797 502,805 486,821C469,837 461,857 461,881C461,904 469,923 486,940C502,957 522,965 545,965l342,0C910,965 930,957 947,940C963,923 971,902 971,879l0,-988C971,-178 946,-237 897,-286C848,-335 788,-360 719,-360z"/>
<glyph unicode="k" horiz-adv-x="1237" d="M207,84l0,1159C207,1267 215,1287 232,1304C248,1321 268,1329 291,1329C314,1329 334,1321 351,1304C367,1287 375,1267 375,1243l0,-686l452,385C846,958 867,966 890,966C914,966 934,958 950,941C966,924 974,903 974,880C974,855 965,836 948,821l-352,-299l434,-381C1047,127 1056,109 1056,86C1056,64 1048,44 1032,27C1016,9 996,0 973,0C950,0 929,8 911,23l-448,389l-88,-74l0,-254C375,61 367,41 351,25C334,8 314,0 291,0C268,0 248,8 232,25C215,41 207,61 207,84z"/>
<glyph unicode="l" horiz-adv-x="1237" d="M885,0l-508,0C354,0 334,9 318,26C301,43 293,63 293,86C293,109 301,128 318,145C334,162 354,170 377,170l168,0l0,991l-170,0C352,1161 332,1169 316,1186C299,1202 291,1222 291,1245C291,1268 299,1288 316,1305C332,1321 352,1329 375,1329l256,0C654,1329 673,1321 690,1304C707,1287 715,1268 715,1245l0,-1075l170,0C908,170 927,162 944,145C961,128 969,109 969,86C969,63 961,43 945,26C928,9 908,0 885,0z"/>
<glyph unicode="m" horiz-adv-x="1237" d="M186,84l0,797C186,904 194,924 211,941C227,957 247,965 270,965C313,965 341,944 352,901C399,945 451,967 508,967C575,967 631,938 674,881C727,938 786,967 850,967C902,967 947,949 986,912C1024,875 1044,827 1047,770l24,-686C1071,61 1063,42 1046,25C1029,8 1010,0 987,0C964,0 944,8 927,25C910,42 902,61 901,84l-20,659C880,779 869,797 848,797C837,797 825,792 813,782l-100,-84l0,-614C713,61 705,42 689,26C672,10 652,2 629,2C606,2 587,10 570,27C553,43 545,63 545,86l0,668C545,783 533,797 508,797C496,797 485,793 475,784l-121,-102l0,-598C354,61 346,42 330,25C314,8 295,0 272,0C249,0 229,8 212,25C195,42 186,61 186,84z"/>
<glyph unicode="n" horiz-adv-x="1237" d="M604,770l-229,-149l0,-537C375,61 367,42 350,25C333,8 314,0 291,0C268,0 249,8 232,25C215,42 207,61 207,84l0,797C207,904 215,925 232,942C248,959 268,967 291,967C314,967 333,959 350,942C367,925 375,904 375,881l0,-56l153,93C579,951 637,967 702,967l78,0C847,967 904,943 953,896C1002,849 1027,790 1030,721l23,-637C1054,61 1046,42 1029,25C1012,8 992,0 969,0C947,0 928,8 911,23C894,38 886,58 885,84l-25,627C858,770 827,799 768,799l-82,0C661,799 633,789 604,770z"/>
<glyph unicode="o" horiz-adv-x="1237" d="M1053,662l0,-355C1053,232 1018,162 947,98C876,34 802,2 727,2l-197,0C453,2 380,35 310,100C240,165 205,234 205,307l0,355C205,735 239,805 308,870C376,935 450,967 530,967l197,0C802,968 876,937 947,873C1018,809 1053,739 1053,662M375,655l0,-340C375,284 386,260 408,242l63,-54C485,176 505,170 530,170l195,0C754,170 780,180 803,201l51,45C875,262 885,284 885,313l0,340C885,686 875,711 854,727l-59,47C775,791 752,799 725,799l-174,0C513,799 484,790 463,772l-57,-49C385,706 375,683 375,655z"/>
<glyph unicode="p" horiz-adv-x="1237" d="M377,96l0,-372C377,-300 369,-320 353,-337C336,-354 316,-362 293,-362C270,-362 250,-354 233,-337C216,-320 207,-300 207,-276l0,1198C207,945 215,964 232,981C249,998 269,1006 293,1006C316,1006 335,998 352,981C369,964 377,945 377,922l0,-54C458,959 539,1004 618,1004l39,0C716,1004 771,982 821,938l140,-121C1022,764 1053,696 1053,614l0,-262C1053,269 1020,200 954,143l-137,-118C772,-16 714,-37 645,-37l-37,0C543,-37 487,-14 442,31M614,133l43,0C678,133 700,143 723,164l131,115C876,296 887,320 887,350l0,271C887,648 875,671 850,692l-141,121C693,827 676,834 657,834l-49,0C589,834 565,819 535,788l-125,-124C388,642 377,617 377,590l0,-215C377,349 389,324 414,299l121,-121C565,148 591,133 614,133z"/>
<glyph unicode="q" horiz-adv-x="1237" d="M885,-274l0,395l-64,-53C766,23 707,0 645,0l-113,0C466,0 410,19 365,57l-78,66C264,142 245,169 230,204C215,238 207,271 207,303l0,350C207,734 232,795 281,838l61,53C397,942 460,967 530,967l123,0C724,967 801,927 885,848l0,35C885,906 893,926 910,943C926,959 946,967 969,967C992,967 1012,959 1029,943C1045,926 1053,906 1053,883l0,-1157C1053,-298 1045,-318 1029,-335C1012,-352 992,-360 969,-360C946,-360 926,-352 910,-335C893,-318 885,-298 885,-274M524,170l117,0C670,170 692,176 707,188l151,129C876,333 885,359 885,395l0,193C885,611 873,632 850,653l-127,113C702,787 680,797 655,797l-137,0C499,797 483,791 469,778l-63,-55C385,705 375,685 375,662l0,-355C375,284 387,263 410,242l55,-49C484,178 503,170 524,170z"/>
<glyph unicode="r" horiz-adv-x="1237" d="M207,84l0,797C207,904 215,925 232,942C248,959 268,967 291,967C314,967 334,959 351,942C367,925 375,905 375,881l0,-105l137,117C569,941 624,965 678,965l123,0C870,965 930,940 979,891C1028,842 1053,782 1053,713l0,-45C1053,644 1045,624 1029,607C1012,590 992,582 969,582C946,582 926,590 910,607C893,623 885,643 885,666l0,47C885,736 877,756 861,773C844,789 824,797 801,797l-109,0C669,797 643,785 614,760l-239,-207l0,-469C375,61 367,41 350,25C333,8 314,0 291,0C268,0 248,8 232,25C215,41 207,61 207,84z"/>
<glyph unicode="s" horiz-adv-x="1237" d="M442,965l385,0C887,965 940,947 986,912C1032,876 1055,841 1055,807C1055,783 1047,763 1030,748C1013,733 994,725 973,725C946,725 922,737 900,761C878,785 855,797 831,797l-380,0C414,797 395,781 395,750C395,728 407,711 432,700l447,-198C924,482 962,450 991,406C1020,361 1034,312 1034,258C1034,186 1009,125 958,75C907,25 849,0 784,0l-340,0C385,0 331,18 281,53C230,88 205,123 205,156C205,178 213,198 230,215C246,232 267,240 293,240C314,240 337,228 362,204C386,180 421,168 467,168l313,0C805,168 825,178 842,197C859,216 867,237 867,262C867,300 848,327 811,344l-451,203C317,566 283,594 260,631C237,668 225,705 225,743C225,803 246,855 288,899C329,943 381,965 442,965z"/>
<glyph unicode="t" horiz-adv-x="1237" d="M797,0l-168,0C560,0 500,25 450,74C400,123 375,183 375,252l0,545l-86,0C266,797 246,805 230,821C213,837 205,857 205,881C205,904 213,924 230,941C246,957 266,965 289,965l88,0l0,206C377,1194 385,1214 402,1231C418,1247 438,1255 461,1255C483,1255 503,1247 520,1230C537,1213 545,1194 545,1171l0,-206l338,0C906,965 925,957 942,940C959,923 967,904 967,881C967,858 959,838 942,822C925,805 906,797 883,797l-340,0l0,-545C543,229 552,210 569,193C586,176 606,168 629,168l164,0C838,168 867,192 882,241C897,289 925,313 967,313C992,313 1012,305 1028,289C1043,272 1051,252 1051,227C1051,176 1027,126 980,76C932,25 871,0 797,0z"/>
<glyph unicode="u" horiz-adv-x="1237" d="M606,170l283,180l0,531C889,904 897,925 914,942C930,959 950,967 973,967C996,967 1016,959 1033,942C1049,925 1057,904 1057,881l0,-797C1057,61 1049,42 1032,25C1015,8 996,0 973,0C950,0 931,8 914,25C897,42 889,61 889,84l0,66l-146,-95C686,18 628,0 569,0l-78,0C422,0 363,24 314,72C265,120 238,179 235,248l-24,633C210,903 218,923 235,940C252,957 272,965 295,965C318,965 337,957 354,940C370,923 378,904 379,881l22,-621C403,200 437,170 504,170z"/>
<glyph unicode="v" horiz-adv-x="1237" d="M1053,881l0,-160l-291,-662C743,20 719,0 688,0l-108,0C541,0 512,20 494,61l-289,658l0,162C205,904 213,924 230,941C246,957 266,965 289,965C312,965 332,957 349,941C365,924 373,904 373,881l0,-129l256,-576l254,578l0,127C883,904 891,924 908,941C925,957 945,965 969,965C992,965 1012,957 1029,941C1045,924 1053,904 1053,881z"/>
<glyph unicode="w" horiz-adv-x="1237" d="M714,592l0,-201l112,-192l58,192l18,490C903,904 912,923 929,940C945,957 964,965 986,965C1009,965 1029,957 1046,941C1063,924 1071,904 1070,881l-18,-523l-90,-297C949,20 923,0 884,0l-90,0C763,0 738,16 720,47l-92,158l-92,-156C515,16 491,0 462,0l-88,0C355,0 337,6 322,17C306,28 296,42 292,57l-88,308l-19,516C184,903 193,923 210,940C227,957 248,965 271,965C292,965 311,957 328,942C344,926 352,906 353,881l19,-492l55,-188l117,196l0,195C544,615 552,635 569,652C586,668 606,676 630,676C653,676 672,668 689,652C706,635 714,615 714,592z"/>
<glyph unicode="x" horiz-adv-x="1237" d="M645,362l-275,-327C352,12 330,0 303,0C279,0 259,8 243,25C227,42 219,62 219,86C219,107 224,124 235,137l301,361l-278,331C245,844 239,860 239,879C239,901 247,921 263,939C278,956 298,965 323,965C351,965 374,955 391,934l254,-305l260,307C921,955 941,965 965,965C986,965 1006,958 1023,943C1040,928 1049,908 1049,885C1049,862 1045,847 1038,838l-283,-342l297,-359C1063,124 1069,109 1069,90C1069,65 1061,44 1044,27C1027,10 1007,1 985,1C959,1 936,12 917,35z"/>
<glyph unicode="y" horiz-adv-x="1237" d="M1055,719l-453,-1024C587,-342 560,-360 522,-360l-233,0C266,-360 246,-352 230,-336C213,-320 205,-300 205,-276C205,-253 213,-233 230,-217C246,-201 266,-193 289,-193l180,0l115,267l-41,0C505,74 478,94 461,133l-252,586l0,162C209,904 217,924 233,941C249,957 268,965 291,965C314,965 335,957 352,941C369,924 377,904 377,881l0,-125l221,-512l59,0l228,510l0,129C885,905 894,925 911,942C928,959 948,967 971,967C994,967 1013,959 1030,942C1047,925 1055,906 1055,883z"/>
<glyph unicode="z" horiz-adv-x="1237" d="M1055,881l0,-68C1055,786 1045,764 1026,745l-596,-577l539,0C992,168 1012,160 1029,144C1045,127 1053,107 1053,84C1053,61 1045,41 1029,25C1012,8 992,0 969,0l-676,0C269,0 249,8 232,25C215,41 207,61 207,84l0,72C207,180 222,207 252,236l584,561l-504,0C309,797 289,805 273,822C256,839 248,859 248,883C248,905 256,925 273,942C290,959 309,967 332,967l639,0C994,967 1014,959 1031,942C1047,925 1055,904 1055,881z"/>
<glyph unicode="{" horiz-adv-x="1237" d="M715,1161l0,-327C715,765 692,709 647,666C692,625 715,569 715,498l0,-328l256,0C994,170 1014,162 1031,146C1047,129 1055,109 1055,86C1055,63 1047,44 1030,27C1013,10 994,2 971,2l-256,0C669,2 630,19 597,53C564,87 547,126 547,170l0,322C547,515 538,536 521,555C504,573 484,582 461,582l-168,0C270,582 250,590 234,606C217,622 209,642 209,666C209,689 217,709 234,726C250,742 270,750 293,750l168,0C484,750 504,759 521,777C538,795 547,816 547,840l0,323C547,1206 564,1245 597,1279C630,1312 670,1329 715,1329l256,0C994,1329 1014,1321 1031,1305C1047,1288 1055,1268 1055,1245C1055,1222 1047,1202 1031,1186C1014,1169 994,1161 971,1161z"/>
<glyph unicode="|" horiz-adv-x="1237" d="M705,86C705,63 697,43 680,26C663,9 642,0 618,0C595,0 576,9 560,26C543,43 535,63 535,86l0,1161C535,1270 543,1290 560,1306C577,1321 597,1329 621,1329C644,1329 663,1321 680,1306C697,1290 705,1270 705,1247z"/>
<glyph unicode="}" horiz-adv-x="1237" d="M549,170l0,328C549,567 571,623 616,666C571,707 549,762 549,831l0,330l-256,0C270,1161 250,1169 234,1186C217,1202 209,1222 209,1245C209,1268 217,1287 234,1304C250,1321 270,1329 293,1329l256,0C594,1329 634,1312 667,1278C700,1244 717,1205 717,1161l0,-323C717,815 726,794 743,777C760,759 780,750 803,750l168,0C994,750 1014,742 1031,726C1047,709 1055,689 1055,666C1055,642 1047,622 1031,605C1014,588 994,580 971,580l-168,0C779,580 759,571 742,554C725,536 717,515 717,492l0,-324C717,125 700,87 667,53C633,19 594,2 549,2l-256,0C270,2 250,10 234,27C217,43 209,63 209,86C209,109 217,129 234,146C250,162 270,170 293,170z"/>
<glyph unicode="~" horiz-adv-x="1237" d="M1061,608l-152,-92C890,507 875,502 864,502l-53,0C806,502 797,504 784,508l-256,86l-24,0l-127,-78C362,507 346,502 330,502C307,502 288,511 271,529C254,547 246,567 246,590C246,619 260,642 287,659l151,93C451,760 466,764 483,764l54,0C546,764 555,763 563,760l262,-88l15,0l131,80C986,761 1002,766 1017,766C1040,766 1060,757 1077,739C1094,721 1102,700 1102,677C1102,648 1088,625 1061,608z"/>
<glyph unicode="&#xC4;" horiz-adv-x="1237" d="M208,117l340,1149C561,1308 589,1329 632,1329C673,1329 699,1311 710,1276l335,-1167C1048,100 1049,92 1049,84C1049,61 1041,41 1025,25C1009,8 991,0 970,0C926,0 898,20 886,61l-68,228l-383,0l-74,-244C359,34 351,24 336,15C321,5 305,0 288,0C263,0 243,8 227,25C211,42 203,62 203,86C203,96 205,106 208,117M630,940l-144,-481l283,0M1050,1466C1050,1443 1042,1423 1026,1407C1009,1390 989,1382 966,1382C942,1382 922,1390 906,1407C890,1423 882,1443 882,1466l0,143C882,1633 890,1653 907,1670C923,1687 943,1695 966,1695C989,1695 1008,1687 1025,1670C1042,1653 1050,1633 1050,1609M372,1466C372,1443 364,1423 348,1407C331,1390 311,1382 288,1382C265,1382 245,1390 229,1407C212,1423 204,1443 204,1466l0,143C204,1632 212,1652 229,1669C245,1685 265,1693 288,1693C311,1693 331,1685 348,1669C364,1652 372,1632 372,1609z"/>
<glyph unicode="&#xC5;" horiz-adv-x="1237" d="M212,117l340,1149C565,1308 593,1329 636,1329C677,1329 703,1311 714,1276l335,-1167C1052,100 1053,92 1053,84C1053,61 1045,41 1029,25C1013,8 995,0 974,0C930,0 902,20 890,61l-68,228l-383,0l-74,-244C363,34 355,24 340,15C325,5 309,0 292,0C267,0 247,8 231,25C215,42 207,62 207,86C207,96 209,106 212,117M634,940l-144,-481l283,0M816,1529C816,1492 798,1457 763,1425C727,1392 690,1376 652,1376l-57,0C557,1376 521,1392 486,1424C451,1456 433,1491 433,1529l0,74C433,1641 450,1676 485,1709C519,1741 556,1757 595,1757l57,0C691,1757 728,1741 763,1708C798,1675 816,1640 816,1603M705,1542l0,49C705,1604 697,1616 681,1628C664,1640 653,1646 646,1646l-37,0C596,1646 582,1640 567,1627C552,1614 544,1602 544,1593l0,-51C544,1529 548,1519 556,1513l24,-19C586,1489 594,1486 603,1486l43,0C658,1486 674,1496 693,1517C701,1520 705,1528 705,1542z"/>
<glyph unicode="&#xC7;" horiz-adv-x="1237" d="M715,0l-58,0C617,0 576,13 533,38C490,63 461,92 444,123l-194,375C224,552 211,607 211,664C211,727 223,781 248,827l196,371C463,1233 492,1263 531,1290C570,1316 608,1329 645,1329l332,0C1000,1329 1020,1321 1037,1304C1053,1287 1061,1268 1061,1245C1061,1222 1053,1202 1037,1185C1020,1168 1000,1159 977,1159l-320,0C630,1159 609,1143 592,1112l-186,-348C391,737 384,704 384,667C384,628 392,593 408,563l178,-342C603,186 630,168 668,168l303,0C994,168 1015,160 1032,144C1049,127 1057,107 1057,84C1057,61 1049,41 1032,25C1015,8 994,0 971,0l-88,0l0,-274C883,-298 875,-318 859,-335C842,-352 822,-360 799,-360l-340,0C436,-360 417,-352 400,-335C383,-318 375,-299 375,-276C375,-253 383,-232 400,-215C416,-198 436,-190 459,-190l256,0z"/>
<glyph unicode="&#xC9;" horiz-adv-x="1237" d="M969,1159l-594,0l0,-409l256,0C654,750 673,742 690,725C707,708 715,689 715,666C715,642 707,622 691,605C674,588 654,580 631,580l-256,0l0,-412l596,0C994,168 1013,160 1030,144C1047,127 1055,107 1055,84C1055,61 1047,41 1030,25C1013,8 992,0 969,0l-762,0l0,1329l762,0C992,1329 1013,1321 1030,1304C1047,1287 1055,1266 1055,1243C1055,1220 1047,1201 1030,1184C1013,1167 992,1159 969,1159M735,1685C747,1690 759,1693 772,1693C796,1693 816,1684 831,1667C846,1649 854,1629 854,1607C854,1571 838,1546 807,1531l-305,-141C490,1385 478,1382 465,1382C441,1382 421,1391 406,1409C391,1426 383,1446 383,1468C383,1504 399,1529 430,1544z"/>
<glyph unicode="&#xD1;" horiz-adv-x="1237" d="M1055,1243l0,-1243l-226,0l-452,1032l0,-948C377,61 369,41 353,25C336,8 316,0 293,0C270,0 250,8 234,25C217,41 209,61 209,84l0,1245l223,0l453,-1030l0,944C885,1266 894,1287 911,1304C928,1321 948,1329 971,1329C994,1329 1014,1321 1031,1304C1047,1287 1055,1267 1055,1243M1022,1536l-152,-92C851,1435 836,1430 825,1430l-53,0C767,1430 758,1432 745,1436l-256,86l-24,0l-127,-78C323,1435 307,1430 291,1430C268,1430 249,1439 232,1457C215,1475 207,1496 207,1519C207,1548 221,1571 248,1588l151,92C412,1688 427,1692 444,1692l54,0C507,1692 516,1691 524,1688l262,-88l15,0l131,80C947,1689 963,1694 978,1694C1001,1694 1021,1685 1038,1667C1055,1649 1063,1628 1063,1605C1063,1576 1049,1553 1022,1536z"/>
<glyph unicode="&#xD6;" horiz-adv-x="1237" d="M829,1206l185,-377C1040,778 1053,722 1053,662C1053,603 1040,548 1014,496l-185,-373C790,41 723,0 629,0C584,0 544,12 509,35C473,58 446,88 428,123l-186,373C217,545 205,600 205,662C205,724 217,780 242,829l186,377C470,1288 537,1329 629,1329C722,1329 789,1288 829,1206M573,1122l-174,-354C383,733 375,698 375,664C375,627 383,592 399,559l179,-358C587,179 604,168 629,168C650,168 667,179 678,201l180,358C875,594 883,629 883,664C883,701 875,735 858,768l-176,354C671,1148 653,1161 629,1161C605,1161 586,1148 573,1122M1049,1466C1049,1443 1041,1423 1025,1407C1008,1390 988,1382 965,1382C941,1382 921,1390 905,1407C889,1423 881,1443 881,1466l0,143C881,1633 889,1653 906,1670C922,1687 942,1695 965,1695C988,1695 1007,1687 1024,1670C1041,1653 1049,1633 1049,1609M371,1466C371,1443 363,1423 347,1407C330,1390 310,1382 287,1382C264,1382 244,1390 228,1407C211,1423 203,1443 203,1466l0,143C203,1632 211,1652 228,1669C244,1685 264,1693 287,1693C310,1693 330,1685 347,1669C363,1652 371,1632 371,1609z"/>
<glyph unicode="&#xDC;" horiz-adv-x="1237" d="M205,252l0,991C205,1266 213,1287 230,1304C247,1321 266,1329 289,1329C312,1329 331,1321 348,1304C365,1287 373,1268 373,1245l0,-993C373,230 381,211 398,195C415,178 434,170 457,170l344,0C824,170 844,178 861,194C877,210 885,229 885,252l0,991C885,1267 893,1287 910,1304C926,1321 946,1329 969,1329C992,1329 1012,1321 1029,1304C1045,1287 1053,1267 1053,1243l0,-989C1053,185 1028,125 979,75C929,25 870,0 801,0l-344,0C388,0 328,25 279,74C230,123 205,183 205,252M1049,1466C1049,1443 1041,1423 1025,1407C1008,1390 988,1382 965,1382C941,1382 921,1390 905,1407C889,1423 881,1443 881,1466l0,143C881,1633 889,1653 906,1670C922,1687 942,1695 965,1695C988,1695 1007,1687 1024,1670C1041,1653 1049,1633 1049,1609M371,1466C371,1443 363,1423 347,1407C330,1390 310,1382 287,1382C264,1382 244,1390 228,1407C211,1423 203,1443 203,1466l0,143C203,1632 211,1652 228,1669C244,1685 264,1693 287,1693C310,1693 330,1685 347,1669C363,1652 371,1632 371,1609z"/>
<glyph unicode="&#xE1;" horiz-adv-x="1237" d="M457,606l329,0C804,606 830,602 864,594l-2,119C862,736 854,756 838,773C821,789 801,797 778,797l-319,0C436,797 417,805 400,822C383,839 375,858 375,881C375,904 383,924 400,941C416,957 436,965 459,965l319,0C847,965 907,941 956,892C1005,843 1030,784 1032,713l21,-629C1053,61 1045,41 1028,25C1011,8 992,0 969,0C945,0 925,8 908,25C891,41 883,61 883,84l-142,-84l-284,0C386,0 326,25 277,74C228,123 203,183 203,254l0,98C203,422 228,482 278,532C327,581 387,606 457,606M877,279l-5,71C871,374 863,394 847,410C831,426 811,434 788,434l-331,0C434,434 414,426 398,410C381,393 373,373 373,350l0,-94C373,233 381,214 398,197C415,180 434,172 457,172l237,0M735,1321C747,1326 759,1329 772,1329C796,1329 816,1320 831,1303C846,1285 854,1265 854,1243C854,1207 838,1182 807,1167l-305,-141C490,1021 478,1018 465,1018C441,1018 421,1027 406,1045C391,1062 383,1082 383,1104C383,1140 399,1165 430,1180z"/>
<glyph unicode="&#xE0;" horiz-adv-x="1237" d="M457,606l329,0C804,606 830,602 864,594l-2,119C862,736 854,756 838,773C821,789 801,797 778,797l-319,0C436,797 417,805 400,822C383,839 375,858 375,881C375,904 383,924 400,941C416,957 436,965 459,965l319,0C847,965 907,941 956,892C1005,843 1030,784 1032,713l21,-629C1053,61 1045,41 1028,25C1011,8 992,0 969,0C945,0 925,8 908,25C891,41 883,61 883,84l-142,-84l-284,0C386,0 326,25 277,74C228,123 203,183 203,254l0,98C203,422 228,482 278,532C327,581 387,606 457,606M877,279l-5,71C871,374 863,394 847,410C831,426 811,434 788,434l-331,0C434,434 414,426 398,410C381,393 373,373 373,350l0,-94C373,233 381,214 398,197C415,180 434,172 457,172l237,0M807,1180C838,1164 854,1139 854,1104C854,1082 846,1062 831,1045C816,1027 796,1018 772,1018C759,1018 747,1021 735,1026l-305,141C399,1183 383,1208 383,1243C383,1265 391,1285 406,1303C421,1320 441,1329 465,1329C478,1329 490,1326 502,1321z"/>
<glyph unicode="&#xE2;" horiz-adv-x="1237" d="M457,606l329,0C804,606 830,602 864,594l-2,119C862,736 854,756 838,773C821,789 801,797 778,797l-319,0C436,797 417,805 400,822C383,839 375,858 375,881C375,904 383,924 400,941C416,957 436,965 459,965l319,0C847,965 907,941 956,892C1005,843 1030,784 1032,713l21,-629C1053,61 1045,41 1028,25C1011,8 992,0 969,0C945,0 925,8 908,25C891,41 883,61 883,84l-142,-84l-284,0C386,0 326,25 277,74C228,123 203,183 203,254l0,98C203,422 228,482 278,532C327,581 387,606 457,606M877,279l-5,71C871,374 863,394 847,410C831,426 811,434 788,434l-331,0C434,434 414,426 398,410C381,393 373,373 373,350l0,-94C373,233 381,214 398,197C415,180 434,172 457,172l237,0M618,1151l-270,-125C337,1021 325,1018 312,1018C288,1018 268,1027 253,1045C237,1062 229,1082 229,1104C229,1140 245,1165 276,1180l306,141C595,1326 607,1329 618,1329C631,1329 644,1326 655,1321l306,-141C992,1164 1008,1139 1008,1104C1008,1082 1000,1062 985,1045C969,1027 949,1018 925,1018C913,1018 901,1021 889,1026z"/>
<glyph unicode="&#xE4;" horiz-adv-x="1237" d="M457,606l329,0C804,606 830,602 864,594l-2,119C862,736 854,756 838,773C821,789 801,797 778,797l-319,0C436,797 417,805 400,822C383,839 375,858 375,881C375,904 383,924 400,941C416,957 436,965 459,965l319,0C847,965 907,941 956,892C1005,843 1030,784 1032,713l21,-629C1053,61 1045,41 1028,25C1011,8 992,0 969,0C945,0 925,8 908,25C891,41 883,61 883,84l-142,-84l-284,0C386,0 326,25 277,74C228,123 203,183 203,254l0,98C203,422 228,482 278,532C327,581 387,606 457,606M877,279l-5,71C871,374 863,394 847,410C831,426 811,434 788,434l-331,0C434,434 414,426 398,410C381,393 373,373 373,350l0,-94C373,233 381,214 398,197C415,180 434,172 457,172l237,0M1049,1102C1049,1079 1041,1059 1025,1043C1008,1026 988,1018 965,1018C941,1018 921,1026 905,1043C889,1059 881,1079 881,1102l0,143C881,1269 889,1289 906,1306C922,1323 942,1331 965,1331C988,1331 1007,1323 1024,1306C1041,1289 1049,1269 1049,1245M371,1102C371,1079 363,1059 347,1043C330,1026 310,1018 287,1018C264,1018 244,1026 228,1043C211,1059 203,1079 203,1102l0,143C203,1268 211,1288 228,1305C244,1321 264,1329 287,1329C310,1329 330,1321 347,1305C363,1288 371,1268 371,1245z"/>
<glyph unicode="&#xE3;" horiz-adv-x="1237" d="M457,606l329,0C804,606 830,602 864,594l-2,119C862,736 854,756 838,773C821,789 801,797 778,797l-319,0C436,797 417,805 400,822C383,839 375,858 375,881C375,904 383,924 400,941C416,957 436,965 459,965l319,0C847,965 907,941 956,892C1005,843 1030,784 1032,713l21,-629C1053,61 1045,41 1028,25C1011,8 992,0 969,0C945,0 925,8 908,25C891,41 883,61 883,84l-142,-84l-284,0C386,0 326,25 277,74C228,123 203,183 203,254l0,98C203,422 228,482 278,532C327,581 387,606 457,606M877,279l-5,71C871,374 863,394 847,410C831,426 811,434 788,434l-331,0C434,434 414,426 398,410C381,393 373,373 373,350l0,-94C373,233 381,214 398,197C415,180 434,172 457,172l237,0M1020,1171l-152,-92C849,1070 834,1065 823,1065l-53,0C765,1065 756,1067 743,1071l-256,86l-24,0l-127,-78C321,1070 305,1065 289,1065C266,1065 247,1074 230,1092C213,1110 205,1131 205,1154C205,1183 219,1206 246,1223l151,92C410,1323 425,1327 442,1327l54,0C505,1327 514,1326 522,1323l262,-88l15,0l131,80C945,1324 961,1329 976,1329C999,1329 1019,1320 1036,1302C1053,1284 1061,1263 1061,1240C1061,1211 1047,1188 1020,1171z"/>
<glyph unicode="&#xE5;" horiz-adv-x="1237" d="M457,606l329,0C804,606 830,602 864,594l-2,119C862,736 854,756 838,773C821,789 801,797 778,797l-319,0C436,797 417,805 400,822C383,839 375,858 375,881C375,904 383,924 400,941C416,957 436,965 459,965l319,0C847,965 907,941 956,892C1005,843 1030,784 1032,713l21,-629C1053,61 1045,41 1028,25C1011,8 992,0 969,0C945,0 925,8 908,25C891,41 883,61 883,84l-142,-84l-284,0C386,0 326,25 277,74C228,123 203,183 203,254l0,98C203,422 228,482 278,532C327,581 387,606 457,606M877,279l-5,71C871,374 863,394 847,410C831,426 811,434 788,434l-331,0C434,434 414,426 398,410C381,393 373,373 373,350l0,-94C373,233 381,214 398,197C415,180 434,172 457,172l237,0M811,1165C811,1128 793,1093 758,1061C722,1028 685,1012 647,1012l-57,0C552,1012 516,1028 481,1060C446,1092 428,1127 428,1165l0,74C428,1277 445,1312 480,1345C514,1377 551,1393 590,1393l57,0C686,1393 723,1377 758,1344C793,1311 811,1276 811,1239M700,1178l0,49C700,1240 692,1252 676,1264C659,1276 648,1282 641,1282l-37,0C591,1282 577,1276 562,1263C547,1250 539,1238 539,1229l0,-51C539,1165 543,1155 551,1149l24,-19C581,1125 589,1122 598,1122l43,0C653,1122 669,1132 688,1153C696,1156 700,1164 700,1178z"/>
<glyph unicode="&#xE7;" horiz-adv-x="1237" d="M719,0l-107,0C549,0 495,19 450,57l-163,142C235,242 209,301 209,375l0,219C206,665 236,727 297,780l147,127C491,946 542,965 596,965l377,0C996,965 1016,957 1033,941C1049,924 1057,904 1057,881C1057,857 1049,837 1033,821C1016,805 996,797 973,797l-361,0C589,797 568,788 547,770l-135,-115C390,636 379,611 379,580l0,-205C379,353 388,334 405,319l148,-126C572,176 596,168 627,168l344,0C994,168 1013,160 1030,144C1047,127 1055,107 1055,84C1055,61 1047,41 1031,25C1014,8 994,0 971,0l-84,0l0,-274C887,-298 879,-318 863,-335C846,-352 826,-360 803,-360l-340,0C440,-360 421,-352 404,-335C387,-318 379,-299 379,-276C379,-253 387,-232 404,-215C420,-198 440,-190 463,-190l256,0z"/>
<glyph unicode="&#xE9;" horiz-adv-x="1237" d="M1053,649l0,-203C1053,423 1045,404 1028,387C1011,370 992,362 969,362l-594,0l0,-49C375,284 387,260 412,240l49,-41C488,178 513,168 537,168l432,0C992,168 1011,160 1028,144C1045,127 1053,107 1053,84C1053,61 1045,42 1028,25C1011,8 991,0 969,0l-443,0C497,0 466,6 434,19C401,31 377,44 362,57l-75,66C264,142 244,168 229,201C213,234 205,265 205,293l0,385C205,700 214,730 231,767C248,804 269,833 295,854l70,55C411,946 462,965 518,965l236,0C813,965 869,940 922,891l63,-60C1030,790 1053,730 1053,649M377,662l0,-130l510,0l0,117C887,680 877,704 858,721l-49,43C784,785 761,795 741,795l-211,0C504,795 480,786 459,768l-49,-41C388,710 377,689 377,662M858,1321C870,1326 882,1329 895,1329C919,1329 939,1320 954,1303C969,1285 977,1265 977,1243C977,1207 961,1182 930,1167l-305,-141C613,1021 601,1018 588,1018C564,1018 544,1027 529,1045C514,1062 506,1082 506,1104C506,1140 522,1165 553,1180z"/>
<glyph unicode="&#xE8;" horiz-adv-x="1237" d="M1053,649l0,-203C1053,423 1045,404 1028,387C1011,370 992,362 969,362l-594,0l0,-49C375,284 387,260 412,240l49,-41C488,178 513,168 537,168l432,0C992,168 1011,160 1028,144C1045,127 1053,107 1053,84C1053,61 1045,42 1028,25C1011,8 991,0 969,0l-443,0C497,0 466,6 434,19C401,31 377,44 362,57l-75,66C264,142 244,168 229,201C213,234 205,265 205,293l0,385C205,700 214,730 231,767C248,804 269,833 295,854l70,55C411,946 462,965 518,965l236,0C813,965 869,940 922,891l63,-60C1030,790 1053,730 1053,649M377,662l0,-130l510,0l0,117C887,680 877,704 858,721l-49,43C784,785 761,795 741,795l-211,0C504,795 480,786 459,768l-49,-41C388,710 377,689 377,662M807,1180C838,1164 854,1139 854,1104C854,1082 846,1062 831,1045C816,1027 796,1018 772,1018C759,1018 747,1021 735,1026l-305,141C399,1183 383,1208 383,1243C383,1265 391,1285 406,1303C421,1320 441,1329 465,1329C478,1329 490,1326 502,1321z"/>
<glyph unicode="&#xEA;" horiz-adv-x="1237" d="M1053,649l0,-203C1053,423 1045,404 1028,387C1011,370 992,362 969,362l-594,0l0,-49C375,284 387,260 412,240l49,-41C488,178 513,168 537,168l432,0C992,168 1011,160 1028,144C1045,127 1053,107 1053,84C1053,61 1045,42 1028,25C1011,8 991,0 969,0l-443,0C497,0 466,6 434,19C401,31 377,44 362,57l-75,66C264,142 244,168 229,201C213,234 205,265 205,293l0,385C205,700 214,730 231,767C248,804 269,833 295,854l70,55C411,946 462,965 518,965l236,0C813,965 869,940 922,891l63,-60C1030,790 1053,730 1053,649M377,662l0,-130l510,0l0,117C887,680 877,704 858,721l-49,43C784,785 761,795 741,795l-211,0C504,795 480,786 459,768l-49,-41C388,710 377,689 377,662M618,1151l-270,-125C337,1021 325,1018 312,1018C288,1018 268,1027 253,1045C237,1062 229,1082 229,1104C229,1140 245,1165 276,1180l306,141C595,1326 607,1329 618,1329C631,1329 644,1326 655,1321l306,-141C992,1164 1008,1139 1008,1104C1008,1082 1000,1062 985,1045C969,1027 949,1018 925,1018C913,1018 901,1021 889,1026z"/>
<glyph unicode="&#xEB;" horiz-adv-x="1237" d="M1053,649l0,-203C1053,423 1045,404 1028,387C1011,370 992,362 969,362l-594,0l0,-49C375,284 387,260 412,240l49,-41C488,178 513,168 537,168l432,0C992,168 1011,160 1028,144C1045,127 1053,107 1053,84C1053,61 1045,42 1028,25C1011,8 991,0 969,0l-443,0C497,0 466,6 434,19C401,31 377,44 362,57l-75,66C264,142 244,168 229,201C213,234 205,265 205,293l0,385C205,700 214,730 231,767C248,804 269,833 295,854l70,55C411,946 462,965 518,965l236,0C813,965 869,940 922,891l63,-60C1030,790 1053,730 1053,649M377,662l0,-130l510,0l0,117C887,680 877,704 858,721l-49,43C784,785 761,795 741,795l-211,0C504,795 480,786 459,768l-49,-41C388,710 377,689 377,662M1049,1102C1049,1079 1041,1059 1025,1043C1008,1026 988,1018 965,1018C941,1018 921,1026 905,1043C889,1059 881,1079 881,1102l0,143C881,1269 889,1289 906,1306C922,1323 942,1331 965,1331C988,1331 1007,1323 1024,1306C1041,1289 1049,1269 1049,1245M371,1102C371,1079 363,1059 347,1043C330,1026 310,1018 287,1018C264,1018 244,1026 228,1043C211,1059 203,1079 203,1102l0,143C203,1268 211,1288 228,1305C244,1321 264,1329 287,1329C310,1329 330,1321 347,1305C363,1288 371,1268 371,1245z"/>
<glyph unicode="&#xED;" horiz-adv-x="1237" d="M715,170l168,0C906,170 927,162 944,146C961,129 969,109 969,86C969,63 961,43 944,27C927,10 908,2 885,2l-512,0C350,2 330,10 314,27C297,43 289,63 289,86C289,109 297,128 314,145C330,162 350,170 373,170l172,0l0,627l-170,0C352,797 332,805 316,822C299,839 291,858 291,881C291,904 299,925 316,942C332,959 352,967 375,967l256,0C654,967 674,959 691,942C707,925 715,904 715,881M858,1321C870,1326 882,1329 895,1329C919,1329 939,1320 954,1303C969,1285 977,1265 977,1243C977,1207 961,1182 930,1167l-305,-141C613,1021 601,1018 588,1018C564,1018 544,1027 529,1045C514,1062 506,1082 506,1104C506,1140 522,1165 553,1180z"/>
<glyph unicode="&#xEC;" horiz-adv-x="1237" d="M723,170l168,0C914,170 935,162 952,146C969,129 977,109 977,86C977,63 969,43 952,27C935,10 916,2 893,2l-512,0C358,2 338,10 322,27C305,43 297,63 297,86C297,109 305,128 322,145C338,162 358,170 381,170l172,0l0,627l-170,0C360,797 340,805 324,822C307,839 299,858 299,881C299,904 307,925 324,942C340,959 360,967 383,967l256,0C662,967 682,959 699,942C715,925 723,904 723,881M692,1180C723,1164 739,1139 739,1104C739,1082 731,1062 716,1045C701,1027 681,1018 657,1018C644,1018 632,1021 620,1026l-305,141C284,1183 268,1208 268,1243C268,1265 276,1285 291,1303C306,1320 326,1329 350,1329C363,1329 375,1326 387,1321z"/>
<glyph unicode="&#xEE;" horiz-adv-x="1237" d="M723,170l168,0C914,170 935,162 952,146C969,129 977,109 977,86C977,63 969,43 952,27C935,10 916,2 893,2l-512,0C358,2 338,10 322,27C305,43 297,63 297,86C297,109 305,128 322,145C338,162 358,170 381,170l172,0l0,627l-170,0C360,797 340,805 324,822C307,839 299,858 299,881C299,904 307,925 324,942C340,959 360,967 383,967l256,0C662,967 682,959 699,942C715,925 723,904 723,881M534,1151l-270,-125C253,1021 241,1018 228,1018C204,1018 184,1027 169,1045C153,1062 145,1082 145,1104C145,1140 161,1165 192,1180l306,141C511,1326 523,1329 534,1329C547,1329 560,1326 571,1321l306,-141C908,1164 924,1139 924,1104C924,1082 916,1062 901,1045C885,1027 865,1018 841,1018C829,1018 817,1021 805,1026z"/>
<glyph unicode="&#xEF;" horiz-adv-x="1237" d="M715,170l168,0C906,170 927,162 944,146C961,129 969,109 969,86C969,63 961,43 944,27C927,10 908,2 885,2l-512,0C350,2 330,10 314,27C297,43 289,63 289,86C289,109 297,128 314,145C330,162 350,170 373,170l172,0l0,627l-170,0C352,797 332,805 316,822C299,839 291,858 291,881C291,904 299,925 316,942C332,959 352,967 375,967l256,0C654,967 674,959 691,942C707,925 715,904 715,881M946,1102C946,1079 938,1059 922,1043C905,1026 885,1018 862,1018C838,1018 818,1026 802,1043C786,1059 778,1079 778,1102l0,143C778,1269 786,1289 803,1306C819,1323 839,1331 862,1331C885,1331 904,1323 921,1306C938,1289 946,1269 946,1245M268,1102C268,1079 260,1059 244,1043C227,1026 207,1018 184,1018C161,1018 141,1026 125,1043C108,1059 100,1079 100,1102l0,143C100,1268 108,1288 125,1305C141,1321 161,1329 184,1329C207,1329 227,1321 244,1305C260,1288 268,1268 268,1245z"/>
<glyph unicode="&#xF1;" horiz-adv-x="1237" d="M606,770l-229,-149l0,-537C377,61 369,42 352,25C335,8 316,0 293,0C270,0 251,8 234,25C217,42 209,61 209,84l0,797C209,904 217,925 234,942C250,959 270,967 293,967C316,967 335,959 352,942C369,925 377,904 377,881l0,-56l153,93C581,951 639,967 704,967l78,0C849,967 906,943 955,896C1004,849 1029,790 1032,721l23,-637C1056,61 1048,42 1031,25C1014,8 994,0 971,0C949,0 930,8 913,23C896,38 888,58 887,84l-25,627C860,770 829,799 770,799l-82,0C663,799 635,789 606,770M1022,1171l-152,-92C851,1070 836,1065 825,1065l-53,0C767,1065 758,1067 745,1071l-256,86l-24,0l-127,-78C323,1070 307,1065 291,1065C268,1065 249,1074 232,1092C215,1110 207,1131 207,1154C207,1183 221,1206 248,1223l151,92C412,1323 427,1327 444,1327l54,0C507,1327 516,1326 524,1323l262,-88l15,0l131,80C947,1324 963,1329 978,1329C1001,1329 1021,1320 1038,1302C1055,1284 1063,1263 1063,1240C1063,1211 1049,1188 1022,1171z"/>
<glyph unicode="&#xF3;" horiz-adv-x="1237" d="M1053,662l0,-355C1053,232 1018,162 947,98C876,34 802,2 727,2l-197,0C453,2 380,35 310,100C240,165 205,234 205,307l0,355C205,735 239,805 308,870C376,935 450,967 530,967l197,0C802,968 876,937 947,873C1018,809 1053,739 1053,662M375,655l0,-340C375,284 386,260 408,242l63,-54C485,176 505,170 530,170l195,0C754,170 780,180 803,201l51,45C875,262 885,284 885,313l0,340C885,686 875,711 854,727l-59,47C775,791 752,799 725,799l-174,0C513,799 484,790 463,772l-57,-49C385,706 375,683 375,655M858,1321C870,1326 882,1329 895,1329C919,1329 939,1320 954,1303C969,1285 977,1265 977,1243C977,1207 961,1182 930,1167l-305,-141C613,1021 601,1018 588,1018C564,1018 544,1027 529,1045C514,1062 506,1082 506,1104C506,1140 522,1165 553,1180z"/>
<glyph unicode="&#xF2;" horiz-adv-x="1237" d="M1053,662l0,-355C1053,232 1018,162 947,98C876,34 802,2 727,2l-197,0C453,2 380,35 310,100C240,165 205,234 205,307l0,355C205,735 239,805 308,870C376,935 450,967 530,967l197,0C802,968 876,937 947,873C1018,809 1053,739 1053,662M375,655l0,-340C375,284 386,260 408,242l63,-54C485,176 505,170 530,170l195,0C754,170 780,180 803,201l51,45C875,262 885,284 885,313l0,340C885,686 875,711 854,727l-59,47C775,791 752,799 725,799l-174,0C513,799 484,790 463,772l-57,-49C385,706 375,683 375,655M807,1180C838,1164 854,1139 854,1104C854,1082 846,1062 831,1045C816,1027 796,1018 772,1018C759,1018 747,1021 735,1026l-305,141C399,1183 383,1208 383,1243C383,1265 391,1285 406,1303C421,1320 441,1329 465,1329C478,1329 490,1326 502,1321z"/>
<glyph unicode="&#xF4;" horiz-adv-x="1237" d="M1053,662l0,-355C1053,232 1018,162 947,98C876,34 802,2 727,2l-197,0C453,2 380,35 310,100C240,165 205,234 205,307l0,355C205,735 239,805 308,870C376,935 450,967 530,967l197,0C802,968 876,937 947,873C1018,809 1053,739 1053,662M375,655l0,-340C375,284 386,260 408,242l63,-54C485,176 505,170 530,170l195,0C754,170 780,180 803,201l51,45C875,262 885,284 885,313l0,340C885,686 875,711 854,727l-59,47C775,791 752,799 725,799l-174,0C513,799 484,790 463,772l-57,-49C385,706 375,683 375,655M618,1151l-270,-125C337,1021 325,1018 312,1018C288,1018 268,1027 253,1045C237,1062 229,1082 229,1104C229,1140 245,1165 276,1180l306,141C595,1326 607,1329 618,1329C631,1329 644,1326 655,1321l306,-141C992,1164 1008,1139 1008,1104C1008,1082 1000,1062 985,1045C969,1027 949,1018 925,1018C913,1018 901,1021 889,1026z"/>
<glyph unicode="&#xF6;" horiz-adv-x="1237" d="M1053,662l0,-355C1053,232 1018,162 947,98C876,34 802,2 727,2l-197,0C453,2 380,35 310,100C240,165 205,234 205,307l0,355C205,735 239,805 308,870C376,935 450,967 530,967l197,0C802,968 876,937 947,873C1018,809 1053,739 1053,662M375,655l0,-340C375,284 386,260 408,242l63,-54C485,176 505,170 530,170l195,0C754,170 780,180 803,201l51,45C875,262 885,284 885,313l0,340C885,686 875,711 854,727l-59,47C775,791 752,799 725,799l-174,0C513,799 484,790 463,772l-57,-49C385,706 375,683 375,655M1049,1102C1049,1079 1041,1059 1025,1043C1008,1026 988,1018 965,1018C941,1018 921,1026 905,1043C889,1059 881,1079 881,1102l0,143C881,1269 889,1289 906,1306C922,1323 942,1331 965,1331C988,1331 1007,1323 1024,1306C1041,1289 1049,1269 1049,1245M371,1102C371,1079 363,1059 347,1043C330,1026 310,1018 287,1018C264,1018 244,1026 228,1043C211,1059 203,1079 203,1102l0,143C203,1268 211,1288 228,1305C244,1321 264,1329 287,1329C310,1329 330,1321 347,1305C363,1288 371,1268 371,1245z"/>
<glyph unicode="&#xF5;" horiz-adv-x="1237" d="M1053,662l0,-355C1053,232 1018,162 947,98C876,34 802,2 727,2l-197,0C453,2 380,35 310,100C240,165 205,234 205,307l0,355C205,735 239,805 308,870C376,935 450,967 530,967l197,0C802,968 876,937 947,873C1018,809 1053,739 1053,662M375,655l0,-340C375,284 386,260 408,242l63,-54C485,176 505,170 530,170l195,0C754,170 780,180 803,201l51,45C875,262 885,284 885,313l0,340C885,686 875,711 854,727l-59,47C775,791 752,799 725,799l-174,0C513,799 484,790 463,772l-57,-49C385,706 375,683 375,655M1020,1171l-152,-92C849,1070 834,1065 823,1065l-53,0C765,1065 756,1067 743,1071l-256,86l-24,0l-127,-78C321,1070 305,1065 289,1065C266,1065 247,1074 230,1092C213,1110 205,1131 205,1154C205,1183 219,1206 246,1223l151,92C410,1323 425,1327 442,1327l54,0C505,1327 514,1326 522,1323l262,-88l15,0l131,80C945,1324 961,1329 976,1329C999,1329 1019,1320 1036,1302C1053,1284 1061,1263 1061,1240C1061,1211 1047,1188 1020,1171z"/>
<glyph unicode="&#xFA;" horiz-adv-x="1237" d="M606,170l283,180l0,531C889,904 897,925 914,942C930,959 950,967 973,967C996,967 1016,959 1033,942C1049,925 1057,904 1057,881l0,-797C1057,61 1049,42 1032,25C1015,8 996,0 973,0C950,0 931,8 914,25C897,42 889,61 889,84l0,66l-146,-95C686,18 628,0 569,0l-78,0C422,0 363,24 314,72C265,120 238,179 235,248l-24,633C210,903 218,923 235,940C252,957 272,965 295,965C318,965 337,957 354,940C370,923 378,904 379,881l22,-621C403,200 437,170 504,170M860,1321C872,1326 884,1329 897,1329C921,1329 941,1320 956,1303C971,1285 979,1265 979,1243C979,1207 963,1182 932,1167l-305,-141C615,1021 603,1018 590,1018C566,1018 546,1027 531,1045C516,1062 508,1082 508,1104C508,1140 524,1165 555,1180z"/>
<glyph unicode="&#xF9;" horiz-adv-x="1237" d="M606,170l283,180l0,531C889,904 897,925 914,942C930,959 950,967 973,967C996,967 1016,959 1033,942C1049,925 1057,904 1057,881l0,-797C1057,61 1049,42 1032,25C1015,8 996,0 973,0C950,0 931,8 914,25C897,42 889,61 889,84l0,66l-146,-95C686,18 628,0 569,0l-78,0C422,0 363,24 314,72C265,120 238,179 235,248l-24,633C210,903 218,923 235,940C252,957 272,965 295,965C318,965 337,957 354,940C370,923 378,904 379,881l22,-621C403,200 437,170 504,170M809,1180C840,1164 856,1139 856,1104C856,1082 848,1062 833,1045C818,1027 798,1018 774,1018C761,1018 749,1021 737,1026l-305,141C401,1183 385,1208 385,1243C385,1265 393,1285 408,1303C423,1320 443,1329 467,1329C480,1329 492,1326 504,1321z"/>
<glyph unicode="&#xFB;" horiz-adv-x="1237" d="M606,170l283,180l0,531C889,904 897,925 914,942C930,959 950,967 973,967C996,967 1016,959 1033,942C1049,925 1057,904 1057,881l0,-797C1057,61 1049,42 1032,25C1015,8 996,0 973,0C950,0 931,8 914,25C897,42 889,61 889,84l0,66l-146,-95C686,18 628,0 569,0l-78,0C422,0 363,24 314,72C265,120 238,179 235,248l-24,633C210,903 218,923 235,940C252,957 272,965 295,965C318,965 337,957 354,940C370,923 378,904 379,881l22,-621C403,200 437,170 504,170M620,1151l-270,-125C339,1021 327,1018 314,1018C290,1018 270,1027 255,1045C239,1062 231,1082 231,1104C231,1140 247,1165 278,1180l306,141C597,1326 609,1329 620,1329C633,1329 646,1326 657,1321l306,-141C994,1164 1010,1139 1010,1104C1010,1082 1002,1062 987,1045C971,1027 951,1018 927,1018C915,1018 903,1021 891,1026z"/>
<glyph unicode="&#xFC;" horiz-adv-x="1237" d="M604,170l283,180l0,531C887,904 895,925 912,942C928,959 948,967 971,967C994,967 1014,959 1031,942C1047,925 1055,904 1055,881l0,-797C1055,61 1047,42 1030,25C1013,8 994,0 971,0C948,0 929,8 912,25C895,42 887,61 887,84l0,66l-146,-95C684,18 626,0 567,0l-78,0C420,0 361,24 312,72C263,120 236,179 233,248l-24,633C208,903 216,923 233,940C250,957 270,965 293,965C316,965 335,957 352,940C368,923 376,904 377,881l22,-621C401,200 435,170 502,170M1049,1102C1049,1079 1041,1059 1025,1043C1008,1026 988,1018 965,1018C941,1018 921,1026 905,1043C889,1059 881,1079 881,1102l0,143C881,1269 889,1289 906,1306C922,1323 942,1331 965,1331C988,1331 1007,1323 1024,1306C1041,1289 1049,1269 1049,1245M371,1102C371,1079 363,1059 347,1043C330,1026 310,1018 287,1018C264,1018 244,1026 228,1043C211,1059 203,1079 203,1102l0,143C203,1268 211,1288 228,1305C244,1321 264,1329 287,1329C310,1329 330,1321 347,1305C363,1288 371,1268 371,1245z"/>
<glyph unicode="&#x2020;" horiz-adv-x="1237" d="M705,989l256,0C984,989 1005,981 1022,965C1039,948 1047,928 1047,905C1047,882 1039,862 1022,846C1005,829 984,821 961,821l-256,0l0,-735C705,63 697,43 680,26C663,9 642,0 618,0C595,0 576,9 560,26C543,43 535,63 535,86l0,735l-259,0C253,821 234,829 218,846C201,863 193,882 193,905C193,928 201,948 218,965C234,981 253,989 276,989l259,0l0,258C535,1270 543,1290 560,1306C577,1321 597,1329 621,1329C644,1329 663,1321 680,1306C697,1290 705,1270 705,1247z"/>
<glyph unicode="&#xB0;" horiz-adv-x="1237" d="M1012,874C1012,799 977,730 906,666C835,601 761,569 686,569l-115,0C494,569 421,602 351,667C281,732 246,801 246,874l0,150C246,1099 281,1169 350,1233C419,1297 493,1329 571,1329l115,0C763,1329 836,1297 907,1234C977,1171 1012,1101 1012,1024M844,881l0,135C844,1049 834,1073 813,1090l-59,47C734,1153 711,1161 684,1161l-92,0C554,1161 525,1152 504,1135l-58,-50C426,1068 416,1046 416,1018l0,-135C416,852 427,827 449,809l63,-53C526,743 546,737 571,737l113,0C713,737 739,747 762,768l51,45C834,829 844,852 844,881z"/>
<glyph unicode="&#xA2;" horiz-adv-x="1237" d="M717,965l256,0C996,965 1016,957 1033,941C1049,924 1057,904 1057,881C1057,857 1049,837 1033,821C1016,805 996,797 973,797l-361,0C589,797 568,788 547,770l-135,-115C390,636 379,611 379,580l0,-205C379,353 388,334 405,319l148,-126C572,176 596,168 627,168l344,0C994,168 1013,160 1030,144C1047,127 1055,107 1055,84C1055,61 1047,41 1031,25C1014,8 994,0 971,0l-254,0l0,-203C717,-226 709,-246 692,-263C675,-280 654,-289 631,-289C608,-289 588,-280 572,-263C555,-246 547,-226 547,-203l0,211C509,18 477,34 450,57l-163,142C235,242 209,301 209,375l0,219C206,665 236,727 297,780l147,127C477,934 511,951 547,958l0,213C547,1194 555,1214 572,1230C589,1245 609,1253 633,1253C656,1253 675,1245 692,1230C709,1214 717,1194 717,1171z"/>
<glyph unicode="&#xA3;" horiz-adv-x="1237" d="M963,2l-680,0C260,2 241,10 224,27C207,44 199,63 199,86C199,109 207,129 223,146C239,162 259,170 283,170l106,0l123,414l-227,0C262,584 242,592 226,609C209,626 201,646 201,670C201,693 209,712 226,729C242,746 262,754 285,754l276,0l113,376C714,1264 804,1331 944,1331C1017,1331 1053,1303 1053,1247C1053,1224 1045,1204 1029,1187C1012,1170 992,1161 969,1161l-43,0C881,1161 852,1137 838,1090l-101,-338l226,0C986,752 1007,744 1024,728C1041,711 1049,691 1049,668C1049,645 1041,626 1024,609C1007,592 987,584 965,584l-277,0l-121,-414l396,0C986,170 1007,162 1024,146C1041,129 1049,109 1049,86C1049,63 1041,44 1024,27C1007,10 986,2 963,2z"/>
<glyph unicode="&#xA7;" horiz-adv-x="1237" d="M408,846l-148,166C225,1056 207,1099 207,1141C207,1192 226,1236 263,1273C300,1310 344,1329 397,1329l437,0C887,1329 938,1307 986,1262C1033,1217 1057,1162 1057,1098C1057,1074 1049,1054 1032,1037C1015,1020 996,1012 975,1012C946,1012 927,1019 916,1032C905,1045 895,1069 886,1105C876,1141 854,1159 821,1159l-405,0C397,1159 387,1153 387,1141C387,1131 391,1121 399,1112l602,-676C1037,397 1055,354 1055,309C1055,260 1037,216 1002,179C966,142 926,123 881,123l-31,0l151,-170C1037,-86 1055,-129 1055,-174C1055,-224 1037,-267 1002,-304C966,-341 926,-360 881,-360l-453,0C368,-360 316,-337 272,-291C227,-245 205,-194 205,-139C205,-76 234,-45 293,-45C316,-45 335,-53 351,-69C367,-86 375,-105 375,-127C375,-145 381,-160 394,-172C406,-184 421,-190 440,-190l408,0C865,-190 874,-183 874,-170C874,-161 870,-152 862,-143l-602,671C225,573 207,616 207,657C207,708 226,753 263,790C300,827 344,846 397,846M698,293l150,0C865,293 874,300 874,313C874,322 870,331 862,340l-301,336l-145,0C397,676 387,670 387,657C387,648 391,638 399,629z"/>
<glyph unicode="&#x2022;" horiz-adv-x="1237" d="M961,502C961,455 944,415 911,381C877,347 838,330 793,330l-349,0C400,330 362,347 330,380C297,413 281,453 281,498l0,295C281,839 298,879 331,914C364,948 404,965 449,965l339,0C835,965 876,948 910,914C944,880 961,840 961,793z"/>
<glyph unicode="&#xB6;" horiz-adv-x="1237" d="M1034,84C1034,61 1026,41 1009,25C992,8 972,0 948,0C925,0 905,8 889,25C872,41 864,61 864,84l0,1075l-170,0l0,-1075C694,61 686,41 669,25C652,8 632,0 608,0C585,0 565,8 549,25C532,41 524,61 524,84l0,424l-86,0C369,508 309,533 260,582C211,631 186,691 186,760l0,315C186,1144 211,1204 261,1254C310,1304 369,1329 438,1329l596,0z"/>
<glyph unicode="&#xDF;" horiz-adv-x="1237" d="M920,504C974,455 1010,413 1027,376C1044,339 1053,299 1053,258C1053,186 1027,125 976,75C925,25 867,0 803,0l-53,0C691,0 636,18 586,53C535,88 510,123 510,156C510,178 518,198 535,215C552,232 573,240 598,240C619,240 642,228 667,204C691,180 726,168 772,168l27,0C824,168 844,177 859,196C874,215 882,237 882,264C882,298 871,325 850,344l-197,180C600,573 566,608 552,627C537,646 530,670 530,700C530,754 564,799 631,834l162,84C832,939 858,954 869,964C880,974 885,989 885,1009C885,1046 875,1073 854,1090l-59,47C775,1153 752,1161 725,1161l-174,0C513,1161 484,1152 463,1135l-57,-50C385,1068 375,1046 375,1018l0,-934C375,61 367,42 350,25C333,8 314,0 291,0C268,0 248,9 231,26C214,43 205,62 205,84l0,942C205,1093 225,1147 265,1188C304,1228 343,1262 382,1289C420,1316 469,1329 530,1329l197,0C802,1330 876,1299 947,1235C1018,1171 1053,1101 1053,1024C1053,964 1040,920 1015,893C989,865 942,834 874,799l-100,-51C730,725 708,709 708,699C708,695 720,683 743,662z"/>
<glyph unicode="&#xAE;" horiz-adv-x="1237" d="M1067,303C1067,232 1034,164 968,99C901,33 825,0 739,0l-241,0C412,0 336,33 270,99C203,164 170,232 170,303l0,723C170,1097 203,1165 270,1231C336,1296 412,1329 498,1329l241,0C825,1329 901,1296 968,1231C1034,1165 1067,1097 1067,1026M981,307l0,715C981,1075 966,1118 935,1150C904,1182 878,1206 858,1221C838,1236 797,1243 735,1243l-233,0C435,1243 390,1233 367,1214C344,1194 320,1169 295,1140C269,1111 256,1071 256,1022l0,-715C256,254 272,212 303,180C334,147 359,124 379,109C399,94 440,86 502,86l233,0C802,86 847,96 870,116C893,135 917,160 943,189C968,218 981,258 981,307M367,1073l286,0C722,1073 782,1048 831,998C880,948 905,888 905,819C905,687 845,607 725,578l135,-187C875,370 883,348 883,324C883,305 877,289 864,276C851,263 834,256 815,256C789,256 765,271 743,301l-190,266l-37,0l0,-237C516,309 509,291 495,277C480,263 462,256 440,256C419,256 401,263 388,277C374,291 367,309 367,330M514,715l139,0C723,715 758,750 758,819C758,851 748,877 729,897C709,916 684,926 653,926l-139,0z"/>
<glyph unicode="&#xA9;" horiz-adv-x="1237" d="M1067,303C1067,232 1034,164 968,99C901,33 825,0 739,0l-241,0C412,0 336,33 270,99C203,164 170,232 170,303l0,723C170,1097 203,1165 270,1231C336,1296 412,1329 498,1329l241,0C825,1329 901,1296 968,1231C1034,1165 1067,1097 1067,1026M981,307l0,715C981,1075 966,1118 935,1150C904,1182 878,1206 858,1221C838,1236 797,1243 735,1243l-233,0C435,1243 390,1233 367,1214C344,1194 320,1169 295,1140C269,1111 256,1071 256,1022l0,-715C256,254 272,212 303,180C334,147 359,124 379,109C399,94 440,86 502,86l233,0C802,86 847,96 870,116C893,135 917,160 943,189C968,218 981,258 981,307M797,924l-168,0C619,924 607,912 594,887l-98,-182C491,698 489,685 489,666C489,649 493,634 500,621l94,-179C607,419 618,408 629,408l166,0C820,408 841,401 856,386C871,371 879,354 879,333C879,312 871,294 856,280C841,265 820,258 795,258l-154,0C610,258 576,268 541,289C505,309 479,334 463,365l-98,186C348,597 340,635 340,666C340,715 349,755 367,788l96,179C477,996 501,1021 535,1042C569,1063 602,1073 635,1073l162,0C822,1073 843,1066 858,1052C873,1037 881,1019 881,998C881,977 873,960 858,946C843,931 822,924 797,924z"/>
<glyph unicode="&#x2122;" horiz-adv-x="1237" d="M574,1186l-133,0l0,-398C441,767 434,749 420,736C406,723 389,716 369,716C349,716 332,723 318,736C304,749 297,767 297,788l0,398l-133,0C142,1186 125,1193 112,1207C99,1220 92,1237 92,1257C92,1278 99,1295 112,1309C125,1322 142,1329 164,1329l410,0C596,1329 614,1322 627,1309C640,1295 646,1278 646,1257C646,1237 640,1220 627,1207C614,1193 596,1186 574,1186M1248,788C1248,767 1241,749 1227,736C1213,723 1196,716 1176,716C1156,716 1139,723 1125,736C1111,749 1104,767 1104,788l0,318l-90,-68C1001,1028 986,1023 971,1023C956,1023 942,1028 928,1038l-90,68l0,-318C838,767 831,749 817,736C803,723 786,716 766,716C746,716 729,723 716,736C702,749 695,767 695,788l0,461C695,1302 714,1329 753,1329C771,1329 790,1322 809,1307l162,-121l162,121C1153,1322 1172,1329 1190,1329C1229,1329 1248,1302 1248,1249z"/>
<glyph unicode="&#xB4;" horiz-adv-x="1237" d="M743,1321C755,1326 767,1329 780,1329C804,1329 824,1320 839,1303C854,1285 862,1265 862,1243C862,1207 846,1182 815,1167l-305,-141C498,1021 486,1018 473,1018C449,1018 429,1027 414,1045C399,1062 391,1082 391,1104C391,1140 407,1165 438,1180z"/>
<glyph unicode="&#xA8;" horiz-adv-x="1237" d="M1049,1102C1049,1079 1041,1059 1025,1043C1008,1026 988,1018 965,1018C941,1018 921,1026 905,1043C889,1059 881,1079 881,1102l0,143C881,1269 889,1289 906,1306C922,1323 942,1331 965,1331C988,1331 1007,1323 1024,1306C1041,1289 1049,1269 1049,1245M371,1102C371,1079 363,1059 347,1043C330,1026 310,1018 287,1018C264,1018 244,1026 228,1043C211,1059 203,1079 203,1102l0,143C203,1268 211,1288 228,1305C244,1321 264,1329 287,1329C310,1329 330,1321 347,1305C363,1288 371,1268 371,1245z"/>
<glyph unicode="&#x2260;" horiz-adv-x="1237" d="M680,606l287,0C990,606 1009,598 1026,581C1043,564 1051,545 1051,522C1051,499 1043,479 1027,462C1010,445 990,436 967,436l-349,0l-86,-235C520,164 494,146 454,146C431,146 411,154 394,171C377,187 368,207 368,231C368,241 370,250 373,258l65,178l-151,0C264,436 245,445 228,462C211,479 203,499 203,522C203,545 211,565 228,582C245,598 264,606 287,606l213,0l69,193l-282,0C264,799 245,807 228,824C211,841 203,860 203,883C203,906 211,925 228,942C245,959 264,967 287,967l344,0l88,239C733,1243 759,1261 797,1261C818,1261 838,1253 857,1237C875,1220 884,1200 884,1175C884,1166 882,1156 879,1147l-66,-180l154,0C990,967 1010,959 1027,943C1043,926 1051,906 1051,883C1051,860 1043,840 1027,824C1010,807 990,799 967,799l-215,0z"/>
<glyph unicode="&#xC6;" horiz-adv-x="1237" d="M978,2l-254,0C700,2 680,10 663,27C646,43 638,63 638,86l0,205l-174,0l-80,-223C367,24 338,2 298,2C275,2 255,10 238,26C221,42 213,62 213,86C213,97 215,109 220,121l422,1145C657,1308 687,1329 732,1329l248,0C1003,1329 1023,1321 1040,1305C1056,1288 1064,1268 1064,1245C1064,1222 1056,1202 1040,1186C1023,1169 1003,1161 980,1161l-170,0l0,-411l170,0C1003,750 1023,742 1040,726C1056,709 1064,689 1064,666C1064,642 1056,622 1040,606C1023,590 1003,582 980,582l-172,0l0,-412l170,0C1001,170 1022,162 1039,146C1056,129 1064,109 1064,86C1064,63 1056,44 1039,27C1022,10 1001,2 978,2M527,461l111,0l0,303z"/>
<glyph unicode="&#xD8;" horiz-adv-x="1237" d="M263,840l188,374C468,1249 495,1278 532,1299C568,1320 607,1331 650,1331C687,1331 726,1320 765,1297C804,1274 833,1239 853,1192l57,94C928,1316 953,1331 984,1331C1008,1331 1028,1323 1044,1306C1060,1289 1068,1270 1068,1250C1068,1231 1062,1211 1049,1190l-106,-180l92,-185C1058,778 1070,723 1070,662C1070,604 1059,553 1037,510l-195,-385C822,84 795,54 760,33C725,12 689,2 652,2C605,2 562,15 523,40C484,65 456,99 439,143l-57,-98C365,17 341,3 309,3C288,3 268,11 250,28C232,44 223,64 223,87C223,106 229,124 240,143l107,181l-82,168C237,548 223,607 223,669C223,730 236,787 263,840M595,1122l-183,-364C399,729 392,701 392,672C392,623 412,566 451,502l301,512l-55,112C685,1151 669,1163 648,1163C626,1163 608,1149 595,1122M838,831l-297,-512l51,-106C605,186 624,173 648,173C668,173 684,186 697,211l184,362C894,599 901,627 901,656C901,709 880,767 838,831z"/>
<glyph unicode="&#x221E;" horiz-adv-x="1237" d="M1059,307C1059,270 1039,232 999,191C959,150 920,129 881,129l-150,0l-113,125l-112,-125l-150,0C318,129 279,149 240,189C200,229 180,268 180,307l0,144C180,491 200,530 240,569C279,608 318,627 356,627l152,0l110,-121l111,121l152,0C920,627 959,607 999,568C1039,528 1059,489 1059,451M889,307l0,144C889,455 886,457 881,457l-76,0l-70,-78l72,-80l74,0C886,299 889,302 889,307M504,379l-72,78l-76,0C352,457 350,455 350,451l0,-144C350,302 352,299 356,299l74,0z"/>
<glyph unicode="&#xB1;" horiz-adv-x="1237" d="M702,752l259,0C984,752 1005,744 1022,728C1039,711 1047,691 1047,668C1047,645 1039,625 1022,609C1005,592 984,584 961,584l-256,0l0,-258C705,302 697,282 680,265C663,248 642,240 618,240C595,240 576,248 560,265C543,282 535,302 535,326l0,258l-259,0C253,584 234,592 218,609C201,625 193,645 193,668C193,691 201,710 218,727C234,744 253,752 276,752l259,0l0,258C535,1033 543,1052 560,1068C577,1084 597,1092 621,1092C644,1092 663,1084 679,1068C694,1052 702,1033 702,1010M961,168C984,168 1005,160 1022,144C1039,127 1047,107 1047,84C1047,61 1039,41 1022,25C1005,8 984,0 961,0l-685,0C253,0 234,8 218,25C201,41 193,61 193,84C193,107 201,127 218,144C234,160 253,168 276,168z"/>
<glyph unicode="&#x2264;" horiz-adv-x="1237" d="M401,809l619,-365C1045,429 1057,405 1057,374C1057,349 1049,329 1032,313C1015,296 995,288 974,288C957,288 939,294 920,305l-662,391C224,715 207,742 207,776l0,66C207,875 224,901 258,922l662,391C938,1324 956,1330 974,1330C995,1330 1015,1322 1032,1305C1049,1288 1057,1268 1057,1244C1057,1213 1045,1191 1020,1176M975,168C998,168 1019,160 1036,144C1053,127 1061,107 1061,84C1061,61 1053,41 1036,25C1019,8 998,0 975,0l-684,0C268,0 249,8 232,25C215,41 207,61 207,84C207,107 215,127 232,144C249,160 268,168 291,168z"/>
<glyph unicode="&#x2265;" horiz-adv-x="1237" d="M1055,776C1055,742 1039,715 1006,696l-662,-391C325,294 306,288 289,288C268,288 249,296 232,312C215,327 206,347 206,372C206,404 219,427 244,442l618,367l-618,365C219,1189 206,1213 206,1245C206,1270 215,1291 232,1307C249,1322 268,1330 289,1330C306,1330 324,1324 344,1313l662,-391C1039,903 1055,876 1055,842M971,168C994,168 1013,160 1030,144C1047,127 1055,107 1055,84C1055,61 1047,41 1030,25C1013,8 994,0 971,0l-684,0C263,0 243,8 226,25C209,41 201,61 201,84C201,107 209,127 226,144C243,160 263,168 287,168z"/>
<glyph unicode="&#xA5;" horiz-adv-x="1237" d="M713,606l262,0C998,606 1019,598 1036,581C1053,564 1061,545 1061,522C1061,499 1053,479 1036,462C1019,445 998,436 975,436l-262,0l0,-348C713,65 705,45 689,29C672,12 652,4 629,4C606,4 586,12 570,29C553,45 545,65 545,88l0,348l-258,0C264,436 245,445 228,462C211,479 203,499 203,522C203,545 211,565 228,582C245,598 264,606 287,606l258,0l0,39l-322,547C211,1213 205,1233 205,1251C205,1272 213,1290 230,1307C247,1324 267,1332 290,1332C323,1332 346,1320 360,1296l271,-458l268,452C914,1316 937,1329 970,1329C997,1329 1018,1320 1033,1302C1048,1284 1055,1263 1055,1240C1055,1227 1052,1216 1047,1206l-334,-557z"/>
<glyph unicode="&#xB5;" horiz-adv-x="1237" d="M1058,84C1058,61 1050,42 1033,25C1016,8 997,0 974,0C951,0 932,8 915,25C898,42 890,61 890,84l0,66l-146,-95C687,18 629,0 570,0l-102,0C439,0 409,5 378,16l0,-292C378,-300 370,-320 354,-336C337,-352 317,-360 294,-360C269,-360 249,-350 234,-331C218,-312 210,-294 210,-276l0,1157C208,903 216,923 233,940C250,957 270,965 294,965C319,965 339,956 355,937C370,918 378,899 378,881l0,-621C380,200 414,170 480,170l127,0l283,180l0,531C890,904 898,925 915,942C931,959 951,967 974,967C997,967 1017,959 1034,942C1050,925 1058,904 1058,881z"/>
<glyph unicode="&#x2202;" horiz-adv-x="1237" d="M1053,307C1053,232 1018,162 947,98C876,34 802,2 727,2l-197,0C453,2 380,35 310,100C240,165 205,234 205,307l0,355C205,735 239,805 308,870C376,935 450,967 530,967l84,0l-219,219C379,1202 371,1222 371,1245C371,1268 379,1288 396,1305C412,1321 432,1329 455,1329C478,1329 497,1321 514,1305l471,-471C1030,789 1053,731 1053,662M885,313l0,340C885,686 875,711 854,727l-59,47C775,791 752,799 725,799l-174,0C513,799 484,790 463,772l-57,-49C385,706 375,683 375,655l0,-340C375,284 386,260 408,242l63,-54C485,176 505,170 530,170l195,0C754,170 780,180 803,201l51,45C875,262 885,284 885,313z"/>
<glyph unicode="&#x2211;" horiz-adv-x="1237" d="M410,168l561,0C994,168 1013,160 1030,144C1047,127 1055,107 1055,84C1055,61 1047,41 1030,25C1013,8 992,0 969,0l-762,0l0,168l338,498l-338,493l0,170l762,0C992,1329 1013,1321 1030,1304C1047,1287 1055,1266 1055,1243C1055,1220 1047,1201 1030,1184C1013,1167 992,1159 969,1159l-559,0l278,-409C714,715 727,687 727,666C727,647 714,618 688,580z"/>
<glyph unicode="&#x220F;" horiz-adv-x="1237" d="M205,1161l-86,0C96,1161 77,1169 60,1186C43,1203 35,1222 35,1245C35,1268 43,1288 60,1305C77,1321 96,1329 119,1329l1018,0C1160,1329 1181,1321 1198,1305C1215,1288 1223,1268 1223,1245C1223,1222 1215,1202 1198,1186C1181,1169 1160,1161 1137,1161l-84,0l0,-1075C1053,63 1045,43 1028,26C1011,9 990,0 967,0C944,0 924,9 908,26C891,43 883,63 883,86l0,1075l-508,0l0,-1075C375,63 367,43 350,26C333,9 312,0 289,0C266,0 246,9 230,26C213,43 205,63 205,86z"/>
<glyph unicode="&#x3C0;" horiz-adv-x="1237" d="M246,797l-86,0C137,797 118,805 101,822C84,838 76,858 76,881C76,904 84,923 101,940C118,957 137,965 160,965l936,0C1119,965 1140,957 1157,941C1174,924 1182,904 1182,881C1182,858 1174,838 1157,822C1140,805 1119,797 1096,797l-84,0l0,-711C1012,63 1004,43 987,26C970,9 949,0 926,0C903,0 883,9 867,26C850,43 842,63 842,86l0,711l-426,0l0,-711C416,63 408,43 391,26C374,9 353,0 330,0C307,0 287,9 271,26C254,43 246,63 246,86z"/>
<glyph unicode="&#x222B;" horiz-adv-x="1237" d="M1049,977C1049,954 1041,934 1025,918C1008,901 988,893 965,893C941,893 921,901 905,918C889,934 881,954 881,977l0,180l-168,0l0,-1517l-506,0l0,350C207,13 215,33 232,50C248,66 268,74 291,74C314,74 334,66 351,50C367,33 375,13 375,-10l0,-180l168,0l0,1519l506,0z"/>
<glyph unicode="&#xAA;" horiz-adv-x="1237" d="M457,970l329,0C804,970 830,966 864,958l-2,119C862,1100 854,1120 838,1137C821,1153 801,1161 778,1161l-319,0C436,1161 417,1169 400,1186C383,1203 375,1222 375,1245C375,1268 383,1288 400,1305C416,1321 436,1329 459,1329l319,0C847,1329 907,1305 956,1256C1005,1207 1030,1148 1032,1077l21,-629C1053,425 1045,405 1028,389C1011,372 992,364 969,364C945,364 925,372 908,389C891,405 883,425 883,448l-142,-84l-284,0C386,364 326,389 277,438C228,487 203,547 203,618l0,98C203,786 228,846 278,896C327,945 387,970 457,970M877,643l-5,71C871,738 863,758 847,774C831,790 811,798 788,798l-331,0C434,798 414,790 398,774C381,757 373,737 373,714l0,-94C373,597 381,578 398,561C415,544 434,536 457,536l237,0z"/>
<glyph unicode="&#xBA;" horiz-adv-x="1237" d="M1053,1026l0,-355C1053,596 1018,526 947,462C876,398 802,366 727,366l-197,0C453,366 380,399 310,464C240,529 205,598 205,671l0,355C205,1099 239,1169 308,1234C376,1299 450,1331 530,1331l197,0C802,1332 876,1301 947,1237C1018,1173 1053,1103 1053,1026M375,1019l0,-340C375,648 386,624 408,606l63,-54C485,540 505,534 530,534l195,0C754,534 780,544 803,565l51,45C875,626 885,648 885,677l0,340C885,1050 875,1075 854,1091l-59,47C775,1155 752,1163 725,1163l-174,0C513,1163 484,1154 463,1136l-57,-49C385,1070 375,1047 375,1019z"/>
<glyph unicode="&#x2126;" horiz-adv-x="1237" d="M893,168l76,0C992,168 1011,160 1028,144C1045,127 1053,107 1053,84C1053,61 1045,41 1028,25C1011,8 990,0 967,0l-248,0l0,168C719,183 724,204 735,231l123,308C875,582 883,624 883,664l0,352C883,1050 873,1075 854,1090l-59,47C775,1153 752,1161 725,1161l-174,0C513,1161 484,1152 463,1135l-57,-50C385,1068 375,1046 375,1018l0,-354C375,621 383,580 399,539l123,-308C533,211 539,190 539,168l0,-168l-248,0C267,0 247,8 230,25C213,41 205,61 205,84C205,107 213,127 230,144C247,160 266,168 289,168l76,0l-123,307C217,534 205,597 205,662l0,362C205,1099 240,1168 309,1233C378,1297 451,1329 530,1329l197,0C790,1329 843,1314 885,1283C926,1252 965,1218 1000,1180C1035,1141 1053,1089 1053,1024l0,-362C1053,603 1040,541 1014,475z"/>
<glyph unicode="&#xE6;" horiz-adv-x="1237" d="M694,362l0,-49C694,284 706,260 731,240l49,-41C807,178 832,168 856,168l221,0C1100,168 1119,160 1136,144C1153,127 1161,107 1161,84C1161,61 1153,42 1136,25C1119,8 1100,0 1077,0l-231,0C816,0 785,6 753,19C721,31 697,44 682,57l-74,64l-205,-121l-73,0C259,0 199,25 150,74C101,123 76,183 76,254l0,98C76,422 101,482 151,532C200,581 260,606 330,606l119,0C466,606 491,602 524,594l0,119C524,736 516,756 500,773C483,789 463,797 440,797l-108,0C309,797 290,805 273,822C256,839 248,858 248,881C248,904 256,924 273,941C289,957 309,965 332,965l108,0C519,965 584,933 637,870C707,933 774,965 838,965l24,0C921,965 977,940 1030,891l64,-60C1139,790 1161,730 1161,649l0,-203C1161,423 1153,404 1137,387C1120,370 1100,362 1077,362M995,532l0,117C995,680 986,704 967,721l-49,43C893,785 870,795 850,795C823,795 799,786 778,768l-49,-41C707,710 696,689 696,662l0,-130M524,270l0,119C508,419 484,434 451,434l-121,0C307,434 287,426 271,410C254,393 246,373 246,350l0,-94C246,233 254,214 271,197C288,180 307,172 330,172l26,0z"/>
<glyph unicode="&#xF8;" horiz-adv-x="1237" d="M1053,307C1053,232 1018,162 947,98C876,34 802,2 727,2l-197,0C505,2 480,5 453,12l-88,-151C348,-167 324,-181 292,-181C271,-181 251,-173 233,-157C215,-141 206,-121 206,-97C206,-79 223,-41 256,17l51,85C265,144 238,181 225,213C212,244 205,276 205,307l0,355C205,737 240,806 309,871C378,935 452,967 530,967l197,0C760,967 787,963 807,956l86,146C911,1131 936,1146 967,1146C991,1146 1011,1138 1027,1121C1043,1104 1051,1086 1051,1066C1051,1047 1045,1027 1032,1006l-82,-140C1019,810 1053,742 1053,662M715,799l-164,0C513,799 484,790 463,772l-57,-49C385,706 375,683 375,655l0,-340C375,291 382,270 395,252M885,313l0,340C885,675 878,696 864,717l-319,-547l180,0C754,170 780,180 803,201l51,45C875,262 885,284 885,313z"/>
<glyph unicode="&#xBF;" horiz-adv-x="1237" d="M778,965C801,965 821,957 838,941C854,924 862,904 862,881C862,857 854,837 838,820C821,803 801,795 778,795C755,795 735,803 719,820C702,837 694,857 694,881C694,904 702,924 719,941C735,957 755,965 778,965M1008,96l-516,-438C477,-355 458,-362 436,-362C415,-362 398,-356 385,-344l-172,149C194,-180 184,-158 184,-131l0,143C184,37 192,57 207,70l485,417l0,105C692,615 700,634 717,651C734,668 753,676 776,676C799,676 819,668 836,651C852,634 860,615 860,592l0,-139C860,423 851,400 834,385l-480,-414l0,-61l84,-76l447,383C905,234 926,242 947,242C968,242 987,234 1004,219C1021,203 1030,182 1030,157C1030,129 1023,109 1008,96z"/>
<glyph unicode="&#xA1;" horiz-adv-x="1237" d="M752,807C752,784 744,765 727,748C710,731 689,723 666,723l-80,0C561,723 541,732 525,750C508,768 500,788 500,809l0,72C500,904 508,924 525,941C541,957 561,965 584,965l84,0C691,965 711,957 728,941C744,924 752,904 752,881M754,-276C755,-298 748,-318 731,-335C714,-353 693,-362 670,-362l-84,0C562,-362 542,-353 525,-336C508,-319 501,-300 502,-279l41,654C545,400 554,420 570,436C585,451 605,459 629,459C652,459 671,451 687,434C703,417 712,397 713,375z"/>
<glyph unicode="&#xAC;" horiz-adv-x="1237" d="M1047,328C1047,305 1039,286 1022,269C1005,252 985,244 963,244C939,244 919,252 902,269C885,285 877,305 877,328l0,256l-601,0C253,584 233,592 217,608C201,624 193,644 193,668C193,691 201,711 217,728C233,744 253,752 276,752l685,0C984,752 1005,744 1022,728C1039,711 1047,691 1047,668z"/>
<glyph unicode="&#x221A;" horiz-adv-x="1237" d="M1110,1159l-51,0l-354,-1085C688,25 662,1 626,1C593,1 567,22 547,63l-115,242l-45,0C362,305 341,313 326,330C311,346 303,366 303,390C303,414 311,434 326,451C341,467 362,475 387,475l100,0C524,475 550,459 565,428l47,-98l308,942C933,1310 959,1329 999,1329l111,0C1135,1329 1156,1321 1172,1305C1187,1288 1195,1268 1195,1244C1195,1220 1187,1200 1172,1184C1156,1167 1135,1159 1110,1159z"/>
<glyph unicode="&#x192;" horiz-adv-x="1237" d="M571,965l15,65C605,1123 642,1197 696,1250C749,1303 816,1329 895,1329l197,0C1115,1329 1134,1321 1151,1304C1168,1287 1176,1267 1176,1243C1176,1220 1168,1201 1151,1184C1134,1167 1115,1159 1092,1159l-197,0C821,1159 775,1116 756,1030l-15,-65l172,0C937,965 957,957 973,941C989,924 997,904 997,881C997,858 989,839 973,822C956,805 936,797 913,797l-206,0l-218,-1059C474,-329 440,-362 387,-362C339,-362 315,-341 315,-299C315,-288 316,-275 319,-262l218,1059l-111,0C403,797 383,805 367,822C350,839 342,858 342,881C342,903 350,923 365,940C380,957 400,965 426,965z"/>
<glyph unicode="&#x2248;" horiz-adv-x="1237" d="M1061,858l-152,-92C890,757 875,752 864,752l-53,0C806,752 797,754 784,758l-256,86l-24,0l-127,-78C362,757 346,752 330,752C307,752 288,761 271,779C254,797 246,817 246,840C246,869 260,892 287,909l151,92C451,1010 466,1014 483,1014l54,0C546,1014 555,1013 563,1010l262,-88l15,0l131,79C986,1011 1002,1016 1017,1016C1040,1016 1060,1007 1077,989C1094,971 1102,950 1102,927C1102,898 1088,875 1061,858M1061,498l-152,-92C890,396 875,391 864,391l-53,0C806,391 797,393 784,397l-256,86l-24,0l-127,-77C362,396 346,391 330,391C307,391 288,400 271,418C254,436 246,457 246,480C246,509 260,532 287,549l151,92C451,649 466,653 483,653l54,0C546,653 555,652 563,649l262,-88l15,0l131,80C986,650 1002,655 1017,655C1040,655 1060,646 1077,628C1094,610 1102,590 1102,567C1102,538 1088,515 1061,498z"/>
<glyph unicode="&#x2206;" horiz-adv-x="1237" d="M1057,0l-848,0l0,395l340,871C566,1308 594,1329 633,1329C671,1329 698,1308 715,1266l342,-871M889,170l0,192l-256,650l-256,-652l0,-190z"/>
<glyph unicode="&#xAB;" horiz-adv-x="1237" d="M1020,305C1025,293 1028,281 1028,269C1028,245 1019,225 1002,210C984,194 964,186 942,186C906,186 881,202 866,233l-141,306C720,552 717,564 717,575C717,588 720,601 725,612l141,306C882,949 907,965 942,965C964,965 984,957 1002,942C1019,926 1028,906 1028,882C1028,870 1025,858 1020,846l-125,-271M510,305C515,293 518,281 518,269C518,245 509,225 492,210C474,194 454,186 432,186C396,186 371,202 356,233l-141,306C210,552 207,564 207,575C207,588 210,601 215,612l141,306C372,949 397,965 432,965C454,965 474,957 492,942C509,926 518,906 518,882C518,870 515,858 510,846l-125,-271z"/>
<glyph unicode="&#xBB;" horiz-adv-x="1237" d="M860,575l-125,271C730,857 727,869 727,882C727,906 736,926 754,942C771,957 791,965 813,965C849,965 874,949 889,918l141,-306C1035,599 1038,586 1038,575C1038,562 1035,550 1030,539l-141,-306C873,202 848,186 813,186C791,186 771,194 754,210C736,225 727,245 727,269C727,281 730,293 735,305M350,575l-125,271C220,857 217,869 217,882C217,906 226,926 244,942C261,957 281,965 303,965C339,965 364,949 379,918l141,-306C525,599 528,586 528,575C528,562 525,550 520,539l-141,-306C363,202 338,186 303,186C281,186 261,194 244,210C226,225 217,245 217,269C217,281 220,293 225,305z"/>
<glyph unicode="&#x2026;" horiz-adv-x="1237" d="M1118,86C1118,63 1110,43 1094,27C1077,10 1057,2 1034,2l-84,0C927,2 907,10 891,27C874,43 866,63 866,86l0,72C867,181 876,202 893,219C910,236 929,244 952,244l80,0C1055,244 1076,236 1093,219C1110,202 1118,183 1118,160M745,86C745,63 737,43 721,27C705,10 685,2 662,2l-84,0C554,2 534,10 518,27C502,43 494,63 494,86l0,72C495,181 503,202 520,219C537,236 557,244 580,244l79,0C682,244 703,236 720,219C737,202 745,183 745,160M373,86C373,63 365,43 349,27C332,10 312,2 289,2l-84,0C182,2 162,10 146,27C129,43 121,63 121,86l0,72C122,181 130,202 147,219C164,236 184,244 207,244l80,0C310,244 331,236 348,219C365,202 373,183 373,160z"/>
<glyph unicode="&#xA0;" horiz-adv-x="1237"/>
<glyph unicode="&#xC0;" horiz-adv-x="1237" d="M212,117l340,1149C565,1308 593,1329 636,1329C677,1329 703,1311 714,1276l335,-1167C1052,100 1053,92 1053,84C1053,61 1045,41 1029,25C1013,8 995,0 974,0C930,0 902,20 890,61l-68,228l-383,0l-74,-244C363,34 355,24 340,15C325,5 309,0 292,0C267,0 247,8 231,25C215,42 207,62 207,86C207,96 209,106 212,117M634,940l-144,-481l283,0M812,1544C843,1528 859,1503 859,1468C859,1446 851,1426 836,1409C821,1391 801,1382 777,1382C764,1382 752,1385 740,1390l-305,141C404,1547 388,1572 388,1607C388,1629 396,1649 411,1667C426,1684 446,1693 470,1693C483,1693 495,1690 507,1685z"/>
<glyph unicode="&#xC3;" horiz-adv-x="1237" d="M212,117l340,1149C565,1308 593,1329 636,1329C677,1329 703,1311 714,1276l335,-1167C1052,100 1053,92 1053,84C1053,61 1045,41 1029,25C1013,8 995,0 974,0C930,0 902,20 890,61l-68,228l-383,0l-74,-244C363,34 355,24 340,15C325,5 309,0 292,0C267,0 247,8 231,25C215,42 207,62 207,86C207,96 209,106 212,117M634,940l-144,-481l283,0M1025,1536l-152,-92C854,1435 839,1430 828,1430l-53,0C770,1430 761,1432 748,1436l-256,86l-24,0l-127,-78C326,1435 310,1430 294,1430C271,1430 252,1439 235,1457C218,1475 210,1496 210,1519C210,1548 224,1571 251,1588l151,92C415,1688 430,1692 447,1692l54,0C510,1692 519,1691 527,1688l262,-88l15,0l131,80C950,1689 966,1694 981,1694C1004,1694 1024,1685 1041,1667C1058,1649 1066,1628 1066,1605C1066,1576 1052,1553 1025,1536z"/>
<glyph unicode="&#xD5;" horiz-adv-x="1237" d="M829,1206l185,-377C1040,778 1053,722 1053,662C1053,603 1040,548 1014,496l-185,-373C790,41 723,0 629,0C584,0 544,12 509,35C473,58 446,88 428,123l-186,373C217,545 205,600 205,662C205,724 217,780 242,829l186,377C470,1288 537,1329 629,1329C722,1329 789,1288 829,1206M573,1122l-174,-354C383,733 375,698 375,664C375,627 383,592 399,559l179,-358C587,179 604,168 629,168C650,168 667,179 678,201l180,358C875,594 883,629 883,664C883,701 875,735 858,768l-176,354C671,1148 653,1161 629,1161C605,1161 586,1148 573,1122M1020,1536l-152,-92C849,1435 834,1430 823,1430l-53,0C765,1430 756,1432 743,1436l-256,86l-24,0l-127,-78C321,1435 305,1430 289,1430C266,1430 247,1439 230,1457C213,1475 205,1496 205,1519C205,1548 219,1571 246,1588l151,92C410,1688 425,1692 442,1692l54,0C505,1692 514,1691 522,1688l262,-88l15,0l131,80C945,1689 961,1694 976,1694C999,1694 1019,1685 1036,1667C1053,1649 1061,1628 1061,1605C1061,1576 1047,1553 1020,1536z"/>
<glyph unicode="&#x152;" horiz-adv-x="1237" d="M801,168l170,0C994,168 1015,160 1032,144C1049,127 1057,107 1057,84C1057,61 1049,42 1032,25C1015,8 994,0 971,0l-342,0C584,0 544,12 509,35C473,58 446,88 428,123l-186,373C217,545 205,600 205,662C205,724 217,780 242,829l186,377C470,1288 537,1329 629,1329l344,0C996,1329 1016,1321 1033,1305C1049,1288 1057,1268 1057,1245C1057,1222 1049,1202 1033,1186C1016,1169 996,1161 973,1161l-170,0l0,-411l170,0C996,750 1016,742 1033,726C1049,709 1057,689 1057,666C1057,642 1049,622 1033,606C1016,590 996,582 973,582l-172,0M633,168l0,993l-4,0C605,1161 586,1148 573,1122l-174,-354C383,733 375,698 375,664C375,627 383,592 399,559l179,-358C587,179 604,168 629,168z"/>
<glyph unicode="&#x153;" horiz-adv-x="1237" d="M723,362l0,-49C723,286 739,256 772,221C805,186 837,168 870,168l207,0C1100,168 1119,160 1136,144C1153,127 1161,107 1161,84C1161,61 1153,42 1136,25C1119,8 1100,0 1077,0l-217,0C795,0 743,18 705,55l-66,64C588,70 548,38 519,24C490,9 455,2 414,2l-27,0C314,2 244,35 177,102C110,169 76,237 76,307l0,355C76,733 109,802 176,868C243,934 313,967 387,967l27,0C457,967 493,959 522,944C551,929 590,897 639,850C640,853 642,854 643,854l70,55C759,946 805,965 852,965l25,0C926,965 977,940 1030,891l64,-60C1139,790 1161,730 1161,649l0,-203C1161,423 1153,404 1137,387C1120,370 1100,362 1077,362M555,313l0,340C555,682 545,706 526,725l-47,47C462,790 436,799 401,799C362,799 327,782 295,749C262,716 246,684 246,655l0,-340C246,285 256,260 276,240l50,-50C339,177 360,170 387,170l25,0C447,170 479,188 510,224C540,259 555,289 555,313M995,532l0,117C995,677 980,708 950,743C920,778 891,795 864,795C836,795 806,780 774,751C741,721 725,691 725,662l0,-130z"/>
<glyph unicode="&#x2013;" horiz-adv-x="1237" d="M842,752C865,752 886,744 903,728C920,711 928,691 928,668C928,645 920,625 903,609C886,592 865,584 842,584l-449,0C370,584 351,592 334,609C317,625 309,645 309,668C309,691 317,710 334,727C351,744 370,752 393,752z"/>
<glyph unicode="&#x2014;" horiz-adv-x="1237" d="M1151,752C1174,752 1195,744 1212,728C1229,711 1237,691 1237,668C1237,645 1229,625 1212,609C1195,592 1174,584 1151,584l-1067,0C61,584 42,592 25,609C8,625 0,645 0,668C0,691 8,710 25,727C42,744 61,752 84,752z"/>
<glyph unicode="&#x201C;" horiz-adv-x="1237" d="M907,893l86,0C1016,893 1036,885 1053,868C1069,851 1077,830 1077,807C1077,784 1069,765 1052,748C1035,731 1016,723 993,723l-170,0C800,723 780,732 764,749C747,766 739,786 739,809l0,436C739,1268 747,1288 764,1305C780,1321 800,1329 823,1329C846,1329 866,1321 883,1305C899,1288 907,1268 907,1245M397,893l86,0C506,893 526,885 543,868C559,851 567,830 567,807C567,784 559,765 542,748C525,731 506,723 483,723l-170,0C290,723 270,732 254,749C237,766 229,786 229,809l0,436C229,1268 237,1288 254,1305C270,1321 290,1329 313,1329C337,1329 357,1321 373,1305C389,1288 397,1268 397,1245z"/>
<glyph unicode="&#x201D;" horiz-adv-x="1237" d="M1008,807C1008,784 1000,764 984,748C967,731 947,723 924,723C900,723 880,731 864,748C848,764 840,784 840,807l0,352l-86,0C731,1159 711,1168 695,1185C678,1202 670,1222 670,1245C670,1268 678,1287 695,1304C712,1321 731,1329 754,1329l170,0C947,1329 967,1321 984,1304C1000,1287 1008,1267 1008,1243M498,807C498,784 490,764 474,748C457,731 437,723 414,723C391,723 371,731 355,748C338,764 330,784 330,807l0,352l-86,0C221,1159 201,1168 185,1185C168,1202 160,1222 160,1245C160,1268 168,1287 185,1304C202,1321 221,1329 244,1329l170,0C437,1329 457,1321 474,1304C490,1287 498,1267 498,1243z"/>
<glyph unicode="&#x2018;" horiz-adv-x="1237" d="M522,893l256,0C801,893 821,885 838,868C854,851 862,830 862,807C862,784 854,765 837,748C820,731 801,723 778,723l-340,0C415,723 395,732 379,749C362,766 354,786 354,809l0,436C354,1268 362,1288 379,1305C395,1321 415,1329 438,1329C461,1329 481,1321 498,1305C514,1288 522,1268 522,1245z"/>
<glyph unicode="&#x2019;" horiz-adv-x="1237" d="M883,807C883,784 875,764 859,748C842,731 822,723 799,723C776,723 756,731 740,748C723,764 715,784 715,807l0,352l-256,0C436,1159 416,1168 400,1185C383,1202 375,1222 375,1245C375,1268 383,1287 400,1304C417,1321 436,1329 459,1329l340,0C822,1329 842,1321 859,1304C875,1287 883,1267 883,1243z"/>
<glyph unicode="&#xF7;" horiz-adv-x="1237" d="M618,1092C641,1092 661,1084 678,1067C694,1050 702,1029 702,1006C702,983 694,964 677,947C660,930 641,922 618,922C596,922 577,930 560,947C543,964 535,983 535,1006C535,1029 543,1050 560,1067C576,1084 595,1092 618,1092M961,752C984,752 1005,744 1022,728C1039,711 1047,691 1047,668C1047,645 1039,625 1022,609C1005,592 984,584 961,584l-685,0C253,584 234,592 218,609C201,625 193,645 193,668C193,691 201,710 218,727C234,744 253,752 276,752M618,414C641,414 661,406 678,389C694,372 702,351 702,328C702,305 694,286 677,269C660,252 641,244 618,244C596,244 577,252 560,269C543,286 535,305 535,328C535,351 543,372 560,389C576,406 595,414 618,414z"/>
<glyph unicode="&#x25CA;" horiz-adv-x="1237" d="M1059,666l-359,-605C675,20 648,0 618,0C587,0 559,20 535,61l-359,603l359,604C559,1309 587,1329 618,1329C649,1329 676,1309 700,1268M864,664l-246,409l-245,-407l245,-410z"/>
<glyph unicode="&#xFF;" horiz-adv-x="1237" d="M1055,719l-453,-1024C587,-342 560,-360 522,-360l-233,0C266,-360 246,-352 230,-336C213,-320 205,-300 205,-276C205,-253 213,-233 230,-217C246,-201 266,-193 289,-193l180,0l115,267l-41,0C505,74 478,94 461,133l-252,586l0,162C209,904 217,924 233,941C249,957 268,965 291,965C314,965 335,957 352,941C369,924 377,904 377,881l0,-125l221,-512l59,0l228,510l0,129C885,905 894,925 911,942C928,959 948,967 971,967C994,967 1013,959 1030,942C1047,925 1055,906 1055,883M1049,1102C1049,1079 1041,1059 1025,1043C1008,1026 988,1018 965,1018C941,1018 921,1026 905,1043C889,1059 881,1079 881,1102l0,143C881,1269 889,1289 906,1306C922,1323 942,1331 965,1331C988,1331 1007,1323 1024,1306C1041,1289 1049,1269 1049,1245M371,1102C371,1079 363,1059 347,1043C330,1026 310,1018 287,1018C264,1018 244,1026 228,1043C211,1059 203,1079 203,1102l0,143C203,1268 211,1288 228,1305C244,1321 264,1329 287,1329C310,1329 330,1321 347,1305C363,1288 371,1268 371,1245z"/>
<glyph unicode="&#x178;" horiz-adv-x="1237" d="M717,637l0,-553C717,61 709,41 692,25C675,8 656,0 633,0C609,0 589,8 572,25C555,41 547,61 547,84l0,553l-338,428l0,178C209,1267 217,1287 234,1304C250,1321 270,1329 293,1329C316,1329 337,1321 354,1304C371,1287 379,1266 379,1243l0,-115l252,-325l256,323l0,117C887,1266 895,1287 912,1304C929,1321 948,1329 971,1329C993,1329 1013,1321 1030,1306C1047,1290 1055,1269 1055,1243l0,-176M1049,1466C1049,1443 1041,1423 1025,1407C1008,1390 988,1382 965,1382C941,1382 921,1390 905,1407C889,1423 881,1443 881,1466l0,143C881,1633 889,1653 906,1670C922,1687 942,1695 965,1695C988,1695 1007,1687 1024,1670C1041,1653 1049,1633 1049,1609M371,1466C371,1443 363,1423 347,1407C330,1390 310,1382 287,1382C264,1382 244,1390 228,1407C211,1423 203,1443 203,1466l0,143C203,1632 211,1652 228,1669C244,1685 264,1693 287,1693C310,1693 330,1685 347,1669C363,1652 371,1632 371,1609z"/>
<glyph unicode="&#x2215;" horiz-adv-x="1237" d="M1238,1192l-1090,-1157C133,18 115,10 96,10C76,10 58,18 43,34C28,49 20,67 20,86C20,105 27,122 41,137l1090,1157C1146,1311 1164,1319 1183,1319C1203,1319 1221,1311 1236,1296C1251,1281 1259,1263 1259,1243C1259,1224 1252,1207 1238,1192z"/>
<glyph unicode="&#x20AC;" horiz-adv-x="1237" d="M453,439C519,304 556,229 565,214C573,199 584,188 599,181C614,174 639,171 676,171l280,0C981,171 1001,164 1018,149C1034,134 1042,113 1042,85C1042,58 1034,38 1017,23C1000,8 980,0 956,0l-301,0C592,0 541,13 501,39C461,64 428,103 401,156l-141,283l-85,0C148,439 127,447 112,462C96,477 88,498 88,525C88,552 96,573 112,588C127,603 148,611 175,611l22,0C194,633 193,650 193,663C193,681 194,702 197,726l-22,0C148,726 127,734 112,749C96,764 88,785 88,812C88,839 96,860 112,875C127,890 148,898 175,898l89,0l140,281C419,1210 438,1238 461,1263C484,1287 511,1305 544,1317C576,1329 616,1335 665,1335l291,0C981,1335 1001,1328 1018,1313C1034,1298 1042,1277 1042,1250C1042,1223 1034,1202 1017,1187C1000,1172 980,1164 956,1164l-286,0C619,1164 589,1156 578,1139C567,1122 525,1041 453,898l415,0C895,898 917,890 932,875C947,860 955,839 955,812C955,785 947,764 932,749C917,734 895,726 868,726l-494,0C368,705 365,684 365,663C365,648 367,631 372,611l450,0C849,611 870,603 885,588C900,573 908,552 908,525C908,498 900,477 885,462C870,447 849,439 822,439z"/>
<glyph unicode="&#x2039;" horiz-adv-x="1237" d="M764,305C769,293 772,281 772,269C772,245 763,225 746,210C728,194 708,186 686,186C650,186 625,202 610,233l-141,306C464,552 461,564 461,575C461,588 464,601 469,612l141,306C626,949 651,965 686,965C708,965 728,957 746,942C763,926 772,906 772,882C772,870 769,858 764,846l-125,-271z"/>
<glyph unicode="&#x203A;" horiz-adv-x="1237" d="M604,575l-125,271C474,857 471,869 471,882C471,906 480,926 498,942C515,957 535,965 557,965C593,965 618,949 633,918l141,-306C779,599 782,586 782,575C782,562 779,550 774,539l-141,-306C617,202 592,186 557,186C535,186 515,194 498,210C480,225 471,245 471,269C471,281 474,293 479,305z"/>
<glyph unicode="&#xF001;" horiz-adv-x="1237" d="M1053,84C1053,61 1045,41 1028,25C1011,8 992,0 969,0C945,0 925,8 908,25C891,41 883,61 883,84l0,713l-508,0l0,-713C375,61 367,41 350,25C333,8 314,0 291,0C267,0 247,8 230,25C213,41 205,61 205,84l0,713l-86,0C96,797 76,805 60,822C43,839 35,858 35,881C35,903 43,923 58,940C73,957 93,965 119,965l88,0l0,65C207,1116 237,1187 296,1244C355,1301 428,1329 516,1329l197,0C736,1329 756,1321 773,1304C789,1287 797,1267 797,1243C797,1220 789,1201 772,1184C755,1167 736,1159 713,1159l-197,0C476,1159 443,1147 417,1123C390,1099 377,1068 377,1030l0,-65l592,0C992,965 1012,957 1029,940C1045,923 1053,902 1053,879z"/>
<glyph unicode="&#xF002;" horiz-adv-x="1237" d="M1053,84C1053,61 1045,41 1028,25C1011,8 992,0 969,0C945,0 925,8 908,25C891,41 883,61 883,84l0,1075l-367,0C476,1159 443,1147 417,1123C390,1099 377,1068 377,1030l0,-65l168,0C568,966 587,958 604,941C621,924 629,904 629,881C629,858 621,839 604,822C587,805 568,797 545,797l-170,0l0,-713C375,61 367,41 350,25C333,8 314,0 291,0C267,0 247,8 230,25C213,41 205,61 205,84l0,713l-86,0C96,797 76,805 60,822C43,839 35,858 35,881C35,903 43,923 58,940C73,957 93,965 119,965l88,0l0,65C207,1116 237,1187 296,1244C355,1301 428,1329 516,1329l453,0C992,1329 1011,1321 1028,1304C1045,1287 1053,1268 1053,1245z"/>
<glyph unicode="&#x2021;" horiz-adv-x="1237" d="M705,508l256,0C984,508 1005,500 1022,484C1039,467 1047,447 1047,424C1047,401 1039,381 1022,365C1005,348 984,340 961,340l-256,0l0,-258C705,59 697,40 680,24C663,8 644,0 621,0C597,0 577,8 560,24C543,39 535,59 535,82l0,258l-259,0C253,340 234,348 218,365C201,381 193,401 193,424C193,447 201,467 218,484C234,500 253,508 276,508l259,0l0,313l-259,0C253,821 234,829 218,846C201,863 193,882 193,905C193,928 201,948 218,965C234,981 253,989 276,989l259,0l0,258C535,1270 543,1290 560,1306C577,1321 597,1329 621,1329C644,1329 663,1321 680,1306C697,1290 705,1270 705,1247l0,-258l256,0C984,989 1005,981 1022,965C1039,948 1047,928 1047,905C1047,882 1039,862 1022,846C1005,829 984,821 961,821l-256,0z"/>
<glyph unicode="&#x2219;" horiz-adv-x="1237" d="M797,737C797,714 789,694 773,677C756,660 736,651 713,651l-172,0C518,651 498,659 482,676C465,693 457,712 457,735l0,146C457,904 465,924 482,941C499,957 519,965 543,965l170,0C736,965 755,957 772,940C789,923 797,904 797,881z"/>
<glyph unicode="&#x201A;" horiz-adv-x="1237" d="M883,86C883,63 875,43 859,27C842,10 822,2 799,2C776,2 756,10 740,27C723,43 715,63 715,86l0,352l-256,0C436,438 416,447 400,464C383,481 375,501 375,524C375,547 383,566 400,583C417,600 436,608 459,608l340,0C822,608 842,600 859,583C875,566 883,546 883,522z"/>
<glyph unicode="&#x201E;" horiz-adv-x="1237" d="M1008,86C1008,63 1000,43 984,27C967,10 947,2 924,2C900,2 880,10 864,27C848,43 840,63 840,86l0,352l-86,0C731,438 711,447 695,464C678,481 670,501 670,524C670,547 678,566 695,583C712,600 731,608 754,608l170,0C947,608 967,600 984,583C1000,566 1008,546 1008,522M498,86C498,63 490,43 474,27C457,10 437,2 414,2C391,2 371,10 355,27C338,43 330,63 330,86l0,352l-86,0C221,438 201,447 185,464C168,481 160,501 160,524C160,547 168,566 185,583C202,600 221,608 244,608l170,0C437,608 457,600 474,583C490,566 498,546 498,522z"/>
<glyph unicode="&#x2030;" horiz-adv-x="1237" d="M1028,1184l-680,-764C334,403 316,395 293,395C271,395 251,403 233,420C214,436 205,455 205,478C205,501 212,522 227,539l680,766C921,1322 940,1330 965,1330C988,1330 1009,1322 1026,1307C1043,1291 1051,1271 1051,1248C1051,1223 1043,1201 1028,1184M543,1098C543,1075 535,1055 518,1038C501,1021 482,1012 459,1012l-174,0C262,1012 243,1020 227,1037C211,1054 203,1073 203,1096l0,147C203,1266 211,1287 228,1304C245,1321 264,1329 287,1329l170,0C480,1329 501,1321 518,1304C535,1287 543,1266 543,1243M1049,84C1049,61 1041,41 1025,25C1008,8 988,0 965,0l-172,0C770,0 750,8 735,24C719,40 711,60 711,84l0,147C711,255 719,275 735,291C751,307 771,315 795,315l170,0C988,315 1008,307 1025,291C1041,275 1049,255 1049,231M541,84C541,61 533,41 517,25C500,8 480,0 457,0l-172,0C262,0 242,8 227,24C211,40 203,60 203,84l0,147C203,255 211,275 228,291C244,307 264,315 287,315l170,0C480,315 500,307 517,291C533,275 541,255 541,231z"/>
<glyph unicode="&#xC2;" horiz-adv-x="1237" d="M212,117l340,1149C565,1308 593,1329 636,1329C677,1329 703,1311 714,1276l335,-1167C1052,100 1053,92 1053,84C1053,61 1045,41 1029,25C1013,8 995,0 974,0C930,0 902,20 890,61l-68,228l-383,0l-74,-244C363,34 355,24 340,15C325,5 309,0 292,0C267,0 247,8 231,25C215,42 207,62 207,86C207,96 209,106 212,117M634,940l-144,-481l283,0M623,1515l-270,-125C342,1385 330,1382 317,1382C293,1382 273,1391 258,1409C242,1426 234,1446 234,1468C234,1504 250,1529 281,1544l306,141C600,1690 612,1693 623,1693C636,1693 649,1690 660,1685l306,-141C997,1528 1013,1503 1013,1468C1013,1446 1005,1426 990,1409C974,1391 954,1382 930,1382C918,1382 906,1385 894,1390z"/>
<glyph unicode="&#xCA;" horiz-adv-x="1237" d="M969,1159l-594,0l0,-409l256,0C654,750 673,742 690,725C707,708 715,689 715,666C715,642 707,622 691,605C674,588 654,580 631,580l-256,0l0,-412l596,0C994,168 1013,160 1030,144C1047,127 1055,107 1055,84C1055,61 1047,41 1030,25C1013,8 992,0 969,0l-762,0l0,1329l762,0C992,1329 1013,1321 1030,1304C1047,1287 1055,1266 1055,1243C1055,1220 1047,1201 1030,1184C1013,1167 992,1159 969,1159M618,1515l-270,-125C337,1385 325,1382 312,1382C288,1382 268,1391 253,1409C237,1426 229,1446 229,1468C229,1504 245,1529 276,1544l306,141C595,1690 607,1693 618,1693C631,1693 644,1690 655,1685l306,-141C992,1528 1008,1503 1008,1468C1008,1446 1000,1426 985,1409C969,1391 949,1382 925,1382C913,1382 901,1385 889,1390z"/>
<glyph unicode="&#xC1;" horiz-adv-x="1237" d="M212,117l340,1149C565,1308 593,1329 636,1329C677,1329 703,1311 714,1276l335,-1167C1052,100 1053,92 1053,84C1053,61 1045,41 1029,25C1013,8 995,0 974,0C930,0 902,20 890,61l-68,228l-383,0l-74,-244C363,34 355,24 340,15C325,5 309,0 292,0C267,0 247,8 231,25C215,42 207,62 207,86C207,96 209,106 212,117M634,940l-144,-481l283,0M740,1685C752,1690 764,1693 777,1693C801,1693 821,1684 836,1667C851,1649 859,1629 859,1607C859,1571 843,1546 812,1531l-305,-141C495,1385 483,1382 470,1382C446,1382 426,1391 411,1409C396,1426 388,1446 388,1468C388,1504 404,1529 435,1544z"/>
<glyph unicode="&#xCB;" horiz-adv-x="1237" d="M969,1159l-594,0l0,-409l256,0C654,750 673,742 690,725C707,708 715,689 715,666C715,642 707,622 691,605C674,588 654,580 631,580l-256,0l0,-412l596,0C994,168 1013,160 1030,144C1047,127 1055,107 1055,84C1055,61 1047,41 1030,25C1013,8 992,0 969,0l-762,0l0,1329l762,0C992,1329 1013,1321 1030,1304C1047,1287 1055,1266 1055,1243C1055,1220 1047,1201 1030,1184C1013,1167 992,1159 969,1159M1049,1466C1049,1443 1041,1423 1025,1407C1008,1390 988,1382 965,1382C941,1382 921,1390 905,1407C889,1423 881,1443 881,1466l0,143C881,1633 889,1653 906,1670C922,1687 942,1695 965,1695C988,1695 1007,1687 1024,1670C1041,1653 1049,1633 1049,1609M371,1466C371,1443 363,1423 347,1407C330,1390 310,1382 287,1382C264,1382 244,1390 228,1407C211,1423 203,1443 203,1466l0,143C203,1632 211,1652 228,1669C244,1685 264,1693 287,1693C310,1693 330,1685 347,1669C363,1652 371,1632 371,1609z"/>
<glyph unicode="&#xC8;" horiz-adv-x="1237" d="M969,1159l-594,0l0,-409l256,0C654,750 673,742 690,725C707,708 715,689 715,666C715,642 707,622 691,605C674,588 654,580 631,580l-256,0l0,-412l596,0C994,168 1013,160 1030,144C1047,127 1055,107 1055,84C1055,61 1047,41 1030,25C1013,8 992,0 969,0l-762,0l0,1329l762,0C992,1329 1013,1321 1030,1304C1047,1287 1055,1266 1055,1243C1055,1220 1047,1201 1030,1184C1013,1167 992,1159 969,1159M807,1544C838,1528 854,1503 854,1468C854,1446 846,1426 831,1409C816,1391 796,1382 772,1382C759,1382 747,1385 735,1390l-305,141C399,1547 383,1572 383,1607C383,1629 391,1649 406,1667C421,1684 441,1693 465,1693C478,1693 490,1690 502,1685z"/>
<glyph unicode="&#xCD;" horiz-adv-x="1237" d="M289,1329l680,0C991,1329 1011,1321 1028,1304C1045,1287 1053,1268 1053,1245C1053,1222 1045,1202 1028,1185C1011,1168 992,1159 969,1159l-254,0l0,-991l254,0C992,168 1012,160 1029,144C1045,127 1053,107 1053,84C1053,61 1045,41 1028,25C1011,8 992,0 969,0l-680,0C266,0 246,8 230,25C213,41 205,61 205,84C205,107 213,127 230,144C246,160 266,168 289,168l258,0l0,991l-258,0C266,1159 246,1167 230,1184C213,1201 205,1220 205,1243C205,1267 213,1287 230,1304C246,1321 266,1329 289,1329M735,1685C747,1690 759,1693 772,1693C796,1693 816,1684 831,1667C846,1649 854,1629 854,1607C854,1571 838,1546 807,1531l-305,-141C490,1385 478,1382 465,1382C441,1382 421,1391 406,1409C391,1426 383,1446 383,1468C383,1504 399,1529 430,1544z"/>
<glyph unicode="&#xCE;" horiz-adv-x="1237" d="M289,1329l680,0C991,1329 1011,1321 1028,1304C1045,1287 1053,1268 1053,1245C1053,1222 1045,1202 1028,1185C1011,1168 992,1159 969,1159l-254,0l0,-991l254,0C992,168 1012,160 1029,144C1045,127 1053,107 1053,84C1053,61 1045,41 1028,25C1011,8 992,0 969,0l-680,0C266,0 246,8 230,25C213,41 205,61 205,84C205,107 213,127 230,144C246,160 266,168 289,168l258,0l0,991l-258,0C266,1159 246,1167 230,1184C213,1201 205,1220 205,1243C205,1267 213,1287 230,1304C246,1321 266,1329 289,1329M618,1515l-270,-125C337,1385 325,1382 312,1382C288,1382 268,1391 253,1409C237,1426 229,1446 229,1468C229,1504 245,1529 276,1544l306,141C595,1690 607,1693 618,1693C631,1693 644,1690 655,1685l306,-141C992,1528 1008,1503 1008,1468C1008,1446 1000,1426 985,1409C969,1391 949,1382 925,1382C913,1382 901,1385 889,1390z"/>
<glyph unicode="&#xCF;" horiz-adv-x="1237" d="M289,1329l680,0C991,1329 1011,1321 1028,1304C1045,1287 1053,1268 1053,1245C1053,1222 1045,1202 1028,1185C1011,1168 992,1159 969,1159l-254,0l0,-991l254,0C992,168 1012,160 1029,144C1045,127 1053,107 1053,84C1053,61 1045,41 1028,25C1011,8 992,0 969,0l-680,0C266,0 246,8 230,25C213,41 205,61 205,84C205,107 213,127 230,144C246,160 266,168 289,168l258,0l0,991l-258,0C266,1159 246,1167 230,1184C213,1201 205,1220 205,1243C205,1267 213,1287 230,1304C246,1321 266,1329 289,1329M1049,1466C1049,1443 1041,1423 1025,1407C1008,1390 988,1382 965,1382C941,1382 921,1390 905,1407C889,1423 881,1443 881,1466l0,143C881,1633 889,1653 906,1670C922,1687 942,1695 965,1695C988,1695 1007,1687 1024,1670C1041,1653 1049,1633 1049,1609M371,1466C371,1443 363,1423 347,1407C330,1390 310,1382 287,1382C264,1382 244,1390 228,1407C211,1423 203,1443 203,1466l0,143C203,1632 211,1652 228,1669C244,1685 264,1693 287,1693C310,1693 330,1685 347,1669C363,1652 371,1632 371,1609z"/>
<glyph unicode="&#xCC;" horiz-adv-x="1237" d="M289,1329l680,0C991,1329 1011,1321 1028,1304C1045,1287 1053,1268 1053,1245C1053,1222 1045,1202 1028,1185C1011,1168 992,1159 969,1159l-254,0l0,-991l254,0C992,168 1012,160 1029,144C1045,127 1053,107 1053,84C1053,61 1045,41 1028,25C1011,8 992,0 969,0l-680,0C266,0 246,8 230,25C213,41 205,61 205,84C205,107 213,127 230,144C246,160 266,168 289,168l258,0l0,991l-258,0C266,1159 246,1167 230,1184C213,1201 205,1220 205,1243C205,1267 213,1287 230,1304C246,1321 266,1329 289,1329M807,1544C838,1528 854,1503 854,1468C854,1446 846,1426 831,1409C816,1391 796,1382 772,1382C759,1382 747,1385 735,1390l-305,141C399,1547 383,1572 383,1607C383,1629 391,1649 406,1667C421,1684 441,1693 465,1693C478,1693 490,1690 502,1685z"/>
<glyph unicode="&#xD3;" horiz-adv-x="1237" d="M829,1206l185,-377C1040,778 1053,722 1053,662C1053,603 1040,548 1014,496l-185,-373C790,41 723,0 629,0C584,0 544,12 509,35C473,58 446,88 428,123l-186,373C217,545 205,600 205,662C205,724 217,780 242,829l186,377C470,1288 537,1329 629,1329C722,1329 789,1288 829,1206M573,1122l-174,-354C383,733 375,698 375,664C375,627 383,592 399,559l179,-358C587,179 604,168 629,168C650,168 667,179 678,201l180,358C875,594 883,629 883,664C883,701 875,735 858,768l-176,354C671,1148 653,1161 629,1161C605,1161 586,1148 573,1122M735,1685C747,1690 759,1693 772,1693C796,1693 816,1684 831,1667C846,1649 854,1629 854,1607C854,1571 838,1546 807,1531l-305,-141C490,1385 478,1382 465,1382C441,1382 421,1391 406,1409C391,1426 383,1446 383,1468C383,1504 399,1529 430,1544z"/>
<glyph unicode="&#xD4;" horiz-adv-x="1237" d="M829,1206l185,-377C1040,778 1053,722 1053,662C1053,603 1040,548 1014,496l-185,-373C790,41 723,0 629,0C584,0 544,12 509,35C473,58 446,88 428,123l-186,373C217,545 205,600 205,662C205,724 217,780 242,829l186,377C470,1288 537,1329 629,1329C722,1329 789,1288 829,1206M573,1122l-174,-354C383,733 375,698 375,664C375,627 383,592 399,559l179,-358C587,179 604,168 629,168C650,168 667,179 678,201l180,358C875,594 883,629 883,664C883,701 875,735 858,768l-176,354C671,1148 653,1161 629,1161C605,1161 586,1148 573,1122M618,1515l-270,-125C337,1385 325,1382 312,1382C288,1382 268,1391 253,1409C237,1426 229,1446 229,1468C229,1504 245,1529 276,1544l306,141C595,1690 607,1693 618,1693C631,1693 644,1690 655,1685l306,-141C992,1528 1008,1503 1008,1468C1008,1446 1000,1426 985,1409C969,1391 949,1382 925,1382C913,1382 901,1385 889,1390z"/>
<glyph unicode="&#xF000;" horiz-adv-x="1237" d="M961,502C961,455 944,415 911,381C877,347 838,330 793,330l-349,0C400,330 362,347 330,380C297,413 281,453 281,498l0,295C281,839 298,879 331,914C364,948 404,965 449,965l339,0C835,965 876,948 910,914C944,880 961,840 961,793z"/>
<glyph unicode="&#xD2;" horiz-adv-x="1237" d="M829,1206l185,-377C1040,778 1053,722 1053,662C1053,603 1040,548 1014,496l-185,-373C790,41 723,0 629,0C584,0 544,12 509,35C473,58 446,88 428,123l-186,373C217,545 205,600 205,662C205,724 217,780 242,829l186,377C470,1288 537,1329 629,1329C722,1329 789,1288 829,1206M573,1122l-174,-354C383,733 375,698 375,664C375,627 383,592 399,559l179,-358C587,179 604,168 629,168C650,168 667,179 678,201l180,358C875,594 883,629 883,664C883,701 875,735 858,768l-176,354C671,1148 653,1161 629,1161C605,1161 586,1148 573,1122M807,1544C838,1528 854,1503 854,1468C854,1446 846,1426 831,1409C816,1391 796,1382 772,1382C759,1382 747,1385 735,1390l-305,141C399,1547 383,1572 383,1607C383,1629 391,1649 406,1667C421,1684 441,1693 465,1693C478,1693 490,1690 502,1685z"/>
<glyph unicode="&#xDA;" horiz-adv-x="1237" d="M205,252l0,991C205,1266 213,1287 230,1304C247,1321 266,1329 289,1329C312,1329 331,1321 348,1304C365,1287 373,1268 373,1245l0,-993C373,230 381,211 398,195C415,178 434,170 457,170l344,0C824,170 844,178 861,194C877,210 885,229 885,252l0,991C885,1267 893,1287 910,1304C926,1321 946,1329 969,1329C992,1329 1012,1321 1029,1304C1045,1287 1053,1267 1053,1243l0,-989C1053,185 1028,125 979,75C929,25 870,0 801,0l-344,0C388,0 328,25 279,74C230,123 205,183 205,252M735,1685C747,1690 759,1693 772,1693C796,1693 816,1684 831,1667C846,1649 854,1629 854,1607C854,1571 838,1546 807,1531l-305,-141C490,1385 478,1382 465,1382C441,1382 421,1391 406,1409C391,1426 383,1446 383,1468C383,1504 399,1529 430,1544z"/>
<glyph unicode="&#xDB;" horiz-adv-x="1237" d="M205,252l0,991C205,1266 213,1287 230,1304C247,1321 266,1329 289,1329C312,1329 331,1321 348,1304C365,1287 373,1268 373,1245l0,-993C373,230 381,211 398,195C415,178 434,170 457,170l344,0C824,170 844,178 861,194C877,210 885,229 885,252l0,991C885,1267 893,1287 910,1304C926,1321 946,1329 969,1329C992,1329 1012,1321 1029,1304C1045,1287 1053,1267 1053,1243l0,-989C1053,185 1028,125 979,75C929,25 870,0 801,0l-344,0C388,0 328,25 279,74C230,123 205,183 205,252M618,1515l-270,-125C337,1385 325,1382 312,1382C288,1382 268,1391 253,1409C237,1426 229,1446 229,1468C229,1504 245,1529 276,1544l306,141C595,1690 607,1693 618,1693C631,1693 644,1690 655,1685l306,-141C992,1528 1008,1503 1008,1468C1008,1446 1000,1426 985,1409C969,1391 949,1382 925,1382C913,1382 901,1385 889,1390z"/>
<glyph unicode="&#xD9;" horiz-adv-x="1237" d="M205,252l0,991C205,1266 213,1287 230,1304C247,1321 266,1329 289,1329C312,1329 331,1321 348,1304C365,1287 373,1268 373,1245l0,-993C373,230 381,211 398,195C415,178 434,170 457,170l344,0C824,170 844,178 861,194C877,210 885,229 885,252l0,991C885,1267 893,1287 910,1304C926,1321 946,1329 969,1329C992,1329 1012,1321 1029,1304C1045,1287 1053,1267 1053,1243l0,-989C1053,185 1028,125 979,75C929,25 870,0 801,0l-344,0C388,0 328,25 279,74C230,123 205,183 205,252M807,1544C838,1528 854,1503 854,1468C854,1446 846,1426 831,1409C816,1391 796,1382 772,1382C759,1382 747,1385 735,1390l-305,141C399,1547 383,1572 383,1607C383,1629 391,1649 406,1667C421,1684 441,1693 465,1693C478,1693 490,1690 502,1685z"/>
<glyph unicode="&#x131;" horiz-adv-x="1237" d="M715,170l168,0C906,170 927,162 944,146C961,129 969,109 969,86C969,63 961,43 944,27C927,10 908,2 885,2l-512,0C350,2 330,10 314,27C297,43 289,63 289,86C289,109 297,128 314,145C330,162 350,170 373,170l172,0l0,627l-170,0C352,797 332,805 316,822C299,839 291,858 291,881C291,904 299,925 316,942C332,959 352,967 375,967l256,0C654,967 674,959 691,942C707,925 715,904 715,881z"/>
<glyph unicode="&#x2C6;" horiz-adv-x="1237" d="M627,1151l-270,-125C346,1021 334,1018 321,1018C297,1018 277,1027 262,1045C246,1062 238,1082 238,1104C238,1140 254,1165 285,1180l306,141C604,1326 616,1329 627,1329C640,1329 653,1326 664,1321l306,-141C1001,1164 1017,1139 1017,1104C1017,1082 1009,1062 994,1045C978,1027 958,1018 934,1018C922,1018 910,1021 898,1026z"/>
<glyph unicode="&#x2DC;" horiz-adv-x="1237" d="M1061,1171l-152,-92C890,1070 875,1065 864,1065l-53,0C806,1065 797,1067 784,1071l-256,86l-24,0l-127,-78C362,1070 346,1065 330,1065C307,1065 288,1074 271,1092C254,1110 246,1131 246,1154C246,1183 260,1206 287,1223l151,92C451,1323 466,1327 483,1327l54,0C546,1327 555,1326 563,1323l262,-88l15,0l131,80C986,1324 1002,1329 1017,1329C1040,1329 1060,1320 1077,1302C1094,1284 1102,1263 1102,1240C1102,1211 1088,1188 1061,1171z"/>
<glyph unicode="&#x2C9;" horiz-adv-x="1237" d="M889,1329C912,1329 933,1321 950,1305C967,1288 975,1268 975,1245C975,1222 967,1202 950,1186C933,1169 912,1161 889,1161l-520,0C346,1161 327,1169 310,1186C293,1203 285,1222 285,1245C285,1268 293,1288 310,1305C327,1321 346,1329 369,1329z"/>
<glyph unicode="&#x2D8;" horiz-adv-x="1237" d="M922,1329C945,1329 966,1322 983,1308C1000,1293 1008,1276 1008,1257C1008,1212 968,1161 887,1104C806,1047 717,1018 618,1018C520,1018 431,1047 350,1104C269,1161 229,1212 229,1257C229,1276 238,1293 255,1308C272,1322 292,1329 315,1329C342,1329 364,1321 381,1305C454,1227 533,1188 618,1188C704,1188 783,1227 856,1305C873,1321 895,1329 922,1329z"/>
<glyph unicode="&#x2D9;" horiz-adv-x="1237" d="M702,1102C702,1079 694,1059 678,1043C662,1026 642,1018 618,1018C595,1018 575,1026 559,1043C543,1059 535,1079 535,1102l0,143C535,1268 543,1288 559,1305C575,1321 595,1329 618,1329C642,1329 662,1321 678,1305C694,1288 702,1268 702,1245z"/>
<glyph unicode="&#x2DA;" horiz-adv-x="1237" d="M811,1165C811,1128 793,1093 758,1061C722,1028 685,1012 647,1012l-57,0C552,1012 516,1028 481,1060C446,1092 428,1127 428,1165l0,74C428,1277 445,1312 480,1345C514,1377 551,1393 590,1393l57,0C686,1393 723,1377 758,1344C793,1311 811,1276 811,1239M700,1178l0,49C700,1240 692,1252 676,1264C659,1276 648,1282 641,1282l-37,0C591,1282 577,1276 562,1263C547,1250 539,1238 539,1229l0,-51C539,1165 543,1155 551,1149l24,-19C581,1125 589,1122 598,1122l43,0C653,1122 669,1132 688,1153C696,1156 700,1164 700,1178z"/>
<glyph unicode="&#xB8;" horiz-adv-x="1237" d="M883,-274C883,-298 875,-318 859,-335C842,-352 822,-360 799,-360l-340,0C436,-360 417,-352 400,-335C383,-318 375,-299 375,-276C375,-253 383,-232 400,-215C416,-198 436,-190 459,-190l256,0l0,190l168,0z"/>
<glyph unicode="&#x2DD;" horiz-adv-x="1237" d="M946,1188l-148,-148C782,1024 762,1016 739,1016C716,1016 696,1024 680,1041C663,1057 655,1077 655,1100C655,1123 663,1143 679,1159l148,148C843,1323 863,1331 886,1331C909,1331 929,1323 946,1307C962,1290 970,1270 970,1247C970,1224 962,1204 946,1188M606,1188l-148,-148C442,1024 422,1016 399,1016C376,1016 356,1024 340,1041C323,1057 315,1077 315,1100C315,1123 323,1143 339,1159l148,148C503,1323 523,1331 546,1331C569,1331 589,1323 606,1307C622,1290 630,1270 630,1247C630,1224 622,1204 606,1188z"/>
<glyph unicode="&#x2DB;" horiz-adv-x="1237" d="M522,-190l256,0C801,-190 821,-198 838,-215C854,-232 862,-253 862,-276C862,-299 854,-318 837,-335C820,-352 801,-360 778,-360l-340,0C415,-360 395,-352 379,-335C362,-318 354,-298 354,-274l0,274l168,0z"/>
<glyph unicode="&#x2C7;" horiz-adv-x="1237" d="M627,1196l271,125C909,1326 921,1329 934,1329C958,1329 978,1320 994,1303C1009,1285 1017,1265 1017,1243C1017,1207 1001,1182 970,1167l-306,-141C651,1021 638,1018 627,1018C614,1018 602,1021 591,1026l-306,141C254,1183 238,1208 238,1243C238,1265 246,1285 262,1303C277,1320 297,1329 321,1329C333,1329 345,1326 357,1321z"/>
<glyph unicode="&#x141;" horiz-adv-x="1237" d="M400,168l594,0C1017,168 1038,160 1055,144C1072,127 1080,107 1080,84C1080,61 1072,41 1055,25C1038,8 1017,0 994,0l-762,0l0,295l-64,-64C152,215 132,207 109,207C86,207 66,215 50,232C33,248 25,268 25,291C25,314 33,334 50,350l182,182l0,713C232,1268 240,1287 257,1304C274,1321 293,1329 316,1329C339,1329 358,1321 375,1304C392,1287 400,1268 400,1245l0,-545l239,240C656,957 676,965 699,965C722,965 741,957 758,940C775,923 783,904 783,881C783,858 775,838 758,821l-358,-358z"/>
<glyph unicode="&#x142;" horiz-adv-x="1237" d="M715,170l170,0C908,170 927,162 944,145C961,128 969,109 969,86C969,63 961,43 945,26C928,9 908,0 885,0l-508,0C354,0 334,9 318,26C301,43 293,63 293,86C293,109 301,128 318,145C334,162 354,170 377,170l168,0l0,303l-109,-108C420,348 400,340 377,340C354,340 334,348 318,365C301,381 293,401 293,424C293,447 301,467 317,483l228,228l0,450l-170,0C352,1161 332,1169 316,1186C299,1202 291,1222 291,1245C291,1268 299,1288 316,1305C332,1321 352,1329 375,1329l256,0C654,1329 673,1321 690,1304C707,1287 715,1268 715,1245l0,-364l110,110C842,1008 862,1016 885,1016C908,1016 927,1008 944,991C961,974 969,955 969,932C969,909 961,889 944,872l-229,-229z"/>
<glyph unicode="&#x160;" horiz-adv-x="1237" d="M397,1329l437,0C887,1329 938,1307 986,1262C1033,1217 1057,1162 1057,1098C1057,1074 1049,1054 1032,1037C1015,1020 996,1012 975,1012C946,1012 927,1019 916,1032C905,1045 895,1069 886,1104C876,1139 854,1157 821,1157l-415,0C386,1157 376,1151 376,1138C376,1130 380,1121 389,1110l623,-797C1042,274 1057,233 1057,189C1057,139 1039,95 1003,57C966,19 926,0 881,0l-453,0C368,0 316,23 272,69C227,114 205,164 205,219C205,282 234,313 293,313C316,313 335,305 351,289C367,272 375,253 375,231C375,213 381,198 394,186C406,174 421,168 440,168l418,0C876,168 885,175 885,189C885,196 881,204 872,215l-622,797C221,1050 206,1091 206,1136C206,1188 225,1233 262,1272C299,1310 344,1329 397,1329M618,1560l271,125C900,1690 912,1693 925,1693C949,1693 969,1684 985,1667C1000,1649 1008,1629 1008,1607C1008,1571 992,1546 961,1531l-306,-141C642,1385 629,1382 618,1382C605,1382 593,1385 582,1390l-306,141C245,1547 229,1572 229,1607C229,1629 237,1649 253,1667C268,1684 288,1693 312,1693C324,1693 336,1690 348,1685z"/>
<glyph unicode="&#x161;" horiz-adv-x="1237" d="M442,965l385,0C887,965 940,947 986,912C1032,876 1055,841 1055,807C1055,783 1047,763 1030,748C1013,733 994,725 973,725C946,725 922,737 900,761C878,785 855,797 831,797l-380,0C414,797 395,781 395,750C395,728 407,711 432,700l447,-198C924,482 962,450 991,406C1020,361 1034,312 1034,258C1034,186 1009,125 958,75C907,25 849,0 784,0l-340,0C385,0 331,18 281,53C230,88 205,123 205,156C205,178 213,198 230,215C246,232 267,240 293,240C314,240 337,228 362,204C386,180 421,168 467,168l313,0C805,168 825,178 842,197C859,216 867,237 867,262C867,300 848,327 811,344l-451,203C317,566 283,594 260,631C237,668 225,705 225,743C225,803 246,855 288,899C329,943 381,965 442,965M618,1196l271,125C900,1326 912,1329 925,1329C949,1329 969,1320 985,1303C1000,1285 1008,1265 1008,1243C1008,1207 992,1182 961,1167l-306,-141C642,1021 629,1018 618,1018C605,1018 593,1021 582,1026l-306,141C245,1183 229,1208 229,1243C229,1265 237,1285 253,1303C268,1320 288,1329 312,1329C324,1329 336,1326 348,1321z"/>
<glyph unicode="&#x17D;" horiz-adv-x="1237" d="M287,1329l766,0l0,-108l-617,-1053l533,0C992,168 1012,160 1029,144C1045,127 1053,107 1053,84C1053,61 1045,42 1028,25C1011,8 992,0 969,0l-764,0l0,111l616,1048l-534,0C264,1159 245,1168 229,1185C213,1202 205,1222 205,1245C205,1268 213,1287 229,1304C245,1321 264,1329 287,1329M618,1560l271,125C900,1690 912,1693 925,1693C949,1693 969,1684 985,1667C1000,1649 1008,1629 1008,1607C1008,1571 992,1546 961,1531l-306,-141C642,1385 629,1382 618,1382C605,1382 593,1385 582,1390l-306,141C245,1547 229,1572 229,1607C229,1629 237,1649 253,1667C268,1684 288,1693 312,1693C324,1693 336,1690 348,1685z"/>
<glyph unicode="&#x17E;" horiz-adv-x="1237" d="M1055,881l0,-68C1055,786 1045,764 1026,745l-596,-577l539,0C992,168 1012,160 1029,144C1045,127 1053,107 1053,84C1053,61 1045,41 1029,25C1012,8 992,0 969,0l-676,0C269,0 249,8 232,25C215,41 207,61 207,84l0,72C207,180 222,207 252,236l584,561l-504,0C309,797 289,805 273,822C256,839 248,859 248,883C248,905 256,925 273,942C290,959 309,967 332,967l639,0C994,967 1014,959 1031,942C1047,925 1055,904 1055,881M618,1196l271,125C900,1326 912,1329 925,1329C949,1329 969,1320 985,1303C1000,1285 1008,1265 1008,1243C1008,1207 992,1182 961,1167l-306,-141C642,1021 629,1018 618,1018C605,1018 593,1021 582,1026l-306,141C245,1183 229,1208 229,1243C229,1265 237,1285 253,1303C268,1320 288,1329 312,1329C324,1329 336,1326 348,1321z"/>
<glyph unicode="&#xA6;" horiz-adv-x="1237" d="M705,870C705,847 697,827 680,810C663,793 642,784 618,784C595,784 576,793 560,810C543,827 535,847 535,870l0,377C535,1270 543,1290 560,1306C577,1321 597,1329 621,1329C644,1329 663,1321 680,1306C697,1290 705,1270 705,1247M705,86C705,63 697,43 680,26C663,9 642,0 618,0C595,0 576,9 560,26C543,43 535,63 535,86l0,377C535,486 543,505 560,521C577,537 597,545 621,545C644,545 663,537 680,521C697,505 705,486 705,463z"/>
<glyph unicode="&#xAD;" horiz-adv-x="1237" d="M1053,670l0,-74C1053,573 1045,553 1029,536C1012,519 992,510 969,510l-678,0C268,510 248,519 232,536C215,553 207,573 207,596l0,74C207,693 215,713 232,730C248,746 268,754 291,754l678,0C990,754 1010,746 1027,731C1044,715 1053,695 1053,670z"/>
<glyph unicode="&#xAF;" horiz-adv-x="1237" d="M1247,1415l-1257,0l0,170l1257,0z"/>
<glyph unicode="&#xD0;" horiz-adv-x="1237" d="M375,1159l-86,0C266,1159 246,1168 230,1185C213,1202 205,1222 205,1245C205,1268 213,1287 230,1304C246,1321 266,1329 289,1329l332,0C664,1328 707,1314 748,1287C789,1260 819,1227 838,1188l166,-336C1035,791 1051,728 1051,662C1051,601 1034,538 1001,473l-167,-332C813,98 782,64 742,39C702,13 657,0 608,0l-321,0C264,0 244,8 228,25C211,42 203,61 203,84C203,107 211,128 228,145C244,162 264,170 287,170l88,0l0,414l-88,0C264,584 245,592 228,609C211,625 203,645 203,668C203,691 211,710 228,727C245,744 264,752 287,752l88,0M543,168l59,0C639,168 667,186 686,223l166,330C873,596 883,633 883,662C883,699 875,733 858,766l-172,342C668,1142 639,1159 598,1159l-55,0l0,-407l84,0C650,752 671,744 688,728C705,711 713,691 713,668C713,645 705,625 688,609C671,592 650,584 627,584l-84,0z"/>
<glyph unicode="&#xF0;" horiz-adv-x="1237" d="M1057,307C1057,232 1022,162 951,98C880,34 806,2 731,2l-197,0C457,2 384,35 314,100C244,165 209,234 209,307l0,185C209,565 243,635 312,700C380,765 454,797 534,797l84,0l-157,157l-42,-43l-69,-70C333,824 312,815 289,815C266,815 246,823 230,840C213,856 205,876 205,899C205,922 213,942 229,958l113,113l-113,115C213,1202 205,1222 205,1245C205,1268 213,1288 230,1305C246,1321 266,1329 289,1329C308,1329 322,1326 331,1319C340,1312 364,1289 403,1250C442,1211 461,1191 461,1190l114,115C592,1321 612,1329 635,1329C658,1329 677,1321 694,1305C711,1288 719,1268 719,1245C719,1226 716,1212 709,1203C702,1194 679,1170 640,1131C601,1092 580,1073 579,1073l410,-409C1034,619 1057,561 1057,492M889,313l0,170C889,516 879,541 858,557l-59,47C779,621 756,629 729,629l-174,0C517,629 488,620 467,602l-57,-49C389,536 379,513 379,485l0,-170C379,284 390,260 412,242l63,-54C489,176 509,170 534,170l195,0C758,170 784,180 807,201l51,45C879,262 889,284 889,313z"/>
<glyph unicode="&#xDD;" horiz-adv-x="1237" d="M717,637l0,-553C717,61 709,41 692,25C675,8 656,0 633,0C609,0 589,8 572,25C555,41 547,61 547,84l0,553l-338,428l0,178C209,1267 217,1287 234,1304C250,1321 270,1329 293,1329C316,1329 337,1321 354,1304C371,1287 379,1266 379,1243l0,-115l252,-325l256,323l0,117C887,1266 895,1287 912,1304C929,1321 948,1329 971,1329C993,1329 1013,1321 1030,1306C1047,1290 1055,1269 1055,1243l0,-176M858,1685C870,1690 882,1693 895,1693C919,1693 939,1684 954,1667C969,1649 977,1629 977,1607C977,1571 961,1546 930,1531l-305,-141C613,1385 601,1382 588,1382C564,1382 544,1391 529,1409C514,1426 506,1446 506,1468C506,1504 522,1529 553,1544z"/>
<glyph unicode="&#xFD;" horiz-adv-x="1237" d="M1055,719l-453,-1024C587,-342 560,-360 522,-360l-233,0C266,-360 246,-352 230,-336C213,-320 205,-300 205,-276C205,-253 213,-233 230,-217C246,-201 266,-193 289,-193l180,0l115,267l-41,0C505,74 478,94 461,133l-252,586l0,162C209,904 217,924 233,941C249,957 268,965 291,965C314,965 335,957 352,941C369,924 377,904 377,881l0,-125l221,-512l59,0l228,510l0,129C885,905 894,925 911,942C928,959 948,967 971,967C994,967 1013,959 1030,942C1047,925 1055,906 1055,883M858,1321C870,1326 882,1329 895,1329C919,1329 939,1320 954,1303C969,1285 977,1265 977,1243C977,1207 961,1182 930,1167l-305,-141C613,1021 601,1018 588,1018C564,1018 544,1027 529,1045C514,1062 506,1082 506,1104C506,1140 522,1165 553,1180z"/>
<glyph unicode="&#xDE;" horiz-adv-x="1237" d="M1055,565C1055,496 1030,436 981,387C932,338 872,313 803,313l-426,0l0,-229C377,61 369,41 353,25C336,8 316,0 293,0C269,0 249,8 232,25C215,41 207,61 207,84l0,1161C207,1268 215,1288 232,1305C249,1321 269,1329 293,1329C316,1329 336,1321 353,1305C369,1288 377,1268 377,1245l0,-280l426,0C872,965 931,940 981,890C1030,840 1055,780 1055,711M887,565l0,146C887,734 879,753 862,770C845,787 826,795 803,795l-426,0l0,-314l426,0C826,481 845,489 862,506C879,523 887,542 887,565z"/>
<glyph unicode="&#xFE;" horiz-adv-x="1237" d="M377,96l0,-372C377,-300 369,-320 353,-337C336,-354 316,-362 293,-362C270,-362 250,-354 233,-337C216,-320 207,-300 207,-276l0,1521C207,1268 215,1288 232,1305C249,1321 269,1329 293,1329C316,1329 335,1321 352,1305C369,1288 377,1268 377,1245l0,-377C458,959 539,1004 618,1004l39,0C716,1004 771,982 821,938l140,-121C1022,764 1053,696 1053,614l0,-262C1053,269 1020,200 954,143l-137,-118C772,-16 714,-37 645,-37l-37,0C543,-37 487,-14 442,31M614,133l43,0C678,133 700,143 723,164l131,115C876,296 887,320 887,350l0,271C887,648 875,671 850,692l-141,121C693,827 676,834 657,834l-49,0C589,834 565,819 535,788l-125,-124C388,642 377,617 377,590l0,-215C377,349 389,324 414,299l121,-121C565,148 591,133 614,133z"/>
<glyph unicode="&#x2212;" horiz-adv-x="1237" d="M961,752C984,752 1005,744 1022,728C1039,711 1047,691 1047,668C1047,645 1039,625 1022,609C1005,592 984,584 961,584l-685,0C253,584 234,592 218,609C201,625 193,645 193,668C193,691 201,710 218,727C234,744 253,752 276,752z"/>
<glyph unicode="&#xD7;" horiz-adv-x="1237" d="M761,668l226,-226C1004,426 1013,406 1013,382C1013,359 1005,339 988,322C971,305 951,296 928,296C905,296 885,305 868,322l-228,227l-225,-227C398,306 378,298 355,298C331,298 311,306 296,323C280,340 272,359 272,382C272,405 280,424 296,440l226,228l-226,225C281,909 273,928 273,950C273,974 282,995 299,1012C316,1029 336,1037 359,1037C382,1037 402,1029 417,1014l225,-228l226,226C885,1029 905,1037 929,1037C952,1037 972,1029 988,1012C1004,995 1012,976 1012,954C1012,930 1004,910 987,893z"/>
<glyph unicode="&#xB9;" horiz-adv-x="1237" d="M879,694l-328,0C529,694 511,701 498,716C484,730 477,747 477,768C477,789 484,806 498,821C511,835 529,842 551,842l90,0l0,340l-90,0C529,1182 511,1189 498,1203C484,1217 477,1234 477,1255C477,1276 484,1293 498,1308C511,1322 529,1329 551,1329l164,0C764,1329 789,1304 789,1255l0,-413l90,0C901,842 919,835 933,821C946,806 953,789 953,768C953,747 946,730 933,716C919,701 901,694 879,694z"/>
<glyph unicode="&#xB2;" horiz-adv-x="1237" d="M893,1077C893,1042 879,1011 850,982C821,953 789,938 754,938l-211,0l0,-96l254,0C819,842 837,835 850,821C863,806 870,789 870,768C870,747 863,730 850,716C837,701 819,694 797,694l-328,0C420,694 395,719 395,768l0,178C395,981 410,1013 439,1042C468,1071 500,1085 535,1085l210,0l0,97l-266,0C457,1182 439,1189 426,1203C413,1217 406,1234 406,1255C406,1276 413,1293 426,1308C439,1322 457,1329 479,1329l275,0C789,1329 821,1315 850,1286C879,1257 893,1225 893,1190z"/>
<glyph unicode="&#xB3;" horiz-adv-x="1237" d="M966,834C966,799 952,767 923,738C894,709 862,694 827,694l-275,0C530,694 512,701 499,716C486,730 479,747 479,768C479,789 486,806 499,821C512,835 530,842 552,842l266,0l0,96l-114,0C681,938 663,945 650,960C637,974 630,991 630,1012C630,1033 637,1050 650,1064C663,1078 681,1085 704,1085l114,0l0,97l-266,0C530,1182 512,1189 499,1203C486,1217 479,1234 479,1255C479,1276 486,1293 499,1308C512,1322 530,1329 552,1329l275,0C862,1329 894,1315 923,1286C952,1257 966,1225 966,1190l0,-113C966,1052 958,1031 941,1012C958,993 966,971 966,946z"/>
<glyph unicode="&#xBD;" horiz-adv-x="1237" d="M452,694l-328,0C102,694 84,701 71,716C57,730 50,747 50,768C50,789 57,806 71,821C84,835 102,842 124,842l90,0l0,340l-90,0C102,1182 84,1189 71,1203C57,1217 50,1234 50,1255C50,1276 57,1293 71,1308C84,1322 102,1329 124,1329l164,0C337,1329 362,1304 362,1255l0,-413l90,0C474,842 492,835 506,821C519,806 526,789 526,768C526,747 519,730 506,716C492,701 474,694 452,694M1238,1192l-1090,-1157C133,18 115,10 96,10C76,10 58,18 43,34C28,49 20,67 20,86C20,105 27,122 41,137l1090,1157C1146,1311 1164,1319 1183,1319C1203,1319 1221,1311 1236,1296C1251,1281 1259,1263 1259,1243C1259,1224 1252,1207 1238,1192M1207,383C1207,348 1193,317 1164,288C1135,259 1103,244 1068,244l-211,0l0,-96l254,0C1133,148 1151,141 1164,127C1177,112 1184,95 1184,74C1184,53 1177,36 1164,22C1151,7 1133,0 1111,0l-328,0C734,0 709,25 709,74l0,178C709,287 724,319 753,348C782,377 814,391 849,391l210,0l0,97l-266,0C771,488 753,495 740,509C727,523 720,540 720,561C720,582 727,599 740,614C753,628 771,635 793,635l275,0C1103,635 1135,621 1164,592C1193,563 1207,531 1207,496z"/>
<glyph unicode="&#xBC;" horiz-adv-x="1237" d="M452,694l-328,0C102,694 84,701 71,716C57,730 50,747 50,768C50,789 57,806 71,821C84,835 102,842 124,842l90,0l0,340l-90,0C102,1182 84,1189 71,1203C57,1217 50,1234 50,1255C50,1276 57,1293 71,1308C84,1322 102,1329 124,1329l164,0C337,1329 362,1304 362,1255l0,-413l90,0C474,842 492,835 506,821C519,806 526,789 526,768C526,747 519,730 506,716C492,701 474,694 452,694M1238,1192l-1090,-1157C133,18 115,10 96,10C76,10 58,18 43,34C28,49 20,67 20,86C20,105 27,122 41,137l1090,1157C1146,1311 1164,1319 1183,1319C1203,1319 1221,1311 1236,1296C1251,1281 1259,1263 1259,1243C1259,1224 1252,1207 1238,1192M1215,147l-20,0l0,-73C1195,51 1188,33 1174,20C1159,7 1142,0 1121,0C1100,0 1083,7 1069,20C1054,33 1047,51 1047,74l0,73l-264,0C734,147 709,172 709,221l0,340C709,584 716,602 731,615C745,628 762,635 783,635C804,635 821,628 836,615C850,602 857,584 857,561l0,-266l190,0l0,246C1047,563 1054,581 1069,594C1083,607 1100,614 1121,614C1142,614 1159,607 1174,594C1188,581 1195,563 1195,541l0,-246l20,0C1238,295 1256,288 1269,274C1282,259 1289,242 1289,221C1289,200 1282,183 1269,169C1256,154 1238,147 1215,147z"/>
<glyph unicode="&#xBE;" horiz-adv-x="1237" d="M537,834C537,799 523,767 494,738C465,709 433,694 398,694l-275,0C101,694 83,701 70,716C57,730 50,747 50,768C50,789 57,806 70,821C83,835 101,842 123,842l266,0l0,96l-114,0C252,938 234,945 221,960C208,974 201,991 201,1012C201,1033 208,1050 221,1064C234,1078 252,1085 275,1085l114,0l0,97l-266,0C101,1182 83,1189 70,1203C57,1217 50,1234 50,1255C50,1276 57,1293 70,1308C83,1322 101,1329 123,1329l275,0C433,1329 465,1315 494,1286C523,1257 537,1225 537,1190l0,-113C537,1052 529,1031 512,1012C529,993 537,971 537,946M1238,1192l-1090,-1157C133,18 115,10 96,10C76,10 58,18 43,34C28,49 20,67 20,86C20,105 27,122 41,137l1090,1157C1146,1311 1164,1319 1183,1319C1203,1319 1221,1311 1236,1296C1251,1281 1259,1263 1259,1243C1259,1224 1252,1207 1238,1192M1215,147l-20,0l0,-73C1195,51 1188,33 1174,20C1159,7 1142,0 1121,0C1100,0 1083,7 1069,20C1054,33 1047,51 1047,74l0,73l-264,0C734,147 709,172 709,221l0,340C709,584 716,602 731,615C745,628 762,635 783,635C804,635 821,628 836,615C850,602 857,584 857,561l0,-266l190,0l0,246C1047,563 1054,581 1069,594C1083,607 1100,614 1121,614C1142,614 1159,607 1174,594C1188,581 1195,563 1195,541l0,-246l20,0C1238,295 1256,288 1269,274C1282,259 1289,242 1289,221C1289,200 1282,183 1269,169C1256,154 1238,147 1215,147z"/>
<glyph unicode="&#xF003;" horiz-adv-x="1237" d="M901,841l-20,0l0,-73C881,745 874,727 860,714C845,701 828,694 807,694C786,694 769,701 755,714C740,727 733,745 733,768l0,73l-264,0C420,841 395,866 395,915l0,340C395,1278 402,1296 417,1309C431,1322 448,1329 469,1329C490,1329 507,1322 522,1309C536,1296 543,1278 543,1255l0,-266l190,0l0,246C733,1257 740,1275 755,1288C769,1301 786,1308 807,1308C828,1308 845,1301 860,1288C874,1275 881,1257 881,1235l0,-246l20,0C924,989 942,982 955,968C968,953 975,936 975,915C975,894 968,877 955,863C942,848 924,841 901,841z"/>
<glyph unicode="&#xA4;" horiz-adv-x="1237" d="M992,365l90,-91C1098,258 1106,238 1106,215C1106,192 1098,172 1082,156C1065,139 1045,131 1022,131C999,131 980,139 963,156l-96,96C824,221 772,205 711,205l-115,0C538,205 486,220 441,250l-97,-94C328,139 308,131 285,131C262,131 242,139 226,156C209,172 201,192 201,215C201,238 209,258 226,274l90,91C286,408 271,462 271,528l0,113C271,708 286,762 316,803l-90,90C209,910 201,929 201,952C201,975 209,995 226,1012C242,1028 262,1036 285,1036C308,1036 328,1028 344,1012l95,-94C483,949 535,965 596,965l115,0C772,965 824,949 869,918l94,94C980,1028 999,1036 1022,1036C1045,1036 1065,1028 1082,1012C1098,995 1106,975 1106,952C1106,929 1098,910 1082,893l-90,-90C1022,762 1037,708 1037,641l0,-113C1037,462 1022,408 992,365M867,549l0,72C867,670 857,704 836,721l-57,49C760,788 730,797 691,797l-74,0C579,797 550,788 529,770l-58,-49C451,702 441,669 441,621l0,-72C441,500 451,466 471,449l58,-50C550,382 579,373 617,373l74,0C729,373 758,382 779,399l57,50C857,468 867,501 867,549z"/>
</font>
</defs>
</svg>
